M48
; DRILL file {KiCad 9.0.3} date 2025-07-31T09:26:28+0900
; FORMAT={-:-/ absolute / metric / decimal}
; #@! TF.CreationDate,2025-07-31T09:26:28+09:00
; #@! TF.GenerationSoftware,Kicad,Pcbnew,9.0.3
; #@! TF.FileFunction,MixedPlating,1,2
FMAT,2
METRIC
; #@! TA.AperFunction,Plated,PTH,ComponentDrill
T1C0.200
; #@! TA.AperFunction,Plated,PTH,ViaDrill
T2C0.300
; #@! TA.AperFunction,Plated,PTH,ComponentDrill
T3C0.700
; #@! TA.AperFunction,Plated,PTH,ComponentDrill
T4C0.750
; #@! TA.AperFunction,Plated,PTH,ComponentDrill
T5C0.800
; #@! TA.AperFunction,Plated,PTH,ComponentDrill
T6C0.900
; #@! TA.AperFunction,Plated,PTH,ComponentDrill
T7C0.950
; #@! TA.AperFunction,Plated,PTH,ComponentDrill
T8C1.000
; #@! TA.AperFunction,Plated,PTH,ComponentDrill
T9C1.100
; #@! TA.AperFunction,Plated,PTH,ComponentDrill
T10C2.000
; #@! TA.AperFunction,Plated,PTH,ComponentDrill
T11C2.300
; #@! TA.AperFunction,NonPlated,NPTH,ComponentDrill
T12C2.300
%
G90
G05
T1
X100.89Y-91.7
X100.89Y-93.1
X101.59Y-91.0
X101.59Y-92.375
X101.59Y-93.8
X102.29Y-91.7
X102.29Y-93.1
X102.99Y-91.0
X102.99Y-92.375
X102.99Y-93.8
X103.69Y-91.7
X103.69Y-93.1
T2
X52.0Y-83.0
X52.0Y-118.5
X52.5Y-131.0
X53.0Y-109.0
X53.0Y-112.0
X54.0Y-77.0
X54.0Y-78.0
X54.5Y-103.5
X54.5Y-104.5
X55.5Y-63.5
X56.0Y-53.0
X56.5Y-65.5
X57.0Y-74.5
X57.5Y-69.5
X57.5Y-106.5
X58.0Y-75.0
X58.5Y-112.0
X58.5Y-114.5
X58.5Y-117.0
X59.0Y-62.5
X59.5Y-89.0
X60.0Y-103.5
X61.0Y-121.0
X61.055Y-115.555
X62.0Y-92.0
X62.0Y-93.0
X62.0Y-95.5
X62.0Y-96.5
X62.5Y-91.0
X63.0Y-105.0
X63.0Y-119.5
X63.5Y-88.0
X63.5Y-98.0
X63.5Y-115.0
X63.5Y-134.5
X64.5Y-74.5
X65.0Y-62.5
X65.0Y-79.0
X65.5Y-103.0
X66.5Y-83.0
X66.5Y-131.0
X67.0Y-61.0
X67.0Y-103.0
X68.0Y-81.5
X68.5Y-51.0
X68.75Y-97.5
X68.75Y-98.5
X69.0Y-59.0
X69.5Y-81.0
X69.5Y-88.0
X69.5Y-90.0
X69.5Y-93.0
X70.0Y-75.0
X70.5Y-62.5
X70.5Y-87.5
X71.0Y-90.0
X71.0Y-93.0
X71.5Y-61.5
X71.5Y-78.0
X71.5Y-96.5
X71.5Y-98.0
X71.5Y-98.95
X71.5Y-129.5
X72.0Y-118.0
X73.0Y-54.161
X73.0Y-81.0
X73.5Y-59.5
X73.5Y-75.0
X73.5Y-118.0
X74.0Y-54.161
X75.0Y-86.0
X75.0Y-103.5
X75.0Y-121.5
X75.5Y-70.5
X75.854Y-102.646
X77.0Y-62.0
X79.0Y-82.5
X79.0Y-83.631
X79.47Y-100.03
X79.5Y-89.5
X79.5Y-94.5
X79.731Y-95.929
X80.0Y-85.0
X80.0Y-120.5
X80.5Y-51.024
X80.5Y-100.5
X80.5Y-118.0
X81.0Y-109.5
X81.0Y-110.5
X81.5Y-98.5
X82.17Y-95.5
X82.5Y-104.0
X82.5Y-135.5
X83.5Y-79.0
X83.5Y-98.75
X83.5Y-107.75
X84.0Y-72.0
X84.5Y-89.5
X84.5Y-95.349
X84.691Y-98.0
X85.065Y-93.435
X86.0Y-51.024
X86.0Y-85.0
X86.0Y-94.5
X86.99Y-118.99
X87.99Y-117.99
X88.0Y-51.024
X88.0Y-55.5
X88.0Y-77.0
X89.0Y-123.0
X89.5Y-60.5
X89.5Y-133.0
X90.0Y-80.25
X90.0Y-85.0
X90.0Y-95.5
X90.061Y-87.939
X90.5Y-74.0
X90.5Y-79.0
X90.5Y-98.5
X90.75Y-89.5
X91.0Y-83.0
X91.03Y-84.97
X91.5Y-70.0
X91.5Y-73.5
X92.465Y-82.035
X92.5Y-120.0
X93.295Y-119.705
X93.435Y-83.004
X93.5Y-89.0
X93.5Y-99.5
X93.526Y-80.974
X93.832Y-92.701
X94.0Y-90.0
X94.406Y-78.094
X94.5Y-80.5
X94.5Y-83.0
X95.0Y-87.25
X95.0Y-94.5
X95.47Y-104.47
X95.75Y-90.5
X96.0Y-99.5
X96.5Y-56.0
X96.5Y-79.0
X96.5Y-88.0
X96.5Y-104.5
X97.0Y-78.151
X97.25Y-91.25
X97.5Y-105.5
X97.586Y-86.579
X97.75Y-88.5
X97.75Y-99.5
X98.0Y-51.159
X98.0Y-83.5
X98.066Y-78.566
X98.5Y-58.5
X98.5Y-71.0
X99.0Y-83.5
X99.0Y-95.0
X99.066Y-98.066
X99.25Y-88.189
X99.5Y-61.0
X99.5Y-76.5
X99.8Y-83.5
X100.0Y-108.5
X100.0Y-113.0
X100.03Y-78.47
X100.5Y-69.0
X100.5Y-134.0
X100.75Y-101.0
X101.0Y-75.5
X101.0Y-80.5
X101.0Y-95.0
X101.0Y-96.0
X101.469Y-83.531
X101.751Y-96.311
X102.0Y-78.0
X102.25Y-99.75
X102.5Y-62.0
X102.53Y-82.47
X103.0Y-105.5
X103.0Y-121.0
X103.06Y-99.499
X103.2Y-79.7
X103.5Y-72.0
X103.5Y-97.0
X103.951Y-87.39
X104.0Y-69.5
X104.0Y-75.0
X104.0Y-98.749
X105.0Y-87.25
X105.151Y-81.651
X105.201Y-100.5
X105.349Y-79.0
X105.53Y-99.53
X105.75Y-75.0
X105.75Y-86.5
X106.0Y-63.0
X106.001Y-100.5
X106.5Y-68.5
X106.856Y-97.914
X107.5Y-101.5
X107.5Y-109.5
X107.72Y-86.72
X108.5Y-69.5
X108.5Y-75.0
X108.5Y-81.5
X108.5Y-83.514
X108.5Y-104.5
X108.5Y-105.5
X109.0Y-63.0
X109.0Y-99.5
X109.0Y-130.0
X109.5Y-77.0
X110.0Y-65.0
X110.5Y-52.5
X111.0Y-61.0
X111.0Y-77.0
X111.5Y-65.0
X112.0Y-65.5
X112.5Y-77.0
X113.0Y-72.5
X113.0Y-73.5
X113.5Y-62.5
X114.0Y-73.5
X115.5Y-63.0
X115.5Y-64.5
X116.0Y-120.0
T3
X52.0Y-104.0
X55.46Y-69.5
X57.08Y-104.0
X60.54Y-69.5
X62.0Y-76.42
X62.0Y-81.5
X62.92Y-72.5
X65.15Y-76.42
X65.15Y-81.5
X67.0Y-104.5
X67.0Y-109.58
X68.0Y-72.5
X69.5Y-104.5
X69.5Y-109.58
X77.96Y-118.0
X77.96Y-120.5
X81.42Y-72.0
X81.5Y-74.5
X81.5Y-77.5
X83.04Y-118.0
X83.04Y-120.5
X85.46Y-114.0
X85.46Y-116.5
X85.46Y-119.0
X85.46Y-121.5
X86.5Y-72.0
X86.58Y-74.5
X86.58Y-77.5
X90.54Y-114.0
X90.54Y-116.5
X90.54Y-119.0
X90.54Y-121.5
X91.5Y-81.0
X95.5Y-68.96
X95.5Y-74.04
X96.0Y-77.0
X96.58Y-81.0
X98.5Y-68.92
X98.5Y-74.0
X101.08Y-77.0
X104.0Y-77.5
X104.0Y-82.58
X106.5Y-77.46
X106.5Y-82.54
X108.0Y-56.42
X108.0Y-61.5
T4
X89.5Y-72.0
X90.77Y-72.0
X92.04Y-72.0
T5
X53.225Y-106.685
X53.225Y-114.305
X55.5Y-72.5
X55.765Y-106.685
X55.765Y-114.305
X59.5Y-106.5
X59.5Y-109.0
X59.61Y-52.66
X59.61Y-65.36
X60.5Y-72.5
X62.15Y-52.66
X62.15Y-65.36
X64.5Y-106.5
X64.5Y-109.0
X64.69Y-52.66
X64.69Y-65.36
X67.23Y-52.66
X67.23Y-65.36
X69.77Y-52.66
X69.77Y-65.36
X72.31Y-52.66
X72.31Y-65.36
X72.5Y-105.0
X74.0Y-56.5
X74.0Y-61.5
X74.0Y-111.06
X74.0Y-115.94
X74.85Y-52.66
X74.85Y-65.36
X77.39Y-52.66
X77.39Y-65.36
X77.5Y-105.0
X78.0Y-111.0
X78.0Y-113.5
X81.0Y-104.0
X83.0Y-111.0
X83.0Y-113.5
X86.0Y-104.0
X88.0Y-68.5
X89.0Y-107.0
X90.61Y-52.66
X90.61Y-65.36
X93.0Y-68.5
X93.15Y-52.66
X93.15Y-65.36
X93.5Y-56.597
X93.5Y-61.597
X94.0Y-107.0
X95.69Y-52.66
X95.69Y-65.36
X98.23Y-52.66
X98.23Y-65.36
X100.77Y-52.66
X100.77Y-65.36
X103.31Y-52.66
X103.31Y-65.36
X105.85Y-52.66
X105.85Y-65.36
X108.39Y-52.66
X108.39Y-65.36
X111.0Y-105.5
X111.0Y-108.5
X111.0Y-116.0
X116.0Y-105.5
X116.0Y-108.5
X116.0Y-116.0
T6
X81.95Y-128.7
X82.97Y-126.16
X83.99Y-128.7
X85.01Y-126.16
X86.03Y-128.7
X87.05Y-126.16
X93.23Y-124.0
X93.23Y-128.5
X93.23Y-135.0
X95.77Y-124.0
X95.77Y-128.5
X95.77Y-135.0
T7
X66.75Y-121.712
X66.75Y-123.712
X69.25Y-121.712
X69.25Y-123.712
T8
X52.0Y-67.46
X52.0Y-70.0
X52.0Y-72.54
X52.0Y-75.08
X52.0Y-77.62
X53.5Y-52.69
X53.5Y-55.23
X53.5Y-57.77
X53.5Y-60.31
X69.4Y-76.5
X77.0Y-76.5
X81.0Y-82.73
X81.0Y-87.32
X81.0Y-91.91
X81.0Y-96.5
X83.5Y-52.725
X83.5Y-55.265
X83.54Y-82.73
X83.54Y-87.32
X83.54Y-91.91
X83.54Y-96.5
X86.08Y-82.73
X86.08Y-87.32
X86.08Y-91.91
X86.08Y-96.5
X87.235Y-110.5
X89.775Y-110.5
X92.5Y-77.5
X93.5Y-114.96
X93.5Y-117.5
X98.0Y-109.46
X98.0Y-112.0
X98.0Y-114.54
X98.0Y-117.08
X111.0Y-69.225
X111.0Y-71.765
X112.96Y-128.0
X114.0Y-52.92
X114.0Y-55.46
X114.0Y-58.0
X114.0Y-60.54
X115.5Y-128.0
X116.0Y-68.46
X116.0Y-71.0
X116.0Y-73.54
X116.0Y-76.08
X116.0Y-78.62
X116.0Y-81.16
T9
X67.92Y-68.5
X78.08Y-68.5
X83.0Y-62.5
X83.0Y-65.04
X83.0Y-67.58
T10
X53.0Y-121.5
X53.0Y-127.0
X55.0Y-129.4
T11
X62.0Y-126.572
X74.0Y-126.572
T12
X78.5Y-131.0
X90.5Y-131.0
T8
G00X101.05Y-123.2
M15
G01X103.65Y-123.2
M16
G05
G00X101.25Y-129.5
M15
G01X103.45Y-129.5
M16
G05
G00X107.15Y-125.0
M15
G01X107.15Y-127.2
M16
G05
M30
