%TF.GenerationSoftware,KiCad,Pcbnew,9.0.3*%
%TF.CreationDate,2025-07-31T09:26:23+09:00*%
%TF.ProjectId,OnStepJuwei17,4f6e5374-6570-44a7-9577-656931372e6b,rev?*%
%TF.SameCoordinates,Original*%
%TF.FileFunction,Paste,Top*%
%TF.FilePolarity,Positive*%
%FSLAX46Y46*%
G04 Gerber Fmt 4.6, Leading zero omitted, Abs format (unit mm)*
G04 Created by KiCad (PCBNEW 9.0.3) date 2025-07-31 09:26:23*
%MOMM*%
%LPD*%
G01*
G04 APERTURE LIST*
G04 Aperture macros list*
%AMRoundRect*
0 Rectangle with rounded corners*
0 $1 Rounding radius*
0 $2 $3 $4 $5 $6 $7 $8 $9 X,Y pos of 4 corners*
0 Add a 4 corners polygon primitive as box body*
4,1,4,$2,$3,$4,$5,$6,$7,$8,$9,$2,$3,0*
0 Add four circle primitives for the rounded corners*
1,1,$1+$1,$2,$3*
1,1,$1+$1,$4,$5*
1,1,$1+$1,$6,$7*
1,1,$1+$1,$8,$9*
0 Add four rect primitives between the rounded corners*
20,1,$1+$1,$2,$3,$4,$5,0*
20,1,$1+$1,$4,$5,$6,$7,0*
20,1,$1+$1,$6,$7,$8,$9,0*
20,1,$1+$1,$8,$9,$2,$3,0*%
G04 Aperture macros list end*
%ADD10R,1.000000X2.500000*%
%ADD11R,1.800000X1.000000*%
%ADD12RoundRect,0.150000X-0.825000X-0.150000X0.825000X-0.150000X0.825000X0.150000X-0.825000X0.150000X0*%
%ADD13R,0.900000X1.500000*%
%ADD14R,1.500000X0.900000*%
%ADD15R,0.900000X0.900000*%
%ADD16RoundRect,0.150000X0.150000X-0.825000X0.150000X0.825000X-0.150000X0.825000X-0.150000X-0.825000X0*%
%ADD17RoundRect,0.375000X-0.625000X-0.375000X0.625000X-0.375000X0.625000X0.375000X-0.625000X0.375000X0*%
%ADD18RoundRect,0.500000X-0.500000X-1.400000X0.500000X-1.400000X0.500000X1.400000X-0.500000X1.400000X0*%
G04 APERTURE END LIST*
D10*
%TO.C,U4*%
X59500000Y-100700000D03*
X61500000Y-100700000D03*
X63500000Y-100700000D03*
X65500000Y-100700000D03*
X67500000Y-100700000D03*
X69500000Y-100700000D03*
X71500000Y-100700000D03*
X73500000Y-100700000D03*
D11*
X75000000Y-98100000D03*
X75000000Y-96100000D03*
X75000000Y-94100000D03*
X75000000Y-92100000D03*
X75000000Y-90100000D03*
X75000000Y-88100000D03*
D10*
X73500000Y-85500000D03*
X71500000Y-85500000D03*
X69500000Y-85500000D03*
X67500000Y-85500000D03*
X65500000Y-85500000D03*
X63500000Y-85500000D03*
X61500000Y-85500000D03*
X59500000Y-85500000D03*
%TD*%
D12*
%TO.C,U2*%
X102000000Y-69690000D03*
X102000000Y-70960000D03*
X102000000Y-72230000D03*
X102000000Y-73500000D03*
X106950000Y-73500000D03*
X106950000Y-72230000D03*
X106950000Y-70960000D03*
X106950000Y-69690000D03*
%TD*%
D13*
%TO.C,U1*%
X110010000Y-85150000D03*
X108740000Y-85150000D03*
X107470000Y-85150000D03*
X106200000Y-85150000D03*
X104930000Y-85150000D03*
X103660000Y-85150000D03*
X102390000Y-85150000D03*
X101120000Y-85150000D03*
X99850000Y-85150000D03*
X98580000Y-85150000D03*
X97310000Y-85150000D03*
X96040000Y-85150000D03*
X94770000Y-85150000D03*
X93500000Y-85150000D03*
D14*
X92250000Y-88190000D03*
X92250000Y-89460000D03*
X92250000Y-90730000D03*
X92250000Y-92000000D03*
X92250000Y-93270000D03*
X92250000Y-94540000D03*
X92250000Y-95810000D03*
X92250000Y-97080000D03*
X92250000Y-98350000D03*
X92250000Y-99620000D03*
D13*
X93500000Y-102650000D03*
X94770000Y-102650000D03*
X96040000Y-102650000D03*
X97310000Y-102650000D03*
X98580000Y-102650000D03*
X99850000Y-102650000D03*
X101120000Y-102650000D03*
X102390000Y-102650000D03*
X103660000Y-102650000D03*
X104930000Y-102650000D03*
X106200000Y-102650000D03*
X107470000Y-102650000D03*
X108740000Y-102650000D03*
X110010000Y-102650000D03*
D15*
X103690000Y-91000000D03*
X102290000Y-91000000D03*
X100890000Y-91000000D03*
X103690000Y-92400000D03*
X102290000Y-92400000D03*
X100890000Y-92400000D03*
X103690000Y-93800000D03*
X102290000Y-93800000D03*
X100890000Y-93800000D03*
%TD*%
D16*
%TO.C,U3*%
X61055000Y-117450000D03*
X62325000Y-117450000D03*
X63595000Y-117450000D03*
X64865000Y-117450000D03*
X66135000Y-117450000D03*
X67405000Y-117450000D03*
X68675000Y-117450000D03*
X69945000Y-117450000D03*
X69945000Y-112500000D03*
X68675000Y-112500000D03*
X67405000Y-112500000D03*
X66135000Y-112500000D03*
X64865000Y-112500000D03*
X63595000Y-112500000D03*
X62325000Y-112500000D03*
X61055000Y-112500000D03*
%TD*%
D17*
%TO.C,U5*%
X101850000Y-110700000D03*
X101850000Y-113000000D03*
D18*
X108150000Y-113000000D03*
D17*
X101850000Y-115300000D03*
%TD*%
M02*
