%TF.GenerationSoftware,KiCad,Pcbnew,9.0.3*%
%TF.CreationDate,2025-07-31T09:26:23+09:00*%
%TF.ProjectId,OnStepJuwei17,4f6e5374-6570-44a7-9577-656931372e6b,rev?*%
%TF.SameCoordinates,Original*%
%TF.FileFunction,Legend,Top*%
%TF.FilePolarity,Positive*%
%FSLAX46Y46*%
G04 Gerber Fmt 4.6, Leading zero omitted, Abs format (unit mm)*
G04 Created by KiCad (PCBNEW 9.0.3) date 2025-07-31 09:26:23*
%MOMM*%
%LPD*%
G01*
G04 APERTURE LIST*
%ADD10C,0.100000*%
%ADD11C,0.150000*%
%ADD12C,0.120000*%
G04 APERTURE END LIST*
D10*
X116000000Y-51000000D02*
X112000000Y-51000000D01*
X55500000Y-50750000D02*
X55500000Y-62250000D01*
X117500000Y-130000000D02*
X117500000Y-126000000D01*
X116000000Y-52500000D02*
X116000000Y-51000000D01*
X113000000Y-68750000D02*
X113000000Y-67250000D01*
X85500000Y-50750000D02*
X81500000Y-50750000D01*
X81500000Y-50750000D02*
X81500000Y-57250000D01*
X55500000Y-62250000D02*
X51500000Y-62250000D01*
X85500000Y-52250000D02*
X85500000Y-50750000D01*
X117500000Y-126000000D02*
X111000000Y-126000000D01*
X112000000Y-51000000D02*
X112000000Y-62500000D01*
X109000000Y-73750000D02*
X113000000Y-73750000D01*
X51500000Y-62250000D02*
X51500000Y-60750000D01*
X111000000Y-130000000D02*
X112500000Y-130000000D01*
X111000000Y-126000000D02*
X111000000Y-130000000D01*
X81500000Y-57250000D02*
X85500000Y-57250000D01*
X51500000Y-50750000D02*
X55500000Y-50750000D01*
X109000000Y-67250000D02*
X109000000Y-73750000D01*
X112000000Y-62500000D02*
X116000000Y-62500000D01*
X85500000Y-57250000D02*
X85500000Y-55750000D01*
X116000000Y-62500000D02*
X116000000Y-61000000D01*
X113000000Y-73750000D02*
X113000000Y-72250000D01*
X116000000Y-130000000D02*
X117500000Y-130000000D01*
X51500000Y-52250000D02*
X51500000Y-50750000D01*
X113000000Y-67250000D02*
X109000000Y-67250000D01*
X91780074Y-117062419D02*
X91303884Y-117062419D01*
X91303884Y-117062419D02*
X91256265Y-117538609D01*
X91256265Y-117538609D02*
X91303884Y-117490990D01*
X91303884Y-117490990D02*
X91399122Y-117443371D01*
X91399122Y-117443371D02*
X91637217Y-117443371D01*
X91637217Y-117443371D02*
X91732455Y-117490990D01*
X91732455Y-117490990D02*
X91780074Y-117538609D01*
X91780074Y-117538609D02*
X91827693Y-117633847D01*
X91827693Y-117633847D02*
X91827693Y-117871942D01*
X91827693Y-117871942D02*
X91780074Y-117967180D01*
X91780074Y-117967180D02*
X91732455Y-118014800D01*
X91732455Y-118014800D02*
X91637217Y-118062419D01*
X91637217Y-118062419D02*
X91399122Y-118062419D01*
X91399122Y-118062419D02*
X91303884Y-118014800D01*
X91303884Y-118014800D02*
X91256265Y-117967180D01*
X80446741Y-99300990D02*
X80351503Y-99253371D01*
X80351503Y-99253371D02*
X80303884Y-99205752D01*
X80303884Y-99205752D02*
X80256265Y-99110514D01*
X80256265Y-99110514D02*
X80256265Y-99062895D01*
X80256265Y-99062895D02*
X80303884Y-98967657D01*
X80303884Y-98967657D02*
X80351503Y-98920038D01*
X80351503Y-98920038D02*
X80446741Y-98872419D01*
X80446741Y-98872419D02*
X80637217Y-98872419D01*
X80637217Y-98872419D02*
X80732455Y-98920038D01*
X80732455Y-98920038D02*
X80780074Y-98967657D01*
X80780074Y-98967657D02*
X80827693Y-99062895D01*
X80827693Y-99062895D02*
X80827693Y-99110514D01*
X80827693Y-99110514D02*
X80780074Y-99205752D01*
X80780074Y-99205752D02*
X80732455Y-99253371D01*
X80732455Y-99253371D02*
X80637217Y-99300990D01*
X80637217Y-99300990D02*
X80446741Y-99300990D01*
X80446741Y-99300990D02*
X80351503Y-99348609D01*
X80351503Y-99348609D02*
X80303884Y-99396228D01*
X80303884Y-99396228D02*
X80256265Y-99491466D01*
X80256265Y-99491466D02*
X80256265Y-99681942D01*
X80256265Y-99681942D02*
X80303884Y-99777180D01*
X80303884Y-99777180D02*
X80351503Y-99824800D01*
X80351503Y-99824800D02*
X80446741Y-99872419D01*
X80446741Y-99872419D02*
X80637217Y-99872419D01*
X80637217Y-99872419D02*
X80732455Y-99824800D01*
X80732455Y-99824800D02*
X80780074Y-99777180D01*
X80780074Y-99777180D02*
X80827693Y-99681942D01*
X80827693Y-99681942D02*
X80827693Y-99491466D01*
X80827693Y-99491466D02*
X80780074Y-99396228D01*
X80780074Y-99396228D02*
X80732455Y-99348609D01*
X80732455Y-99348609D02*
X80637217Y-99300990D01*
X81208646Y-98967657D02*
X81256265Y-98920038D01*
X81256265Y-98920038D02*
X81351503Y-98872419D01*
X81351503Y-98872419D02*
X81589598Y-98872419D01*
X81589598Y-98872419D02*
X81684836Y-98920038D01*
X81684836Y-98920038D02*
X81732455Y-98967657D01*
X81732455Y-98967657D02*
X81780074Y-99062895D01*
X81780074Y-99062895D02*
X81780074Y-99158133D01*
X81780074Y-99158133D02*
X81732455Y-99300990D01*
X81732455Y-99300990D02*
X81161027Y-99872419D01*
X81161027Y-99872419D02*
X81780074Y-99872419D01*
X111872419Y-59196115D02*
X110872419Y-59196115D01*
X110872419Y-59196115D02*
X111586704Y-58862782D01*
X111586704Y-58862782D02*
X110872419Y-58529449D01*
X110872419Y-58529449D02*
X111872419Y-58529449D01*
X111872419Y-57529449D02*
X111872419Y-58100877D01*
X111872419Y-57815163D02*
X110872419Y-57815163D01*
X110872419Y-57815163D02*
X111015276Y-57910401D01*
X111015276Y-57910401D02*
X111110514Y-58005639D01*
X111110514Y-58005639D02*
X111158133Y-58100877D01*
X54280074Y-66872419D02*
X53803884Y-66872419D01*
X53803884Y-66872419D02*
X53756265Y-67348609D01*
X53756265Y-67348609D02*
X53803884Y-67300990D01*
X53803884Y-67300990D02*
X53899122Y-67253371D01*
X53899122Y-67253371D02*
X54137217Y-67253371D01*
X54137217Y-67253371D02*
X54232455Y-67300990D01*
X54232455Y-67300990D02*
X54280074Y-67348609D01*
X54280074Y-67348609D02*
X54327693Y-67443847D01*
X54327693Y-67443847D02*
X54327693Y-67681942D01*
X54327693Y-67681942D02*
X54280074Y-67777180D01*
X54280074Y-67777180D02*
X54232455Y-67824800D01*
X54232455Y-67824800D02*
X54137217Y-67872419D01*
X54137217Y-67872419D02*
X53899122Y-67872419D01*
X53899122Y-67872419D02*
X53803884Y-67824800D01*
X53803884Y-67824800D02*
X53756265Y-67777180D01*
X110137217Y-74348609D02*
X110280074Y-74396228D01*
X110280074Y-74396228D02*
X110327693Y-74443847D01*
X110327693Y-74443847D02*
X110375312Y-74539085D01*
X110375312Y-74539085D02*
X110375312Y-74681942D01*
X110375312Y-74681942D02*
X110327693Y-74777180D01*
X110327693Y-74777180D02*
X110280074Y-74824800D01*
X110280074Y-74824800D02*
X110184836Y-74872419D01*
X110184836Y-74872419D02*
X109803884Y-74872419D01*
X109803884Y-74872419D02*
X109803884Y-73872419D01*
X109803884Y-73872419D02*
X110137217Y-73872419D01*
X110137217Y-73872419D02*
X110232455Y-73920038D01*
X110232455Y-73920038D02*
X110280074Y-73967657D01*
X110280074Y-73967657D02*
X110327693Y-74062895D01*
X110327693Y-74062895D02*
X110327693Y-74158133D01*
X110327693Y-74158133D02*
X110280074Y-74253371D01*
X110280074Y-74253371D02*
X110232455Y-74300990D01*
X110232455Y-74300990D02*
X110137217Y-74348609D01*
X110137217Y-74348609D02*
X109803884Y-74348609D01*
X110756265Y-74586704D02*
X111232455Y-74586704D01*
X110661027Y-74872419D02*
X110994360Y-73872419D01*
X110994360Y-73872419D02*
X111327693Y-74872419D01*
X111518170Y-73872419D02*
X112089598Y-73872419D01*
X111803884Y-74872419D02*
X111803884Y-73872419D01*
X91803884Y-70348609D02*
X92137217Y-70348609D01*
X92280074Y-70872419D02*
X91803884Y-70872419D01*
X91803884Y-70872419D02*
X91803884Y-69872419D01*
X91803884Y-69872419D02*
X92280074Y-69872419D01*
X54375312Y-72872419D02*
X54041979Y-72396228D01*
X53803884Y-72872419D02*
X53803884Y-71872419D01*
X53803884Y-71872419D02*
X54184836Y-71872419D01*
X54184836Y-71872419D02*
X54280074Y-71920038D01*
X54280074Y-71920038D02*
X54327693Y-71967657D01*
X54327693Y-71967657D02*
X54375312Y-72062895D01*
X54375312Y-72062895D02*
X54375312Y-72205752D01*
X54375312Y-72205752D02*
X54327693Y-72300990D01*
X54327693Y-72300990D02*
X54280074Y-72348609D01*
X54280074Y-72348609D02*
X54184836Y-72396228D01*
X54184836Y-72396228D02*
X53803884Y-72396228D01*
X109303884Y-126102419D02*
X109303884Y-125102419D01*
X109303884Y-125102419D02*
X109684836Y-125102419D01*
X109684836Y-125102419D02*
X109780074Y-125150038D01*
X109780074Y-125150038D02*
X109827693Y-125197657D01*
X109827693Y-125197657D02*
X109875312Y-125292895D01*
X109875312Y-125292895D02*
X109875312Y-125435752D01*
X109875312Y-125435752D02*
X109827693Y-125530990D01*
X109827693Y-125530990D02*
X109780074Y-125578609D01*
X109780074Y-125578609D02*
X109684836Y-125626228D01*
X109684836Y-125626228D02*
X109303884Y-125626228D01*
X110494360Y-125102419D02*
X110684836Y-125102419D01*
X110684836Y-125102419D02*
X110780074Y-125150038D01*
X110780074Y-125150038D02*
X110875312Y-125245276D01*
X110875312Y-125245276D02*
X110922931Y-125435752D01*
X110922931Y-125435752D02*
X110922931Y-125769085D01*
X110922931Y-125769085D02*
X110875312Y-125959561D01*
X110875312Y-125959561D02*
X110780074Y-126054800D01*
X110780074Y-126054800D02*
X110684836Y-126102419D01*
X110684836Y-126102419D02*
X110494360Y-126102419D01*
X110494360Y-126102419D02*
X110399122Y-126054800D01*
X110399122Y-126054800D02*
X110303884Y-125959561D01*
X110303884Y-125959561D02*
X110256265Y-125769085D01*
X110256265Y-125769085D02*
X110256265Y-125435752D01*
X110256265Y-125435752D02*
X110303884Y-125245276D01*
X110303884Y-125245276D02*
X110399122Y-125150038D01*
X110399122Y-125150038D02*
X110494360Y-125102419D01*
X111256265Y-125102419D02*
X111494360Y-126102419D01*
X111494360Y-126102419D02*
X111684836Y-125388133D01*
X111684836Y-125388133D02*
X111875312Y-126102419D01*
X111875312Y-126102419D02*
X112113408Y-125102419D01*
X112494360Y-125578609D02*
X112827693Y-125578609D01*
X112970550Y-126102419D02*
X112494360Y-126102419D01*
X112494360Y-126102419D02*
X112494360Y-125102419D01*
X112494360Y-125102419D02*
X112970550Y-125102419D01*
X113970550Y-126102419D02*
X113637217Y-125626228D01*
X113399122Y-126102419D02*
X113399122Y-125102419D01*
X113399122Y-125102419D02*
X113780074Y-125102419D01*
X113780074Y-125102419D02*
X113875312Y-125150038D01*
X113875312Y-125150038D02*
X113922931Y-125197657D01*
X113922931Y-125197657D02*
X113970550Y-125292895D01*
X113970550Y-125292895D02*
X113970550Y-125435752D01*
X113970550Y-125435752D02*
X113922931Y-125530990D01*
X113922931Y-125530990D02*
X113875312Y-125578609D01*
X113875312Y-125578609D02*
X113780074Y-125626228D01*
X113780074Y-125626228D02*
X113399122Y-125626228D01*
X115113408Y-126054800D02*
X115256265Y-126102419D01*
X115256265Y-126102419D02*
X115494360Y-126102419D01*
X115494360Y-126102419D02*
X115589598Y-126054800D01*
X115589598Y-126054800D02*
X115637217Y-126007180D01*
X115637217Y-126007180D02*
X115684836Y-125911942D01*
X115684836Y-125911942D02*
X115684836Y-125816704D01*
X115684836Y-125816704D02*
X115637217Y-125721466D01*
X115637217Y-125721466D02*
X115589598Y-125673847D01*
X115589598Y-125673847D02*
X115494360Y-125626228D01*
X115494360Y-125626228D02*
X115303884Y-125578609D01*
X115303884Y-125578609D02*
X115208646Y-125530990D01*
X115208646Y-125530990D02*
X115161027Y-125483371D01*
X115161027Y-125483371D02*
X115113408Y-125388133D01*
X115113408Y-125388133D02*
X115113408Y-125292895D01*
X115113408Y-125292895D02*
X115161027Y-125197657D01*
X115161027Y-125197657D02*
X115208646Y-125150038D01*
X115208646Y-125150038D02*
X115303884Y-125102419D01*
X115303884Y-125102419D02*
X115541979Y-125102419D01*
X115541979Y-125102419D02*
X115684836Y-125150038D01*
X116018170Y-125102419D02*
X116256265Y-126102419D01*
X116256265Y-126102419D02*
X116446741Y-125388133D01*
X116446741Y-125388133D02*
X116637217Y-126102419D01*
X116637217Y-126102419D02*
X116875313Y-125102419D01*
X77161027Y-86372419D02*
X77732455Y-86372419D01*
X77446741Y-87372419D02*
X77446741Y-86372419D01*
X77970551Y-86372419D02*
X78637217Y-87372419D01*
X78637217Y-86372419D02*
X77970551Y-87372419D01*
X90887217Y-70348609D02*
X91030074Y-70396228D01*
X91030074Y-70396228D02*
X91077693Y-70443847D01*
X91077693Y-70443847D02*
X91125312Y-70539085D01*
X91125312Y-70539085D02*
X91125312Y-70681942D01*
X91125312Y-70681942D02*
X91077693Y-70777180D01*
X91077693Y-70777180D02*
X91030074Y-70824800D01*
X91030074Y-70824800D02*
X90934836Y-70872419D01*
X90934836Y-70872419D02*
X90553884Y-70872419D01*
X90553884Y-70872419D02*
X90553884Y-69872419D01*
X90553884Y-69872419D02*
X90887217Y-69872419D01*
X90887217Y-69872419D02*
X90982455Y-69920038D01*
X90982455Y-69920038D02*
X91030074Y-69967657D01*
X91030074Y-69967657D02*
X91077693Y-70062895D01*
X91077693Y-70062895D02*
X91077693Y-70158133D01*
X91077693Y-70158133D02*
X91030074Y-70253371D01*
X91030074Y-70253371D02*
X90982455Y-70300990D01*
X90982455Y-70300990D02*
X90887217Y-70348609D01*
X90887217Y-70348609D02*
X90553884Y-70348609D01*
X89875312Y-70777180D02*
X89827693Y-70824800D01*
X89827693Y-70824800D02*
X89684836Y-70872419D01*
X89684836Y-70872419D02*
X89589598Y-70872419D01*
X89589598Y-70872419D02*
X89446741Y-70824800D01*
X89446741Y-70824800D02*
X89351503Y-70729561D01*
X89351503Y-70729561D02*
X89303884Y-70634323D01*
X89303884Y-70634323D02*
X89256265Y-70443847D01*
X89256265Y-70443847D02*
X89256265Y-70300990D01*
X89256265Y-70300990D02*
X89303884Y-70110514D01*
X89303884Y-70110514D02*
X89351503Y-70015276D01*
X89351503Y-70015276D02*
X89446741Y-69920038D01*
X89446741Y-69920038D02*
X89589598Y-69872419D01*
X89589598Y-69872419D02*
X89684836Y-69872419D01*
X89684836Y-69872419D02*
X89827693Y-69920038D01*
X89827693Y-69920038D02*
X89875312Y-69967657D01*
X51256265Y-80586704D02*
X51732455Y-80586704D01*
X51161027Y-80872419D02*
X51494360Y-79872419D01*
X51494360Y-79872419D02*
X51827693Y-80872419D01*
X52161027Y-79872419D02*
X52161027Y-80681942D01*
X52161027Y-80681942D02*
X52208646Y-80777180D01*
X52208646Y-80777180D02*
X52256265Y-80824800D01*
X52256265Y-80824800D02*
X52351503Y-80872419D01*
X52351503Y-80872419D02*
X52541979Y-80872419D01*
X52541979Y-80872419D02*
X52637217Y-80824800D01*
X52637217Y-80824800D02*
X52684836Y-80777180D01*
X52684836Y-80777180D02*
X52732455Y-80681942D01*
X52732455Y-80681942D02*
X52732455Y-79872419D01*
X53113408Y-79872419D02*
X53780074Y-80872419D01*
X53780074Y-79872419D02*
X53113408Y-80872419D01*
X91801265Y-110324800D02*
X91944122Y-110372419D01*
X91944122Y-110372419D02*
X92182217Y-110372419D01*
X92182217Y-110372419D02*
X92277455Y-110324800D01*
X92277455Y-110324800D02*
X92325074Y-110277180D01*
X92325074Y-110277180D02*
X92372693Y-110181942D01*
X92372693Y-110181942D02*
X92372693Y-110086704D01*
X92372693Y-110086704D02*
X92325074Y-109991466D01*
X92325074Y-109991466D02*
X92277455Y-109943847D01*
X92277455Y-109943847D02*
X92182217Y-109896228D01*
X92182217Y-109896228D02*
X91991741Y-109848609D01*
X91991741Y-109848609D02*
X91896503Y-109800990D01*
X91896503Y-109800990D02*
X91848884Y-109753371D01*
X91848884Y-109753371D02*
X91801265Y-109658133D01*
X91801265Y-109658133D02*
X91801265Y-109562895D01*
X91801265Y-109562895D02*
X91848884Y-109467657D01*
X91848884Y-109467657D02*
X91896503Y-109420038D01*
X91896503Y-109420038D02*
X91991741Y-109372419D01*
X91991741Y-109372419D02*
X92229836Y-109372419D01*
X92229836Y-109372419D02*
X92372693Y-109420038D01*
X92801265Y-110372419D02*
X92801265Y-109372419D01*
X92801265Y-109848609D02*
X93372693Y-109848609D01*
X93372693Y-110372419D02*
X93372693Y-109372419D01*
X94420312Y-110277180D02*
X94372693Y-110324800D01*
X94372693Y-110324800D02*
X94229836Y-110372419D01*
X94229836Y-110372419D02*
X94134598Y-110372419D01*
X94134598Y-110372419D02*
X93991741Y-110324800D01*
X93991741Y-110324800D02*
X93896503Y-110229561D01*
X93896503Y-110229561D02*
X93848884Y-110134323D01*
X93848884Y-110134323D02*
X93801265Y-109943847D01*
X93801265Y-109943847D02*
X93801265Y-109800990D01*
X93801265Y-109800990D02*
X93848884Y-109610514D01*
X93848884Y-109610514D02*
X93896503Y-109515276D01*
X93896503Y-109515276D02*
X93991741Y-109420038D01*
X93991741Y-109420038D02*
X94134598Y-109372419D01*
X94134598Y-109372419D02*
X94229836Y-109372419D01*
X94229836Y-109372419D02*
X94372693Y-109420038D01*
X94372693Y-109420038D02*
X94420312Y-109467657D01*
X93303884Y-112491466D02*
X94065789Y-112491466D01*
X112803884Y-69491466D02*
X113565789Y-69491466D01*
X113184836Y-69872419D02*
X113184836Y-69110514D01*
X53708646Y-69372419D02*
X54327693Y-69372419D01*
X54327693Y-69372419D02*
X53994360Y-69753371D01*
X53994360Y-69753371D02*
X54137217Y-69753371D01*
X54137217Y-69753371D02*
X54232455Y-69800990D01*
X54232455Y-69800990D02*
X54280074Y-69848609D01*
X54280074Y-69848609D02*
X54327693Y-69943847D01*
X54327693Y-69943847D02*
X54327693Y-70181942D01*
X54327693Y-70181942D02*
X54280074Y-70277180D01*
X54280074Y-70277180D02*
X54232455Y-70324800D01*
X54232455Y-70324800D02*
X54137217Y-70372419D01*
X54137217Y-70372419D02*
X53851503Y-70372419D01*
X53851503Y-70372419D02*
X53756265Y-70324800D01*
X53756265Y-70324800D02*
X53708646Y-70277180D01*
X114327693Y-70420038D02*
X114232455Y-70372419D01*
X114232455Y-70372419D02*
X114089598Y-70372419D01*
X114089598Y-70372419D02*
X113946741Y-70420038D01*
X113946741Y-70420038D02*
X113851503Y-70515276D01*
X113851503Y-70515276D02*
X113803884Y-70610514D01*
X113803884Y-70610514D02*
X113756265Y-70800990D01*
X113756265Y-70800990D02*
X113756265Y-70943847D01*
X113756265Y-70943847D02*
X113803884Y-71134323D01*
X113803884Y-71134323D02*
X113851503Y-71229561D01*
X113851503Y-71229561D02*
X113946741Y-71324800D01*
X113946741Y-71324800D02*
X114089598Y-71372419D01*
X114089598Y-71372419D02*
X114184836Y-71372419D01*
X114184836Y-71372419D02*
X114327693Y-71324800D01*
X114327693Y-71324800D02*
X114375312Y-71277180D01*
X114375312Y-71277180D02*
X114375312Y-70943847D01*
X114375312Y-70943847D02*
X114184836Y-70943847D01*
X83303884Y-57991466D02*
X84065789Y-57991466D01*
X113803884Y-76372419D02*
X113803884Y-75372419D01*
X113803884Y-75372419D02*
X114041979Y-75372419D01*
X114041979Y-75372419D02*
X114184836Y-75420038D01*
X114184836Y-75420038D02*
X114280074Y-75515276D01*
X114280074Y-75515276D02*
X114327693Y-75610514D01*
X114327693Y-75610514D02*
X114375312Y-75800990D01*
X114375312Y-75800990D02*
X114375312Y-75943847D01*
X114375312Y-75943847D02*
X114327693Y-76134323D01*
X114327693Y-76134323D02*
X114280074Y-76229561D01*
X114280074Y-76229561D02*
X114184836Y-76324800D01*
X114184836Y-76324800D02*
X114041979Y-76372419D01*
X114041979Y-76372419D02*
X113803884Y-76372419D01*
X93637217Y-119848609D02*
X93303884Y-119848609D01*
X93303884Y-120372419D02*
X93303884Y-119372419D01*
X93303884Y-119372419D02*
X93780074Y-119372419D01*
X94113408Y-120086704D02*
X94589598Y-120086704D01*
X94018170Y-120372419D02*
X94351503Y-119372419D01*
X94351503Y-119372419D02*
X94684836Y-120372419D01*
X95018170Y-120372419D02*
X95018170Y-119372419D01*
X95018170Y-119372419D02*
X95589598Y-120372419D01*
X95589598Y-120372419D02*
X95589598Y-119372419D01*
X56872419Y-60696115D02*
X55872419Y-60696115D01*
X55872419Y-60696115D02*
X56586704Y-60362782D01*
X56586704Y-60362782D02*
X55872419Y-60029449D01*
X55872419Y-60029449D02*
X56872419Y-60029449D01*
X55967657Y-59600877D02*
X55920038Y-59553258D01*
X55920038Y-59553258D02*
X55872419Y-59458020D01*
X55872419Y-59458020D02*
X55872419Y-59219925D01*
X55872419Y-59219925D02*
X55920038Y-59124687D01*
X55920038Y-59124687D02*
X55967657Y-59077068D01*
X55967657Y-59077068D02*
X56062895Y-59029449D01*
X56062895Y-59029449D02*
X56158133Y-59029449D01*
X56158133Y-59029449D02*
X56300990Y-59077068D01*
X56300990Y-59077068D02*
X56872419Y-59648496D01*
X56872419Y-59648496D02*
X56872419Y-59029449D01*
X56494360Y-55262475D02*
X56684836Y-55262475D01*
X56684836Y-55262475D02*
X56780074Y-55310094D01*
X56780074Y-55310094D02*
X56875312Y-55405332D01*
X56875312Y-55405332D02*
X56922931Y-55595808D01*
X56922931Y-55595808D02*
X56922931Y-55929141D01*
X56922931Y-55929141D02*
X56875312Y-56119617D01*
X56875312Y-56119617D02*
X56780074Y-56214856D01*
X56780074Y-56214856D02*
X56684836Y-56262475D01*
X56684836Y-56262475D02*
X56494360Y-56262475D01*
X56494360Y-56262475D02*
X56399122Y-56214856D01*
X56399122Y-56214856D02*
X56303884Y-56119617D01*
X56303884Y-56119617D02*
X56256265Y-55929141D01*
X56256265Y-55929141D02*
X56256265Y-55595808D01*
X56256265Y-55595808D02*
X56303884Y-55405332D01*
X56303884Y-55405332D02*
X56399122Y-55310094D01*
X56399122Y-55310094D02*
X56494360Y-55262475D01*
X57351503Y-55595808D02*
X57351503Y-56262475D01*
X57351503Y-55691046D02*
X57399122Y-55643427D01*
X57399122Y-55643427D02*
X57494360Y-55595808D01*
X57494360Y-55595808D02*
X57637217Y-55595808D01*
X57637217Y-55595808D02*
X57732455Y-55643427D01*
X57732455Y-55643427D02*
X57780074Y-55738665D01*
X57780074Y-55738665D02*
X57780074Y-56262475D01*
X58208646Y-56214856D02*
X58351503Y-56262475D01*
X58351503Y-56262475D02*
X58589598Y-56262475D01*
X58589598Y-56262475D02*
X58684836Y-56214856D01*
X58684836Y-56214856D02*
X58732455Y-56167236D01*
X58732455Y-56167236D02*
X58780074Y-56071998D01*
X58780074Y-56071998D02*
X58780074Y-55976760D01*
X58780074Y-55976760D02*
X58732455Y-55881522D01*
X58732455Y-55881522D02*
X58684836Y-55833903D01*
X58684836Y-55833903D02*
X58589598Y-55786284D01*
X58589598Y-55786284D02*
X58399122Y-55738665D01*
X58399122Y-55738665D02*
X58303884Y-55691046D01*
X58303884Y-55691046D02*
X58256265Y-55643427D01*
X58256265Y-55643427D02*
X58208646Y-55548189D01*
X58208646Y-55548189D02*
X58208646Y-55452951D01*
X58208646Y-55452951D02*
X58256265Y-55357713D01*
X58256265Y-55357713D02*
X58303884Y-55310094D01*
X58303884Y-55310094D02*
X58399122Y-55262475D01*
X58399122Y-55262475D02*
X58637217Y-55262475D01*
X58637217Y-55262475D02*
X58780074Y-55310094D01*
X59065789Y-55595808D02*
X59446741Y-55595808D01*
X59208646Y-55262475D02*
X59208646Y-56119617D01*
X59208646Y-56119617D02*
X59256265Y-56214856D01*
X59256265Y-56214856D02*
X59351503Y-56262475D01*
X59351503Y-56262475D02*
X59446741Y-56262475D01*
X60161027Y-56214856D02*
X60065789Y-56262475D01*
X60065789Y-56262475D02*
X59875313Y-56262475D01*
X59875313Y-56262475D02*
X59780075Y-56214856D01*
X59780075Y-56214856D02*
X59732456Y-56119617D01*
X59732456Y-56119617D02*
X59732456Y-55738665D01*
X59732456Y-55738665D02*
X59780075Y-55643427D01*
X59780075Y-55643427D02*
X59875313Y-55595808D01*
X59875313Y-55595808D02*
X60065789Y-55595808D01*
X60065789Y-55595808D02*
X60161027Y-55643427D01*
X60161027Y-55643427D02*
X60208646Y-55738665D01*
X60208646Y-55738665D02*
X60208646Y-55833903D01*
X60208646Y-55833903D02*
X59732456Y-55929141D01*
X60637218Y-55595808D02*
X60637218Y-56595808D01*
X60637218Y-55643427D02*
X60732456Y-55595808D01*
X60732456Y-55595808D02*
X60922932Y-55595808D01*
X60922932Y-55595808D02*
X61018170Y-55643427D01*
X61018170Y-55643427D02*
X61065789Y-55691046D01*
X61065789Y-55691046D02*
X61113408Y-55786284D01*
X61113408Y-55786284D02*
X61113408Y-56071998D01*
X61113408Y-56071998D02*
X61065789Y-56167236D01*
X61065789Y-56167236D02*
X61018170Y-56214856D01*
X61018170Y-56214856D02*
X60922932Y-56262475D01*
X60922932Y-56262475D02*
X60732456Y-56262475D01*
X60732456Y-56262475D02*
X60637218Y-56214856D01*
X62303885Y-55738665D02*
X62637218Y-55738665D01*
X62780075Y-56262475D02*
X62303885Y-56262475D01*
X62303885Y-56262475D02*
X62303885Y-55262475D01*
X62303885Y-55262475D02*
X62780075Y-55262475D01*
X63161028Y-56214856D02*
X63303885Y-56262475D01*
X63303885Y-56262475D02*
X63541980Y-56262475D01*
X63541980Y-56262475D02*
X63637218Y-56214856D01*
X63637218Y-56214856D02*
X63684837Y-56167236D01*
X63684837Y-56167236D02*
X63732456Y-56071998D01*
X63732456Y-56071998D02*
X63732456Y-55976760D01*
X63732456Y-55976760D02*
X63684837Y-55881522D01*
X63684837Y-55881522D02*
X63637218Y-55833903D01*
X63637218Y-55833903D02*
X63541980Y-55786284D01*
X63541980Y-55786284D02*
X63351504Y-55738665D01*
X63351504Y-55738665D02*
X63256266Y-55691046D01*
X63256266Y-55691046D02*
X63208647Y-55643427D01*
X63208647Y-55643427D02*
X63161028Y-55548189D01*
X63161028Y-55548189D02*
X63161028Y-55452951D01*
X63161028Y-55452951D02*
X63208647Y-55357713D01*
X63208647Y-55357713D02*
X63256266Y-55310094D01*
X63256266Y-55310094D02*
X63351504Y-55262475D01*
X63351504Y-55262475D02*
X63589599Y-55262475D01*
X63589599Y-55262475D02*
X63732456Y-55310094D01*
X64161028Y-56262475D02*
X64161028Y-55262475D01*
X64161028Y-55262475D02*
X64541980Y-55262475D01*
X64541980Y-55262475D02*
X64637218Y-55310094D01*
X64637218Y-55310094D02*
X64684837Y-55357713D01*
X64684837Y-55357713D02*
X64732456Y-55452951D01*
X64732456Y-55452951D02*
X64732456Y-55595808D01*
X64732456Y-55595808D02*
X64684837Y-55691046D01*
X64684837Y-55691046D02*
X64637218Y-55738665D01*
X64637218Y-55738665D02*
X64541980Y-55786284D01*
X64541980Y-55786284D02*
X64161028Y-55786284D01*
X65065790Y-55262475D02*
X65684837Y-55262475D01*
X65684837Y-55262475D02*
X65351504Y-55643427D01*
X65351504Y-55643427D02*
X65494361Y-55643427D01*
X65494361Y-55643427D02*
X65589599Y-55691046D01*
X65589599Y-55691046D02*
X65637218Y-55738665D01*
X65637218Y-55738665D02*
X65684837Y-55833903D01*
X65684837Y-55833903D02*
X65684837Y-56071998D01*
X65684837Y-56071998D02*
X65637218Y-56167236D01*
X65637218Y-56167236D02*
X65589599Y-56214856D01*
X65589599Y-56214856D02*
X65494361Y-56262475D01*
X65494361Y-56262475D02*
X65208647Y-56262475D01*
X65208647Y-56262475D02*
X65113409Y-56214856D01*
X65113409Y-56214856D02*
X65065790Y-56167236D01*
X66065790Y-55357713D02*
X66113409Y-55310094D01*
X66113409Y-55310094D02*
X66208647Y-55262475D01*
X66208647Y-55262475D02*
X66446742Y-55262475D01*
X66446742Y-55262475D02*
X66541980Y-55310094D01*
X66541980Y-55310094D02*
X66589599Y-55357713D01*
X66589599Y-55357713D02*
X66637218Y-55452951D01*
X66637218Y-55452951D02*
X66637218Y-55548189D01*
X66637218Y-55548189D02*
X66589599Y-55691046D01*
X66589599Y-55691046D02*
X66018171Y-56262475D01*
X66018171Y-56262475D02*
X66637218Y-56262475D01*
X67827695Y-56262475D02*
X67827695Y-55262475D01*
X67827695Y-55262475D02*
X68161028Y-55976760D01*
X68161028Y-55976760D02*
X68494361Y-55262475D01*
X68494361Y-55262475D02*
X68494361Y-56262475D01*
X68970552Y-56262475D02*
X68970552Y-55595808D01*
X68970552Y-55262475D02*
X68922933Y-55310094D01*
X68922933Y-55310094D02*
X68970552Y-55357713D01*
X68970552Y-55357713D02*
X69018171Y-55310094D01*
X69018171Y-55310094D02*
X68970552Y-55262475D01*
X68970552Y-55262475D02*
X68970552Y-55357713D01*
X69446742Y-55595808D02*
X69446742Y-56262475D01*
X69446742Y-55691046D02*
X69494361Y-55643427D01*
X69494361Y-55643427D02*
X69589599Y-55595808D01*
X69589599Y-55595808D02*
X69732456Y-55595808D01*
X69732456Y-55595808D02*
X69827694Y-55643427D01*
X69827694Y-55643427D02*
X69875313Y-55738665D01*
X69875313Y-55738665D02*
X69875313Y-56262475D01*
X70351504Y-56262475D02*
X70351504Y-55595808D01*
X70351504Y-55262475D02*
X70303885Y-55310094D01*
X70303885Y-55310094D02*
X70351504Y-55357713D01*
X70351504Y-55357713D02*
X70399123Y-55310094D01*
X70399123Y-55310094D02*
X70351504Y-55262475D01*
X70351504Y-55262475D02*
X70351504Y-55357713D01*
X56208646Y-57205752D02*
X56446741Y-57872419D01*
X56446741Y-57872419D02*
X56684836Y-57205752D01*
X57494360Y-57872419D02*
X57494360Y-57348609D01*
X57494360Y-57348609D02*
X57446741Y-57253371D01*
X57446741Y-57253371D02*
X57351503Y-57205752D01*
X57351503Y-57205752D02*
X57161027Y-57205752D01*
X57161027Y-57205752D02*
X57065789Y-57253371D01*
X57494360Y-57824800D02*
X57399122Y-57872419D01*
X57399122Y-57872419D02*
X57161027Y-57872419D01*
X57161027Y-57872419D02*
X57065789Y-57824800D01*
X57065789Y-57824800D02*
X57018170Y-57729561D01*
X57018170Y-57729561D02*
X57018170Y-57634323D01*
X57018170Y-57634323D02*
X57065789Y-57539085D01*
X57065789Y-57539085D02*
X57161027Y-57491466D01*
X57161027Y-57491466D02*
X57399122Y-57491466D01*
X57399122Y-57491466D02*
X57494360Y-57443847D01*
X57970551Y-57872419D02*
X57970551Y-57205752D01*
X57970551Y-57396228D02*
X58018170Y-57300990D01*
X58018170Y-57300990D02*
X58065789Y-57253371D01*
X58065789Y-57253371D02*
X58161027Y-57205752D01*
X58161027Y-57205752D02*
X58256265Y-57205752D01*
X58589599Y-57872419D02*
X58589599Y-57205752D01*
X58589599Y-56872419D02*
X58541980Y-56920038D01*
X58541980Y-56920038D02*
X58589599Y-56967657D01*
X58589599Y-56967657D02*
X58637218Y-56920038D01*
X58637218Y-56920038D02*
X58589599Y-56872419D01*
X58589599Y-56872419D02*
X58589599Y-56967657D01*
X59494360Y-57872419D02*
X59494360Y-57348609D01*
X59494360Y-57348609D02*
X59446741Y-57253371D01*
X59446741Y-57253371D02*
X59351503Y-57205752D01*
X59351503Y-57205752D02*
X59161027Y-57205752D01*
X59161027Y-57205752D02*
X59065789Y-57253371D01*
X59494360Y-57824800D02*
X59399122Y-57872419D01*
X59399122Y-57872419D02*
X59161027Y-57872419D01*
X59161027Y-57872419D02*
X59065789Y-57824800D01*
X59065789Y-57824800D02*
X59018170Y-57729561D01*
X59018170Y-57729561D02*
X59018170Y-57634323D01*
X59018170Y-57634323D02*
X59065789Y-57539085D01*
X59065789Y-57539085D02*
X59161027Y-57491466D01*
X59161027Y-57491466D02*
X59399122Y-57491466D01*
X59399122Y-57491466D02*
X59494360Y-57443847D01*
X59970551Y-57205752D02*
X59970551Y-57872419D01*
X59970551Y-57300990D02*
X60018170Y-57253371D01*
X60018170Y-57253371D02*
X60113408Y-57205752D01*
X60113408Y-57205752D02*
X60256265Y-57205752D01*
X60256265Y-57205752D02*
X60351503Y-57253371D01*
X60351503Y-57253371D02*
X60399122Y-57348609D01*
X60399122Y-57348609D02*
X60399122Y-57872419D01*
X60732456Y-57205752D02*
X61113408Y-57205752D01*
X60875313Y-56872419D02*
X60875313Y-57729561D01*
X60875313Y-57729561D02*
X60922932Y-57824800D01*
X60922932Y-57824800D02*
X61018170Y-57872419D01*
X61018170Y-57872419D02*
X61113408Y-57872419D01*
X62065790Y-57205752D02*
X62446742Y-57205752D01*
X62208647Y-57872419D02*
X62208647Y-57015276D01*
X62208647Y-57015276D02*
X62256266Y-56920038D01*
X62256266Y-56920038D02*
X62351504Y-56872419D01*
X62351504Y-56872419D02*
X62446742Y-56872419D01*
X62922933Y-57872419D02*
X62827695Y-57824800D01*
X62827695Y-57824800D02*
X62780076Y-57777180D01*
X62780076Y-57777180D02*
X62732457Y-57681942D01*
X62732457Y-57681942D02*
X62732457Y-57396228D01*
X62732457Y-57396228D02*
X62780076Y-57300990D01*
X62780076Y-57300990D02*
X62827695Y-57253371D01*
X62827695Y-57253371D02*
X62922933Y-57205752D01*
X62922933Y-57205752D02*
X63065790Y-57205752D01*
X63065790Y-57205752D02*
X63161028Y-57253371D01*
X63161028Y-57253371D02*
X63208647Y-57300990D01*
X63208647Y-57300990D02*
X63256266Y-57396228D01*
X63256266Y-57396228D02*
X63256266Y-57681942D01*
X63256266Y-57681942D02*
X63208647Y-57777180D01*
X63208647Y-57777180D02*
X63161028Y-57824800D01*
X63161028Y-57824800D02*
X63065790Y-57872419D01*
X63065790Y-57872419D02*
X62922933Y-57872419D01*
X63684838Y-57872419D02*
X63684838Y-57205752D01*
X63684838Y-57396228D02*
X63732457Y-57300990D01*
X63732457Y-57300990D02*
X63780076Y-57253371D01*
X63780076Y-57253371D02*
X63875314Y-57205752D01*
X63875314Y-57205752D02*
X63970552Y-57205752D01*
X65351505Y-56872419D02*
X65351505Y-57586704D01*
X65351505Y-57586704D02*
X65303886Y-57729561D01*
X65303886Y-57729561D02*
X65208648Y-57824800D01*
X65208648Y-57824800D02*
X65065791Y-57872419D01*
X65065791Y-57872419D02*
X64970553Y-57872419D01*
X65827696Y-56872419D02*
X65827696Y-57681942D01*
X65827696Y-57681942D02*
X65875315Y-57777180D01*
X65875315Y-57777180D02*
X65922934Y-57824800D01*
X65922934Y-57824800D02*
X66018172Y-57872419D01*
X66018172Y-57872419D02*
X66208648Y-57872419D01*
X66208648Y-57872419D02*
X66303886Y-57824800D01*
X66303886Y-57824800D02*
X66351505Y-57777180D01*
X66351505Y-57777180D02*
X66399124Y-57681942D01*
X66399124Y-57681942D02*
X66399124Y-56872419D01*
X66780077Y-56872419D02*
X67018172Y-57872419D01*
X67018172Y-57872419D02*
X67208648Y-57158133D01*
X67208648Y-57158133D02*
X67399124Y-57872419D01*
X67399124Y-57872419D02*
X67637220Y-56872419D01*
X68018172Y-57348609D02*
X68351505Y-57348609D01*
X68494362Y-57872419D02*
X68018172Y-57872419D01*
X68018172Y-57872419D02*
X68018172Y-56872419D01*
X68018172Y-56872419D02*
X68494362Y-56872419D01*
X68922934Y-57872419D02*
X68922934Y-56872419D01*
X69399124Y-57491466D02*
X70161029Y-57491466D01*
X71161028Y-57872419D02*
X70589600Y-57872419D01*
X70875314Y-57872419D02*
X70875314Y-56872419D01*
X70875314Y-56872419D02*
X70780076Y-57015276D01*
X70780076Y-57015276D02*
X70684838Y-57110514D01*
X70684838Y-57110514D02*
X70589600Y-57158133D01*
X71494362Y-56872419D02*
X72161028Y-56872419D01*
X72161028Y-56872419D02*
X71732457Y-57872419D01*
X113327693Y-71420038D02*
X113232455Y-71372419D01*
X113232455Y-71372419D02*
X113089598Y-71372419D01*
X113089598Y-71372419D02*
X112946741Y-71420038D01*
X112946741Y-71420038D02*
X112851503Y-71515276D01*
X112851503Y-71515276D02*
X112803884Y-71610514D01*
X112803884Y-71610514D02*
X112756265Y-71800990D01*
X112756265Y-71800990D02*
X112756265Y-71943847D01*
X112756265Y-71943847D02*
X112803884Y-72134323D01*
X112803884Y-72134323D02*
X112851503Y-72229561D01*
X112851503Y-72229561D02*
X112946741Y-72324800D01*
X112946741Y-72324800D02*
X113089598Y-72372419D01*
X113089598Y-72372419D02*
X113184836Y-72372419D01*
X113184836Y-72372419D02*
X113327693Y-72324800D01*
X113327693Y-72324800D02*
X113375312Y-72277180D01*
X113375312Y-72277180D02*
X113375312Y-71943847D01*
X113375312Y-71943847D02*
X113184836Y-71943847D01*
X77875312Y-96872419D02*
X77541979Y-96396228D01*
X77303884Y-96872419D02*
X77303884Y-95872419D01*
X77303884Y-95872419D02*
X77684836Y-95872419D01*
X77684836Y-95872419D02*
X77780074Y-95920038D01*
X77780074Y-95920038D02*
X77827693Y-95967657D01*
X77827693Y-95967657D02*
X77875312Y-96062895D01*
X77875312Y-96062895D02*
X77875312Y-96205752D01*
X77875312Y-96205752D02*
X77827693Y-96300990D01*
X77827693Y-96300990D02*
X77780074Y-96348609D01*
X77780074Y-96348609D02*
X77684836Y-96396228D01*
X77684836Y-96396228D02*
X77303884Y-96396228D01*
X78303884Y-96348609D02*
X78637217Y-96348609D01*
X78780074Y-96872419D02*
X78303884Y-96872419D01*
X78303884Y-96872419D02*
X78303884Y-95872419D01*
X78303884Y-95872419D02*
X78780074Y-95872419D01*
X53803884Y-75372419D02*
X53803884Y-74372419D01*
X53803884Y-74372419D02*
X54184836Y-74372419D01*
X54184836Y-74372419D02*
X54280074Y-74420038D01*
X54280074Y-74420038D02*
X54327693Y-74467657D01*
X54327693Y-74467657D02*
X54375312Y-74562895D01*
X54375312Y-74562895D02*
X54375312Y-74705752D01*
X54375312Y-74705752D02*
X54327693Y-74800990D01*
X54327693Y-74800990D02*
X54280074Y-74848609D01*
X54280074Y-74848609D02*
X54184836Y-74896228D01*
X54184836Y-74896228D02*
X53803884Y-74896228D01*
X54327693Y-76920038D02*
X54232455Y-76872419D01*
X54232455Y-76872419D02*
X54089598Y-76872419D01*
X54089598Y-76872419D02*
X53946741Y-76920038D01*
X53946741Y-76920038D02*
X53851503Y-77015276D01*
X53851503Y-77015276D02*
X53803884Y-77110514D01*
X53803884Y-77110514D02*
X53756265Y-77300990D01*
X53756265Y-77300990D02*
X53756265Y-77443847D01*
X53756265Y-77443847D02*
X53803884Y-77634323D01*
X53803884Y-77634323D02*
X53851503Y-77729561D01*
X53851503Y-77729561D02*
X53946741Y-77824800D01*
X53946741Y-77824800D02*
X54089598Y-77872419D01*
X54089598Y-77872419D02*
X54184836Y-77872419D01*
X54184836Y-77872419D02*
X54327693Y-77824800D01*
X54327693Y-77824800D02*
X54375312Y-77777180D01*
X54375312Y-77777180D02*
X54375312Y-77443847D01*
X54375312Y-77443847D02*
X54184836Y-77443847D01*
X80848609Y-55862782D02*
X80896228Y-55719925D01*
X80896228Y-55719925D02*
X80943847Y-55672306D01*
X80943847Y-55672306D02*
X81039085Y-55624687D01*
X81039085Y-55624687D02*
X81181942Y-55624687D01*
X81181942Y-55624687D02*
X81277180Y-55672306D01*
X81277180Y-55672306D02*
X81324800Y-55719925D01*
X81324800Y-55719925D02*
X81372419Y-55815163D01*
X81372419Y-55815163D02*
X81372419Y-56196115D01*
X81372419Y-56196115D02*
X80372419Y-56196115D01*
X80372419Y-56196115D02*
X80372419Y-55862782D01*
X80372419Y-55862782D02*
X80420038Y-55767544D01*
X80420038Y-55767544D02*
X80467657Y-55719925D01*
X80467657Y-55719925D02*
X80562895Y-55672306D01*
X80562895Y-55672306D02*
X80658133Y-55672306D01*
X80658133Y-55672306D02*
X80753371Y-55719925D01*
X80753371Y-55719925D02*
X80800990Y-55767544D01*
X80800990Y-55767544D02*
X80848609Y-55862782D01*
X80848609Y-55862782D02*
X80848609Y-56196115D01*
X81372419Y-54624687D02*
X80896228Y-54958020D01*
X81372419Y-55196115D02*
X80372419Y-55196115D01*
X80372419Y-55196115D02*
X80372419Y-54815163D01*
X80372419Y-54815163D02*
X80420038Y-54719925D01*
X80420038Y-54719925D02*
X80467657Y-54672306D01*
X80467657Y-54672306D02*
X80562895Y-54624687D01*
X80562895Y-54624687D02*
X80705752Y-54624687D01*
X80705752Y-54624687D02*
X80800990Y-54672306D01*
X80800990Y-54672306D02*
X80848609Y-54719925D01*
X80848609Y-54719925D02*
X80896228Y-54815163D01*
X80896228Y-54815163D02*
X80896228Y-55196115D01*
X81086704Y-54243734D02*
X81086704Y-53767544D01*
X81372419Y-54338972D02*
X80372419Y-54005639D01*
X80372419Y-54005639D02*
X81372419Y-53672306D01*
X81372419Y-53338972D02*
X80372419Y-53338972D01*
X81372419Y-52767544D02*
X80800990Y-53196115D01*
X80372419Y-52767544D02*
X80943847Y-53338972D01*
X80848609Y-52338972D02*
X80848609Y-52005639D01*
X81372419Y-51862782D02*
X81372419Y-52338972D01*
X81372419Y-52338972D02*
X80372419Y-52338972D01*
X80372419Y-52338972D02*
X80372419Y-51862782D01*
X77875312Y-82872419D02*
X77541979Y-82396228D01*
X77303884Y-82872419D02*
X77303884Y-81872419D01*
X77303884Y-81872419D02*
X77684836Y-81872419D01*
X77684836Y-81872419D02*
X77780074Y-81920038D01*
X77780074Y-81920038D02*
X77827693Y-81967657D01*
X77827693Y-81967657D02*
X77875312Y-82062895D01*
X77875312Y-82062895D02*
X77875312Y-82205752D01*
X77875312Y-82205752D02*
X77827693Y-82300990D01*
X77827693Y-82300990D02*
X77780074Y-82348609D01*
X77780074Y-82348609D02*
X77684836Y-82396228D01*
X77684836Y-82396228D02*
X77303884Y-82396228D01*
X78208646Y-81872419D02*
X78875312Y-82872419D01*
X78875312Y-81872419D02*
X78208646Y-82872419D01*
X114375312Y-73777180D02*
X114327693Y-73824800D01*
X114327693Y-73824800D02*
X114184836Y-73872419D01*
X114184836Y-73872419D02*
X114089598Y-73872419D01*
X114089598Y-73872419D02*
X113946741Y-73824800D01*
X113946741Y-73824800D02*
X113851503Y-73729561D01*
X113851503Y-73729561D02*
X113803884Y-73634323D01*
X113803884Y-73634323D02*
X113756265Y-73443847D01*
X113756265Y-73443847D02*
X113756265Y-73300990D01*
X113756265Y-73300990D02*
X113803884Y-73110514D01*
X113803884Y-73110514D02*
X113851503Y-73015276D01*
X113851503Y-73015276D02*
X113946741Y-72920038D01*
X113946741Y-72920038D02*
X114089598Y-72872419D01*
X114089598Y-72872419D02*
X114184836Y-72872419D01*
X114184836Y-72872419D02*
X114327693Y-72920038D01*
X114327693Y-72920038D02*
X114375312Y-72967657D01*
X91827693Y-114420038D02*
X91732455Y-114372419D01*
X91732455Y-114372419D02*
X91589598Y-114372419D01*
X91589598Y-114372419D02*
X91446741Y-114420038D01*
X91446741Y-114420038D02*
X91351503Y-114515276D01*
X91351503Y-114515276D02*
X91303884Y-114610514D01*
X91303884Y-114610514D02*
X91256265Y-114800990D01*
X91256265Y-114800990D02*
X91256265Y-114943847D01*
X91256265Y-114943847D02*
X91303884Y-115134323D01*
X91303884Y-115134323D02*
X91351503Y-115229561D01*
X91351503Y-115229561D02*
X91446741Y-115324800D01*
X91446741Y-115324800D02*
X91589598Y-115372419D01*
X91589598Y-115372419D02*
X91684836Y-115372419D01*
X91684836Y-115372419D02*
X91827693Y-115324800D01*
X91827693Y-115324800D02*
X91875312Y-115277180D01*
X91875312Y-115277180D02*
X91875312Y-114943847D01*
X91875312Y-114943847D02*
X91684836Y-114943847D01*
X113708646Y-67872419D02*
X114327693Y-67872419D01*
X114327693Y-67872419D02*
X113994360Y-68253371D01*
X113994360Y-68253371D02*
X114137217Y-68253371D01*
X114137217Y-68253371D02*
X114232455Y-68300990D01*
X114232455Y-68300990D02*
X114280074Y-68348609D01*
X114280074Y-68348609D02*
X114327693Y-68443847D01*
X114327693Y-68443847D02*
X114327693Y-68681942D01*
X114327693Y-68681942D02*
X114280074Y-68777180D01*
X114280074Y-68777180D02*
X114232455Y-68824800D01*
X114232455Y-68824800D02*
X114137217Y-68872419D01*
X114137217Y-68872419D02*
X113851503Y-68872419D01*
X113851503Y-68872419D02*
X113756265Y-68824800D01*
X113756265Y-68824800D02*
X113708646Y-68777180D01*
X94303884Y-79372419D02*
X94303884Y-78372419D01*
X94303884Y-78372419D02*
X94684836Y-78372419D01*
X94684836Y-78372419D02*
X94780074Y-78420038D01*
X94780074Y-78420038D02*
X94827693Y-78467657D01*
X94827693Y-78467657D02*
X94875312Y-78562895D01*
X94875312Y-78562895D02*
X94875312Y-78705752D01*
X94875312Y-78705752D02*
X94827693Y-78800990D01*
X94827693Y-78800990D02*
X94780074Y-78848609D01*
X94780074Y-78848609D02*
X94684836Y-78896228D01*
X94684836Y-78896228D02*
X94303884Y-78896228D01*
X95303884Y-79372419D02*
X95303884Y-78372419D01*
X95303884Y-78372419D02*
X95684836Y-78372419D01*
X95684836Y-78372419D02*
X95780074Y-78420038D01*
X95780074Y-78420038D02*
X95827693Y-78467657D01*
X95827693Y-78467657D02*
X95875312Y-78562895D01*
X95875312Y-78562895D02*
X95875312Y-78705752D01*
X95875312Y-78705752D02*
X95827693Y-78800990D01*
X95827693Y-78800990D02*
X95780074Y-78848609D01*
X95780074Y-78848609D02*
X95684836Y-78896228D01*
X95684836Y-78896228D02*
X95303884Y-78896228D01*
X96256265Y-79324800D02*
X96399122Y-79372419D01*
X96399122Y-79372419D02*
X96637217Y-79372419D01*
X96637217Y-79372419D02*
X96732455Y-79324800D01*
X96732455Y-79324800D02*
X96780074Y-79277180D01*
X96780074Y-79277180D02*
X96827693Y-79181942D01*
X96827693Y-79181942D02*
X96827693Y-79086704D01*
X96827693Y-79086704D02*
X96780074Y-78991466D01*
X96780074Y-78991466D02*
X96732455Y-78943847D01*
X96732455Y-78943847D02*
X96637217Y-78896228D01*
X96637217Y-78896228D02*
X96446741Y-78848609D01*
X96446741Y-78848609D02*
X96351503Y-78800990D01*
X96351503Y-78800990D02*
X96303884Y-78753371D01*
X96303884Y-78753371D02*
X96256265Y-78658133D01*
X96256265Y-78658133D02*
X96256265Y-78562895D01*
X96256265Y-78562895D02*
X96303884Y-78467657D01*
X96303884Y-78467657D02*
X96351503Y-78420038D01*
X96351503Y-78420038D02*
X96446741Y-78372419D01*
X96446741Y-78372419D02*
X96684836Y-78372419D01*
X96684836Y-78372419D02*
X96827693Y-78420038D01*
X113578609Y-82292782D02*
X113626228Y-82149925D01*
X113626228Y-82149925D02*
X113673847Y-82102306D01*
X113673847Y-82102306D02*
X113769085Y-82054687D01*
X113769085Y-82054687D02*
X113911942Y-82054687D01*
X113911942Y-82054687D02*
X114007180Y-82102306D01*
X114007180Y-82102306D02*
X114054800Y-82149925D01*
X114054800Y-82149925D02*
X114102419Y-82245163D01*
X114102419Y-82245163D02*
X114102419Y-82626115D01*
X114102419Y-82626115D02*
X113102419Y-82626115D01*
X113102419Y-82626115D02*
X113102419Y-82292782D01*
X113102419Y-82292782D02*
X113150038Y-82197544D01*
X113150038Y-82197544D02*
X113197657Y-82149925D01*
X113197657Y-82149925D02*
X113292895Y-82102306D01*
X113292895Y-82102306D02*
X113388133Y-82102306D01*
X113388133Y-82102306D02*
X113483371Y-82149925D01*
X113483371Y-82149925D02*
X113530990Y-82197544D01*
X113530990Y-82197544D02*
X113578609Y-82292782D01*
X113578609Y-82292782D02*
X113578609Y-82626115D01*
X114102419Y-81626115D02*
X113102419Y-81626115D01*
X113102419Y-81626115D02*
X113816704Y-81292782D01*
X113816704Y-81292782D02*
X113102419Y-80959449D01*
X113102419Y-80959449D02*
X114102419Y-80959449D01*
X113578609Y-80483258D02*
X113578609Y-80149925D01*
X114102419Y-80007068D02*
X114102419Y-80483258D01*
X114102419Y-80483258D02*
X113102419Y-80483258D01*
X113102419Y-80483258D02*
X113102419Y-80007068D01*
X113197657Y-79626115D02*
X113150038Y-79578496D01*
X113150038Y-79578496D02*
X113102419Y-79483258D01*
X113102419Y-79483258D02*
X113102419Y-79245163D01*
X113102419Y-79245163D02*
X113150038Y-79149925D01*
X113150038Y-79149925D02*
X113197657Y-79102306D01*
X113197657Y-79102306D02*
X113292895Y-79054687D01*
X113292895Y-79054687D02*
X113388133Y-79054687D01*
X113388133Y-79054687D02*
X113530990Y-79102306D01*
X113530990Y-79102306D02*
X114102419Y-79673734D01*
X114102419Y-79673734D02*
X114102419Y-79054687D01*
X113530990Y-78483258D02*
X113483371Y-78578496D01*
X113483371Y-78578496D02*
X113435752Y-78626115D01*
X113435752Y-78626115D02*
X113340514Y-78673734D01*
X113340514Y-78673734D02*
X113292895Y-78673734D01*
X113292895Y-78673734D02*
X113197657Y-78626115D01*
X113197657Y-78626115D02*
X113150038Y-78578496D01*
X113150038Y-78578496D02*
X113102419Y-78483258D01*
X113102419Y-78483258D02*
X113102419Y-78292782D01*
X113102419Y-78292782D02*
X113150038Y-78197544D01*
X113150038Y-78197544D02*
X113197657Y-78149925D01*
X113197657Y-78149925D02*
X113292895Y-78102306D01*
X113292895Y-78102306D02*
X113340514Y-78102306D01*
X113340514Y-78102306D02*
X113435752Y-78149925D01*
X113435752Y-78149925D02*
X113483371Y-78197544D01*
X113483371Y-78197544D02*
X113530990Y-78292782D01*
X113530990Y-78292782D02*
X113530990Y-78483258D01*
X113530990Y-78483258D02*
X113578609Y-78578496D01*
X113578609Y-78578496D02*
X113626228Y-78626115D01*
X113626228Y-78626115D02*
X113721466Y-78673734D01*
X113721466Y-78673734D02*
X113911942Y-78673734D01*
X113911942Y-78673734D02*
X114007180Y-78626115D01*
X114007180Y-78626115D02*
X114054800Y-78578496D01*
X114054800Y-78578496D02*
X114102419Y-78483258D01*
X114102419Y-78483258D02*
X114102419Y-78292782D01*
X114102419Y-78292782D02*
X114054800Y-78197544D01*
X114054800Y-78197544D02*
X114007180Y-78149925D01*
X114007180Y-78149925D02*
X113911942Y-78102306D01*
X113911942Y-78102306D02*
X113721466Y-78102306D01*
X113721466Y-78102306D02*
X113626228Y-78149925D01*
X113626228Y-78149925D02*
X113578609Y-78197544D01*
X113578609Y-78197544D02*
X113530990Y-78292782D01*
X113102419Y-77483258D02*
X113102419Y-77388020D01*
X113102419Y-77388020D02*
X113150038Y-77292782D01*
X113150038Y-77292782D02*
X113197657Y-77245163D01*
X113197657Y-77245163D02*
X113292895Y-77197544D01*
X113292895Y-77197544D02*
X113483371Y-77149925D01*
X113483371Y-77149925D02*
X113721466Y-77149925D01*
X113721466Y-77149925D02*
X113911942Y-77197544D01*
X113911942Y-77197544D02*
X114007180Y-77245163D01*
X114007180Y-77245163D02*
X114054800Y-77292782D01*
X114054800Y-77292782D02*
X114102419Y-77388020D01*
X114102419Y-77388020D02*
X114102419Y-77483258D01*
X114102419Y-77483258D02*
X114054800Y-77578496D01*
X114054800Y-77578496D02*
X114007180Y-77626115D01*
X114007180Y-77626115D02*
X113911942Y-77673734D01*
X113911942Y-77673734D02*
X113721466Y-77721353D01*
X113721466Y-77721353D02*
X113483371Y-77721353D01*
X113483371Y-77721353D02*
X113292895Y-77673734D01*
X113292895Y-77673734D02*
X113197657Y-77626115D01*
X113197657Y-77626115D02*
X113150038Y-77578496D01*
X113150038Y-77578496D02*
X113102419Y-77483258D01*
X85708646Y-98872419D02*
X86327693Y-98872419D01*
X86327693Y-98872419D02*
X85994360Y-99253371D01*
X85994360Y-99253371D02*
X86137217Y-99253371D01*
X86137217Y-99253371D02*
X86232455Y-99300990D01*
X86232455Y-99300990D02*
X86280074Y-99348609D01*
X86280074Y-99348609D02*
X86327693Y-99443847D01*
X86327693Y-99443847D02*
X86327693Y-99681942D01*
X86327693Y-99681942D02*
X86280074Y-99777180D01*
X86280074Y-99777180D02*
X86232455Y-99824800D01*
X86232455Y-99824800D02*
X86137217Y-99872419D01*
X86137217Y-99872419D02*
X85851503Y-99872419D01*
X85851503Y-99872419D02*
X85756265Y-99824800D01*
X85756265Y-99824800D02*
X85708646Y-99777180D01*
X86708646Y-98967657D02*
X86756265Y-98920038D01*
X86756265Y-98920038D02*
X86851503Y-98872419D01*
X86851503Y-98872419D02*
X87089598Y-98872419D01*
X87089598Y-98872419D02*
X87184836Y-98920038D01*
X87184836Y-98920038D02*
X87232455Y-98967657D01*
X87232455Y-98967657D02*
X87280074Y-99062895D01*
X87280074Y-99062895D02*
X87280074Y-99158133D01*
X87280074Y-99158133D02*
X87232455Y-99300990D01*
X87232455Y-99300990D02*
X86661027Y-99872419D01*
X86661027Y-99872419D02*
X87280074Y-99872419D01*
X77637217Y-91848609D02*
X77303884Y-91848609D01*
X77303884Y-92372419D02*
X77303884Y-91372419D01*
X77303884Y-91372419D02*
X77780074Y-91372419D01*
X78637217Y-92372419D02*
X78161027Y-92372419D01*
X78161027Y-92372419D02*
X78161027Y-91372419D01*
D11*
X53666666Y-62454819D02*
X53666666Y-63169104D01*
X53666666Y-63169104D02*
X53619047Y-63311961D01*
X53619047Y-63311961D02*
X53523809Y-63407200D01*
X53523809Y-63407200D02*
X53380952Y-63454819D01*
X53380952Y-63454819D02*
X53285714Y-63454819D01*
X54285714Y-62883390D02*
X54190476Y-62835771D01*
X54190476Y-62835771D02*
X54142857Y-62788152D01*
X54142857Y-62788152D02*
X54095238Y-62692914D01*
X54095238Y-62692914D02*
X54095238Y-62645295D01*
X54095238Y-62645295D02*
X54142857Y-62550057D01*
X54142857Y-62550057D02*
X54190476Y-62502438D01*
X54190476Y-62502438D02*
X54285714Y-62454819D01*
X54285714Y-62454819D02*
X54476190Y-62454819D01*
X54476190Y-62454819D02*
X54571428Y-62502438D01*
X54571428Y-62502438D02*
X54619047Y-62550057D01*
X54619047Y-62550057D02*
X54666666Y-62645295D01*
X54666666Y-62645295D02*
X54666666Y-62692914D01*
X54666666Y-62692914D02*
X54619047Y-62788152D01*
X54619047Y-62788152D02*
X54571428Y-62835771D01*
X54571428Y-62835771D02*
X54476190Y-62883390D01*
X54476190Y-62883390D02*
X54285714Y-62883390D01*
X54285714Y-62883390D02*
X54190476Y-62931009D01*
X54190476Y-62931009D02*
X54142857Y-62978628D01*
X54142857Y-62978628D02*
X54095238Y-63073866D01*
X54095238Y-63073866D02*
X54095238Y-63264342D01*
X54095238Y-63264342D02*
X54142857Y-63359580D01*
X54142857Y-63359580D02*
X54190476Y-63407200D01*
X54190476Y-63407200D02*
X54285714Y-63454819D01*
X54285714Y-63454819D02*
X54476190Y-63454819D01*
X54476190Y-63454819D02*
X54571428Y-63407200D01*
X54571428Y-63407200D02*
X54619047Y-63359580D01*
X54619047Y-63359580D02*
X54666666Y-63264342D01*
X54666666Y-63264342D02*
X54666666Y-63073866D01*
X54666666Y-63073866D02*
X54619047Y-62978628D01*
X54619047Y-62978628D02*
X54571428Y-62931009D01*
X54571428Y-62931009D02*
X54476190Y-62883390D01*
X80333333Y-111359580D02*
X80285714Y-111407200D01*
X80285714Y-111407200D02*
X80142857Y-111454819D01*
X80142857Y-111454819D02*
X80047619Y-111454819D01*
X80047619Y-111454819D02*
X79904762Y-111407200D01*
X79904762Y-111407200D02*
X79809524Y-111311961D01*
X79809524Y-111311961D02*
X79761905Y-111216723D01*
X79761905Y-111216723D02*
X79714286Y-111026247D01*
X79714286Y-111026247D02*
X79714286Y-110883390D01*
X79714286Y-110883390D02*
X79761905Y-110692914D01*
X79761905Y-110692914D02*
X79809524Y-110597676D01*
X79809524Y-110597676D02*
X79904762Y-110502438D01*
X79904762Y-110502438D02*
X80047619Y-110454819D01*
X80047619Y-110454819D02*
X80142857Y-110454819D01*
X80142857Y-110454819D02*
X80285714Y-110502438D01*
X80285714Y-110502438D02*
X80333333Y-110550057D01*
X81238095Y-110454819D02*
X80761905Y-110454819D01*
X80761905Y-110454819D02*
X80714286Y-110931009D01*
X80714286Y-110931009D02*
X80761905Y-110883390D01*
X80761905Y-110883390D02*
X80857143Y-110835771D01*
X80857143Y-110835771D02*
X81095238Y-110835771D01*
X81095238Y-110835771D02*
X81190476Y-110883390D01*
X81190476Y-110883390D02*
X81238095Y-110931009D01*
X81238095Y-110931009D02*
X81285714Y-111026247D01*
X81285714Y-111026247D02*
X81285714Y-111264342D01*
X81285714Y-111264342D02*
X81238095Y-111359580D01*
X81238095Y-111359580D02*
X81190476Y-111407200D01*
X81190476Y-111407200D02*
X81095238Y-111454819D01*
X81095238Y-111454819D02*
X80857143Y-111454819D01*
X80857143Y-111454819D02*
X80761905Y-111407200D01*
X80761905Y-111407200D02*
X80714286Y-111359580D01*
X113666666Y-62954819D02*
X113666666Y-63669104D01*
X113666666Y-63669104D02*
X113619047Y-63811961D01*
X113619047Y-63811961D02*
X113523809Y-63907200D01*
X113523809Y-63907200D02*
X113380952Y-63954819D01*
X113380952Y-63954819D02*
X113285714Y-63954819D01*
X114190476Y-63954819D02*
X114380952Y-63954819D01*
X114380952Y-63954819D02*
X114476190Y-63907200D01*
X114476190Y-63907200D02*
X114523809Y-63859580D01*
X114523809Y-63859580D02*
X114619047Y-63716723D01*
X114619047Y-63716723D02*
X114666666Y-63526247D01*
X114666666Y-63526247D02*
X114666666Y-63145295D01*
X114666666Y-63145295D02*
X114619047Y-63050057D01*
X114619047Y-63050057D02*
X114571428Y-63002438D01*
X114571428Y-63002438D02*
X114476190Y-62954819D01*
X114476190Y-62954819D02*
X114285714Y-62954819D01*
X114285714Y-62954819D02*
X114190476Y-63002438D01*
X114190476Y-63002438D02*
X114142857Y-63050057D01*
X114142857Y-63050057D02*
X114095238Y-63145295D01*
X114095238Y-63145295D02*
X114095238Y-63383390D01*
X114095238Y-63383390D02*
X114142857Y-63478628D01*
X114142857Y-63478628D02*
X114190476Y-63526247D01*
X114190476Y-63526247D02*
X114285714Y-63573866D01*
X114285714Y-63573866D02*
X114476190Y-63573866D01*
X114476190Y-63573866D02*
X114571428Y-63526247D01*
X114571428Y-63526247D02*
X114619047Y-63478628D01*
X114619047Y-63478628D02*
X114666666Y-63383390D01*
X83397142Y-77954819D02*
X83063809Y-77478628D01*
X82825714Y-77954819D02*
X82825714Y-76954819D01*
X82825714Y-76954819D02*
X83206666Y-76954819D01*
X83206666Y-76954819D02*
X83301904Y-77002438D01*
X83301904Y-77002438D02*
X83349523Y-77050057D01*
X83349523Y-77050057D02*
X83397142Y-77145295D01*
X83397142Y-77145295D02*
X83397142Y-77288152D01*
X83397142Y-77288152D02*
X83349523Y-77383390D01*
X83349523Y-77383390D02*
X83301904Y-77431009D01*
X83301904Y-77431009D02*
X83206666Y-77478628D01*
X83206666Y-77478628D02*
X82825714Y-77478628D01*
X83778095Y-77050057D02*
X83825714Y-77002438D01*
X83825714Y-77002438D02*
X83920952Y-76954819D01*
X83920952Y-76954819D02*
X84159047Y-76954819D01*
X84159047Y-76954819D02*
X84254285Y-77002438D01*
X84254285Y-77002438D02*
X84301904Y-77050057D01*
X84301904Y-77050057D02*
X84349523Y-77145295D01*
X84349523Y-77145295D02*
X84349523Y-77240533D01*
X84349523Y-77240533D02*
X84301904Y-77383390D01*
X84301904Y-77383390D02*
X83730476Y-77954819D01*
X83730476Y-77954819D02*
X84349523Y-77954819D01*
X84682857Y-76954819D02*
X85301904Y-76954819D01*
X85301904Y-76954819D02*
X84968571Y-77335771D01*
X84968571Y-77335771D02*
X85111428Y-77335771D01*
X85111428Y-77335771D02*
X85206666Y-77383390D01*
X85206666Y-77383390D02*
X85254285Y-77431009D01*
X85254285Y-77431009D02*
X85301904Y-77526247D01*
X85301904Y-77526247D02*
X85301904Y-77764342D01*
X85301904Y-77764342D02*
X85254285Y-77859580D01*
X85254285Y-77859580D02*
X85206666Y-77907200D01*
X85206666Y-77907200D02*
X85111428Y-77954819D01*
X85111428Y-77954819D02*
X84825714Y-77954819D01*
X84825714Y-77954819D02*
X84730476Y-77907200D01*
X84730476Y-77907200D02*
X84682857Y-77859580D01*
X87833333Y-116954819D02*
X87500000Y-116478628D01*
X87261905Y-116954819D02*
X87261905Y-115954819D01*
X87261905Y-115954819D02*
X87642857Y-115954819D01*
X87642857Y-115954819D02*
X87738095Y-116002438D01*
X87738095Y-116002438D02*
X87785714Y-116050057D01*
X87785714Y-116050057D02*
X87833333Y-116145295D01*
X87833333Y-116145295D02*
X87833333Y-116288152D01*
X87833333Y-116288152D02*
X87785714Y-116383390D01*
X87785714Y-116383390D02*
X87738095Y-116431009D01*
X87738095Y-116431009D02*
X87642857Y-116478628D01*
X87642857Y-116478628D02*
X87261905Y-116478628D01*
X88309524Y-116954819D02*
X88500000Y-116954819D01*
X88500000Y-116954819D02*
X88595238Y-116907200D01*
X88595238Y-116907200D02*
X88642857Y-116859580D01*
X88642857Y-116859580D02*
X88738095Y-116716723D01*
X88738095Y-116716723D02*
X88785714Y-116526247D01*
X88785714Y-116526247D02*
X88785714Y-116145295D01*
X88785714Y-116145295D02*
X88738095Y-116050057D01*
X88738095Y-116050057D02*
X88690476Y-116002438D01*
X88690476Y-116002438D02*
X88595238Y-115954819D01*
X88595238Y-115954819D02*
X88404762Y-115954819D01*
X88404762Y-115954819D02*
X88309524Y-116002438D01*
X88309524Y-116002438D02*
X88261905Y-116050057D01*
X88261905Y-116050057D02*
X88214286Y-116145295D01*
X88214286Y-116145295D02*
X88214286Y-116383390D01*
X88214286Y-116383390D02*
X88261905Y-116478628D01*
X88261905Y-116478628D02*
X88309524Y-116526247D01*
X88309524Y-116526247D02*
X88404762Y-116573866D01*
X88404762Y-116573866D02*
X88595238Y-116573866D01*
X88595238Y-116573866D02*
X88690476Y-116526247D01*
X88690476Y-116526247D02*
X88738095Y-116478628D01*
X88738095Y-116478628D02*
X88785714Y-116383390D01*
X61833333Y-109359580D02*
X61785714Y-109407200D01*
X61785714Y-109407200D02*
X61642857Y-109454819D01*
X61642857Y-109454819D02*
X61547619Y-109454819D01*
X61547619Y-109454819D02*
X61404762Y-109407200D01*
X61404762Y-109407200D02*
X61309524Y-109311961D01*
X61309524Y-109311961D02*
X61261905Y-109216723D01*
X61261905Y-109216723D02*
X61214286Y-109026247D01*
X61214286Y-109026247D02*
X61214286Y-108883390D01*
X61214286Y-108883390D02*
X61261905Y-108692914D01*
X61261905Y-108692914D02*
X61309524Y-108597676D01*
X61309524Y-108597676D02*
X61404762Y-108502438D01*
X61404762Y-108502438D02*
X61547619Y-108454819D01*
X61547619Y-108454819D02*
X61642857Y-108454819D01*
X61642857Y-108454819D02*
X61785714Y-108502438D01*
X61785714Y-108502438D02*
X61833333Y-108550057D01*
X62166667Y-108454819D02*
X62785714Y-108454819D01*
X62785714Y-108454819D02*
X62452381Y-108835771D01*
X62452381Y-108835771D02*
X62595238Y-108835771D01*
X62595238Y-108835771D02*
X62690476Y-108883390D01*
X62690476Y-108883390D02*
X62738095Y-108931009D01*
X62738095Y-108931009D02*
X62785714Y-109026247D01*
X62785714Y-109026247D02*
X62785714Y-109264342D01*
X62785714Y-109264342D02*
X62738095Y-109359580D01*
X62738095Y-109359580D02*
X62690476Y-109407200D01*
X62690476Y-109407200D02*
X62595238Y-109454819D01*
X62595238Y-109454819D02*
X62309524Y-109454819D01*
X62309524Y-109454819D02*
X62214286Y-109407200D01*
X62214286Y-109407200D02*
X62166667Y-109359580D01*
X98954819Y-71666666D02*
X98478628Y-71999999D01*
X98954819Y-72238094D02*
X97954819Y-72238094D01*
X97954819Y-72238094D02*
X97954819Y-71857142D01*
X97954819Y-71857142D02*
X98002438Y-71761904D01*
X98002438Y-71761904D02*
X98050057Y-71714285D01*
X98050057Y-71714285D02*
X98145295Y-71666666D01*
X98145295Y-71666666D02*
X98288152Y-71666666D01*
X98288152Y-71666666D02*
X98383390Y-71714285D01*
X98383390Y-71714285D02*
X98431009Y-71761904D01*
X98431009Y-71761904D02*
X98478628Y-71857142D01*
X98478628Y-71857142D02*
X98478628Y-72238094D01*
X97954819Y-70761904D02*
X97954819Y-71238094D01*
X97954819Y-71238094D02*
X98431009Y-71285713D01*
X98431009Y-71285713D02*
X98383390Y-71238094D01*
X98383390Y-71238094D02*
X98335771Y-71142856D01*
X98335771Y-71142856D02*
X98335771Y-70904761D01*
X98335771Y-70904761D02*
X98383390Y-70809523D01*
X98383390Y-70809523D02*
X98431009Y-70761904D01*
X98431009Y-70761904D02*
X98526247Y-70714285D01*
X98526247Y-70714285D02*
X98764342Y-70714285D01*
X98764342Y-70714285D02*
X98859580Y-70761904D01*
X98859580Y-70761904D02*
X98907200Y-70809523D01*
X98907200Y-70809523D02*
X98954819Y-70904761D01*
X98954819Y-70904761D02*
X98954819Y-71142856D01*
X98954819Y-71142856D02*
X98907200Y-71238094D01*
X98907200Y-71238094D02*
X98859580Y-71285713D01*
X110666666Y-66299819D02*
X110666666Y-67014104D01*
X110666666Y-67014104D02*
X110619047Y-67156961D01*
X110619047Y-67156961D02*
X110523809Y-67252200D01*
X110523809Y-67252200D02*
X110380952Y-67299819D01*
X110380952Y-67299819D02*
X110285714Y-67299819D01*
X111095238Y-66395057D02*
X111142857Y-66347438D01*
X111142857Y-66347438D02*
X111238095Y-66299819D01*
X111238095Y-66299819D02*
X111476190Y-66299819D01*
X111476190Y-66299819D02*
X111571428Y-66347438D01*
X111571428Y-66347438D02*
X111619047Y-66395057D01*
X111619047Y-66395057D02*
X111666666Y-66490295D01*
X111666666Y-66490295D02*
X111666666Y-66585533D01*
X111666666Y-66585533D02*
X111619047Y-66728390D01*
X111619047Y-66728390D02*
X111047619Y-67299819D01*
X111047619Y-67299819D02*
X111666666Y-67299819D01*
X113333333Y-105859580D02*
X113285714Y-105907200D01*
X113285714Y-105907200D02*
X113142857Y-105954819D01*
X113142857Y-105954819D02*
X113047619Y-105954819D01*
X113047619Y-105954819D02*
X112904762Y-105907200D01*
X112904762Y-105907200D02*
X112809524Y-105811961D01*
X112809524Y-105811961D02*
X112761905Y-105716723D01*
X112761905Y-105716723D02*
X112714286Y-105526247D01*
X112714286Y-105526247D02*
X112714286Y-105383390D01*
X112714286Y-105383390D02*
X112761905Y-105192914D01*
X112761905Y-105192914D02*
X112809524Y-105097676D01*
X112809524Y-105097676D02*
X112904762Y-105002438D01*
X112904762Y-105002438D02*
X113047619Y-104954819D01*
X113047619Y-104954819D02*
X113142857Y-104954819D01*
X113142857Y-104954819D02*
X113285714Y-105002438D01*
X113285714Y-105002438D02*
X113333333Y-105050057D01*
X114285714Y-105954819D02*
X113714286Y-105954819D01*
X114000000Y-105954819D02*
X114000000Y-104954819D01*
X114000000Y-104954819D02*
X113904762Y-105097676D01*
X113904762Y-105097676D02*
X113809524Y-105192914D01*
X113809524Y-105192914D02*
X113714286Y-105240533D01*
X64817142Y-72954819D02*
X64483809Y-72478628D01*
X64245714Y-72954819D02*
X64245714Y-71954819D01*
X64245714Y-71954819D02*
X64626666Y-71954819D01*
X64626666Y-71954819D02*
X64721904Y-72002438D01*
X64721904Y-72002438D02*
X64769523Y-72050057D01*
X64769523Y-72050057D02*
X64817142Y-72145295D01*
X64817142Y-72145295D02*
X64817142Y-72288152D01*
X64817142Y-72288152D02*
X64769523Y-72383390D01*
X64769523Y-72383390D02*
X64721904Y-72431009D01*
X64721904Y-72431009D02*
X64626666Y-72478628D01*
X64626666Y-72478628D02*
X64245714Y-72478628D01*
X65769523Y-72954819D02*
X65198095Y-72954819D01*
X65483809Y-72954819D02*
X65483809Y-71954819D01*
X65483809Y-71954819D02*
X65388571Y-72097676D01*
X65388571Y-72097676D02*
X65293333Y-72192914D01*
X65293333Y-72192914D02*
X65198095Y-72240533D01*
X66102857Y-71954819D02*
X66721904Y-71954819D01*
X66721904Y-71954819D02*
X66388571Y-72335771D01*
X66388571Y-72335771D02*
X66531428Y-72335771D01*
X66531428Y-72335771D02*
X66626666Y-72383390D01*
X66626666Y-72383390D02*
X66674285Y-72431009D01*
X66674285Y-72431009D02*
X66721904Y-72526247D01*
X66721904Y-72526247D02*
X66721904Y-72764342D01*
X66721904Y-72764342D02*
X66674285Y-72859580D01*
X66674285Y-72859580D02*
X66626666Y-72907200D01*
X66626666Y-72907200D02*
X66531428Y-72954819D01*
X66531428Y-72954819D02*
X66245714Y-72954819D01*
X66245714Y-72954819D02*
X66150476Y-72907200D01*
X66150476Y-72907200D02*
X66102857Y-72859580D01*
X55738095Y-88954819D02*
X55738095Y-89764342D01*
X55738095Y-89764342D02*
X55785714Y-89859580D01*
X55785714Y-89859580D02*
X55833333Y-89907200D01*
X55833333Y-89907200D02*
X55928571Y-89954819D01*
X55928571Y-89954819D02*
X56119047Y-89954819D01*
X56119047Y-89954819D02*
X56214285Y-89907200D01*
X56214285Y-89907200D02*
X56261904Y-89859580D01*
X56261904Y-89859580D02*
X56309523Y-89764342D01*
X56309523Y-89764342D02*
X56309523Y-88954819D01*
X57214285Y-89288152D02*
X57214285Y-89954819D01*
X56976190Y-88907200D02*
X56738095Y-89621485D01*
X56738095Y-89621485D02*
X57357142Y-89621485D01*
X101540476Y-120154819D02*
X101540476Y-120869104D01*
X101540476Y-120869104D02*
X101492857Y-121011961D01*
X101492857Y-121011961D02*
X101397619Y-121107200D01*
X101397619Y-121107200D02*
X101254762Y-121154819D01*
X101254762Y-121154819D02*
X101159524Y-121154819D01*
X102540476Y-121154819D02*
X101969048Y-121154819D01*
X102254762Y-121154819D02*
X102254762Y-120154819D01*
X102254762Y-120154819D02*
X102159524Y-120297676D01*
X102159524Y-120297676D02*
X102064286Y-120392914D01*
X102064286Y-120392914D02*
X101969048Y-120440533D01*
X103445238Y-120154819D02*
X102969048Y-120154819D01*
X102969048Y-120154819D02*
X102921429Y-120631009D01*
X102921429Y-120631009D02*
X102969048Y-120583390D01*
X102969048Y-120583390D02*
X103064286Y-120535771D01*
X103064286Y-120535771D02*
X103302381Y-120535771D01*
X103302381Y-120535771D02*
X103397619Y-120583390D01*
X103397619Y-120583390D02*
X103445238Y-120631009D01*
X103445238Y-120631009D02*
X103492857Y-120726247D01*
X103492857Y-120726247D02*
X103492857Y-120964342D01*
X103492857Y-120964342D02*
X103445238Y-121059580D01*
X103445238Y-121059580D02*
X103397619Y-121107200D01*
X103397619Y-121107200D02*
X103302381Y-121154819D01*
X103302381Y-121154819D02*
X103064286Y-121154819D01*
X103064286Y-121154819D02*
X102969048Y-121107200D01*
X102969048Y-121107200D02*
X102921429Y-121059580D01*
X95454819Y-115333333D02*
X96169104Y-115333333D01*
X96169104Y-115333333D02*
X96311961Y-115380952D01*
X96311961Y-115380952D02*
X96407200Y-115476190D01*
X96407200Y-115476190D02*
X96454819Y-115619047D01*
X96454819Y-115619047D02*
X96454819Y-115714285D01*
X95454819Y-114952380D02*
X95454819Y-114285714D01*
X95454819Y-114285714D02*
X96454819Y-114714285D01*
X103713095Y-67649819D02*
X103713095Y-68459342D01*
X103713095Y-68459342D02*
X103760714Y-68554580D01*
X103760714Y-68554580D02*
X103808333Y-68602200D01*
X103808333Y-68602200D02*
X103903571Y-68649819D01*
X103903571Y-68649819D02*
X104094047Y-68649819D01*
X104094047Y-68649819D02*
X104189285Y-68602200D01*
X104189285Y-68602200D02*
X104236904Y-68554580D01*
X104236904Y-68554580D02*
X104284523Y-68459342D01*
X104284523Y-68459342D02*
X104284523Y-67649819D01*
X104713095Y-67745057D02*
X104760714Y-67697438D01*
X104760714Y-67697438D02*
X104855952Y-67649819D01*
X104855952Y-67649819D02*
X105094047Y-67649819D01*
X105094047Y-67649819D02*
X105189285Y-67697438D01*
X105189285Y-67697438D02*
X105236904Y-67745057D01*
X105236904Y-67745057D02*
X105284523Y-67840295D01*
X105284523Y-67840295D02*
X105284523Y-67935533D01*
X105284523Y-67935533D02*
X105236904Y-68078390D01*
X105236904Y-68078390D02*
X104665476Y-68649819D01*
X104665476Y-68649819D02*
X105284523Y-68649819D01*
X87914819Y-92719523D02*
X88629104Y-92719523D01*
X88629104Y-92719523D02*
X88771961Y-92767142D01*
X88771961Y-92767142D02*
X88867200Y-92862380D01*
X88867200Y-92862380D02*
X88914819Y-93005237D01*
X88914819Y-93005237D02*
X88914819Y-93100475D01*
X88914819Y-91719523D02*
X88914819Y-92290951D01*
X88914819Y-92005237D02*
X87914819Y-92005237D01*
X87914819Y-92005237D02*
X88057676Y-92100475D01*
X88057676Y-92100475D02*
X88152914Y-92195713D01*
X88152914Y-92195713D02*
X88200533Y-92290951D01*
X88010057Y-91338570D02*
X87962438Y-91290951D01*
X87962438Y-91290951D02*
X87914819Y-91195713D01*
X87914819Y-91195713D02*
X87914819Y-90957618D01*
X87914819Y-90957618D02*
X87962438Y-90862380D01*
X87962438Y-90862380D02*
X88010057Y-90814761D01*
X88010057Y-90814761D02*
X88105295Y-90767142D01*
X88105295Y-90767142D02*
X88200533Y-90767142D01*
X88200533Y-90767142D02*
X88343390Y-90814761D01*
X88343390Y-90814761D02*
X88914819Y-91386189D01*
X88914819Y-91386189D02*
X88914819Y-90767142D01*
X74978628Y-113976190D02*
X75454819Y-113976190D01*
X74454819Y-114309523D02*
X74978628Y-113976190D01*
X74978628Y-113976190D02*
X74454819Y-113642857D01*
X75454819Y-112785714D02*
X75454819Y-113357142D01*
X75454819Y-113071428D02*
X74454819Y-113071428D01*
X74454819Y-113071428D02*
X74597676Y-113166666D01*
X74597676Y-113166666D02*
X74692914Y-113261904D01*
X74692914Y-113261904D02*
X74740533Y-113357142D01*
X93761905Y-127454819D02*
X93761905Y-126454819D01*
X93761905Y-126454819D02*
X94000000Y-126454819D01*
X94000000Y-126454819D02*
X94142857Y-126502438D01*
X94142857Y-126502438D02*
X94238095Y-126597676D01*
X94238095Y-126597676D02*
X94285714Y-126692914D01*
X94285714Y-126692914D02*
X94333333Y-126883390D01*
X94333333Y-126883390D02*
X94333333Y-127026247D01*
X94333333Y-127026247D02*
X94285714Y-127216723D01*
X94285714Y-127216723D02*
X94238095Y-127311961D01*
X94238095Y-127311961D02*
X94142857Y-127407200D01*
X94142857Y-127407200D02*
X94000000Y-127454819D01*
X94000000Y-127454819D02*
X93761905Y-127454819D01*
X94666667Y-126454819D02*
X95285714Y-126454819D01*
X95285714Y-126454819D02*
X94952381Y-126835771D01*
X94952381Y-126835771D02*
X95095238Y-126835771D01*
X95095238Y-126835771D02*
X95190476Y-126883390D01*
X95190476Y-126883390D02*
X95238095Y-126931009D01*
X95238095Y-126931009D02*
X95285714Y-127026247D01*
X95285714Y-127026247D02*
X95285714Y-127264342D01*
X95285714Y-127264342D02*
X95238095Y-127359580D01*
X95238095Y-127359580D02*
X95190476Y-127407200D01*
X95190476Y-127407200D02*
X95095238Y-127454819D01*
X95095238Y-127454819D02*
X94809524Y-127454819D01*
X94809524Y-127454819D02*
X94714286Y-127407200D01*
X94714286Y-127407200D02*
X94666667Y-127359580D01*
X87357142Y-114454819D02*
X87023809Y-113978628D01*
X86785714Y-114454819D02*
X86785714Y-113454819D01*
X86785714Y-113454819D02*
X87166666Y-113454819D01*
X87166666Y-113454819D02*
X87261904Y-113502438D01*
X87261904Y-113502438D02*
X87309523Y-113550057D01*
X87309523Y-113550057D02*
X87357142Y-113645295D01*
X87357142Y-113645295D02*
X87357142Y-113788152D01*
X87357142Y-113788152D02*
X87309523Y-113883390D01*
X87309523Y-113883390D02*
X87261904Y-113931009D01*
X87261904Y-113931009D02*
X87166666Y-113978628D01*
X87166666Y-113978628D02*
X86785714Y-113978628D01*
X88309523Y-114454819D02*
X87738095Y-114454819D01*
X88023809Y-114454819D02*
X88023809Y-113454819D01*
X88023809Y-113454819D02*
X87928571Y-113597676D01*
X87928571Y-113597676D02*
X87833333Y-113692914D01*
X87833333Y-113692914D02*
X87738095Y-113740533D01*
X88928571Y-113454819D02*
X89023809Y-113454819D01*
X89023809Y-113454819D02*
X89119047Y-113502438D01*
X89119047Y-113502438D02*
X89166666Y-113550057D01*
X89166666Y-113550057D02*
X89214285Y-113645295D01*
X89214285Y-113645295D02*
X89261904Y-113835771D01*
X89261904Y-113835771D02*
X89261904Y-114073866D01*
X89261904Y-114073866D02*
X89214285Y-114264342D01*
X89214285Y-114264342D02*
X89166666Y-114359580D01*
X89166666Y-114359580D02*
X89119047Y-114407200D01*
X89119047Y-114407200D02*
X89023809Y-114454819D01*
X89023809Y-114454819D02*
X88928571Y-114454819D01*
X88928571Y-114454819D02*
X88833333Y-114407200D01*
X88833333Y-114407200D02*
X88785714Y-114359580D01*
X88785714Y-114359580D02*
X88738095Y-114264342D01*
X88738095Y-114264342D02*
X88690476Y-114073866D01*
X88690476Y-114073866D02*
X88690476Y-113835771D01*
X88690476Y-113835771D02*
X88738095Y-113645295D01*
X88738095Y-113645295D02*
X88785714Y-113550057D01*
X88785714Y-113550057D02*
X88833333Y-113502438D01*
X88833333Y-113502438D02*
X88928571Y-113454819D01*
X72261905Y-68954819D02*
X72261905Y-67954819D01*
X72261905Y-67954819D02*
X72500000Y-67954819D01*
X72500000Y-67954819D02*
X72642857Y-68002438D01*
X72642857Y-68002438D02*
X72738095Y-68097676D01*
X72738095Y-68097676D02*
X72785714Y-68192914D01*
X72785714Y-68192914D02*
X72833333Y-68383390D01*
X72833333Y-68383390D02*
X72833333Y-68526247D01*
X72833333Y-68526247D02*
X72785714Y-68716723D01*
X72785714Y-68716723D02*
X72738095Y-68811961D01*
X72738095Y-68811961D02*
X72642857Y-68907200D01*
X72642857Y-68907200D02*
X72500000Y-68954819D01*
X72500000Y-68954819D02*
X72261905Y-68954819D01*
X73738095Y-67954819D02*
X73261905Y-67954819D01*
X73261905Y-67954819D02*
X73214286Y-68431009D01*
X73214286Y-68431009D02*
X73261905Y-68383390D01*
X73261905Y-68383390D02*
X73357143Y-68335771D01*
X73357143Y-68335771D02*
X73595238Y-68335771D01*
X73595238Y-68335771D02*
X73690476Y-68383390D01*
X73690476Y-68383390D02*
X73738095Y-68431009D01*
X73738095Y-68431009D02*
X73785714Y-68526247D01*
X73785714Y-68526247D02*
X73785714Y-68764342D01*
X73785714Y-68764342D02*
X73738095Y-68859580D01*
X73738095Y-68859580D02*
X73690476Y-68907200D01*
X73690476Y-68907200D02*
X73595238Y-68954819D01*
X73595238Y-68954819D02*
X73357143Y-68954819D01*
X73357143Y-68954819D02*
X73261905Y-68907200D01*
X73261905Y-68907200D02*
X73214286Y-68859580D01*
X67658095Y-66854819D02*
X67658095Y-65854819D01*
X68229523Y-66854819D02*
X67800952Y-66283390D01*
X68229523Y-65854819D02*
X67658095Y-66426247D01*
X112857142Y-108859580D02*
X112809523Y-108907200D01*
X112809523Y-108907200D02*
X112666666Y-108954819D01*
X112666666Y-108954819D02*
X112571428Y-108954819D01*
X112571428Y-108954819D02*
X112428571Y-108907200D01*
X112428571Y-108907200D02*
X112333333Y-108811961D01*
X112333333Y-108811961D02*
X112285714Y-108716723D01*
X112285714Y-108716723D02*
X112238095Y-108526247D01*
X112238095Y-108526247D02*
X112238095Y-108383390D01*
X112238095Y-108383390D02*
X112285714Y-108192914D01*
X112285714Y-108192914D02*
X112333333Y-108097676D01*
X112333333Y-108097676D02*
X112428571Y-108002438D01*
X112428571Y-108002438D02*
X112571428Y-107954819D01*
X112571428Y-107954819D02*
X112666666Y-107954819D01*
X112666666Y-107954819D02*
X112809523Y-108002438D01*
X112809523Y-108002438D02*
X112857142Y-108050057D01*
X113809523Y-108954819D02*
X113238095Y-108954819D01*
X113523809Y-108954819D02*
X113523809Y-107954819D01*
X113523809Y-107954819D02*
X113428571Y-108097676D01*
X113428571Y-108097676D02*
X113333333Y-108192914D01*
X113333333Y-108192914D02*
X113238095Y-108240533D01*
X114190476Y-108050057D02*
X114238095Y-108002438D01*
X114238095Y-108002438D02*
X114333333Y-107954819D01*
X114333333Y-107954819D02*
X114571428Y-107954819D01*
X114571428Y-107954819D02*
X114666666Y-108002438D01*
X114666666Y-108002438D02*
X114714285Y-108050057D01*
X114714285Y-108050057D02*
X114761904Y-108145295D01*
X114761904Y-108145295D02*
X114761904Y-108240533D01*
X114761904Y-108240533D02*
X114714285Y-108383390D01*
X114714285Y-108383390D02*
X114142857Y-108954819D01*
X114142857Y-108954819D02*
X114761904Y-108954819D01*
X83397142Y-74954819D02*
X83063809Y-74478628D01*
X82825714Y-74954819D02*
X82825714Y-73954819D01*
X82825714Y-73954819D02*
X83206666Y-73954819D01*
X83206666Y-73954819D02*
X83301904Y-74002438D01*
X83301904Y-74002438D02*
X83349523Y-74050057D01*
X83349523Y-74050057D02*
X83397142Y-74145295D01*
X83397142Y-74145295D02*
X83397142Y-74288152D01*
X83397142Y-74288152D02*
X83349523Y-74383390D01*
X83349523Y-74383390D02*
X83301904Y-74431009D01*
X83301904Y-74431009D02*
X83206666Y-74478628D01*
X83206666Y-74478628D02*
X82825714Y-74478628D01*
X83778095Y-74050057D02*
X83825714Y-74002438D01*
X83825714Y-74002438D02*
X83920952Y-73954819D01*
X83920952Y-73954819D02*
X84159047Y-73954819D01*
X84159047Y-73954819D02*
X84254285Y-74002438D01*
X84254285Y-74002438D02*
X84301904Y-74050057D01*
X84301904Y-74050057D02*
X84349523Y-74145295D01*
X84349523Y-74145295D02*
X84349523Y-74240533D01*
X84349523Y-74240533D02*
X84301904Y-74383390D01*
X84301904Y-74383390D02*
X83730476Y-74954819D01*
X83730476Y-74954819D02*
X84349523Y-74954819D01*
X85301904Y-74954819D02*
X84730476Y-74954819D01*
X85016190Y-74954819D02*
X85016190Y-73954819D01*
X85016190Y-73954819D02*
X84920952Y-74097676D01*
X84920952Y-74097676D02*
X84825714Y-74192914D01*
X84825714Y-74192914D02*
X84730476Y-74240533D01*
X51190476Y-65144819D02*
X51190476Y-65859104D01*
X51190476Y-65859104D02*
X51142857Y-66001961D01*
X51142857Y-66001961D02*
X51047619Y-66097200D01*
X51047619Y-66097200D02*
X50904762Y-66144819D01*
X50904762Y-66144819D02*
X50809524Y-66144819D01*
X52190476Y-66144819D02*
X51619048Y-66144819D01*
X51904762Y-66144819D02*
X51904762Y-65144819D01*
X51904762Y-65144819D02*
X51809524Y-65287676D01*
X51809524Y-65287676D02*
X51714286Y-65382914D01*
X51714286Y-65382914D02*
X51619048Y-65430533D01*
X52761905Y-65573390D02*
X52666667Y-65525771D01*
X52666667Y-65525771D02*
X52619048Y-65478152D01*
X52619048Y-65478152D02*
X52571429Y-65382914D01*
X52571429Y-65382914D02*
X52571429Y-65335295D01*
X52571429Y-65335295D02*
X52619048Y-65240057D01*
X52619048Y-65240057D02*
X52666667Y-65192438D01*
X52666667Y-65192438D02*
X52761905Y-65144819D01*
X52761905Y-65144819D02*
X52952381Y-65144819D01*
X52952381Y-65144819D02*
X53047619Y-65192438D01*
X53047619Y-65192438D02*
X53095238Y-65240057D01*
X53095238Y-65240057D02*
X53142857Y-65335295D01*
X53142857Y-65335295D02*
X53142857Y-65382914D01*
X53142857Y-65382914D02*
X53095238Y-65478152D01*
X53095238Y-65478152D02*
X53047619Y-65525771D01*
X53047619Y-65525771D02*
X52952381Y-65573390D01*
X52952381Y-65573390D02*
X52761905Y-65573390D01*
X52761905Y-65573390D02*
X52666667Y-65621009D01*
X52666667Y-65621009D02*
X52619048Y-65668628D01*
X52619048Y-65668628D02*
X52571429Y-65763866D01*
X52571429Y-65763866D02*
X52571429Y-65954342D01*
X52571429Y-65954342D02*
X52619048Y-66049580D01*
X52619048Y-66049580D02*
X52666667Y-66097200D01*
X52666667Y-66097200D02*
X52761905Y-66144819D01*
X52761905Y-66144819D02*
X52952381Y-66144819D01*
X52952381Y-66144819D02*
X53047619Y-66097200D01*
X53047619Y-66097200D02*
X53095238Y-66049580D01*
X53095238Y-66049580D02*
X53142857Y-65954342D01*
X53142857Y-65954342D02*
X53142857Y-65763866D01*
X53142857Y-65763866D02*
X53095238Y-65668628D01*
X53095238Y-65668628D02*
X53047619Y-65621009D01*
X53047619Y-65621009D02*
X52952381Y-65573390D01*
X92568095Y-82744819D02*
X92568095Y-83554342D01*
X92568095Y-83554342D02*
X92615714Y-83649580D01*
X92615714Y-83649580D02*
X92663333Y-83697200D01*
X92663333Y-83697200D02*
X92758571Y-83744819D01*
X92758571Y-83744819D02*
X92949047Y-83744819D01*
X92949047Y-83744819D02*
X93044285Y-83697200D01*
X93044285Y-83697200D02*
X93091904Y-83649580D01*
X93091904Y-83649580D02*
X93139523Y-83554342D01*
X93139523Y-83554342D02*
X93139523Y-82744819D01*
X94139523Y-83744819D02*
X93568095Y-83744819D01*
X93853809Y-83744819D02*
X93853809Y-82744819D01*
X93853809Y-82744819D02*
X93758571Y-82887676D01*
X93758571Y-82887676D02*
X93663333Y-82982914D01*
X93663333Y-82982914D02*
X93568095Y-83030533D01*
X74359580Y-59642857D02*
X74407200Y-59690476D01*
X74407200Y-59690476D02*
X74454819Y-59833333D01*
X74454819Y-59833333D02*
X74454819Y-59928571D01*
X74454819Y-59928571D02*
X74407200Y-60071428D01*
X74407200Y-60071428D02*
X74311961Y-60166666D01*
X74311961Y-60166666D02*
X74216723Y-60214285D01*
X74216723Y-60214285D02*
X74026247Y-60261904D01*
X74026247Y-60261904D02*
X73883390Y-60261904D01*
X73883390Y-60261904D02*
X73692914Y-60214285D01*
X73692914Y-60214285D02*
X73597676Y-60166666D01*
X73597676Y-60166666D02*
X73502438Y-60071428D01*
X73502438Y-60071428D02*
X73454819Y-59928571D01*
X73454819Y-59928571D02*
X73454819Y-59833333D01*
X73454819Y-59833333D02*
X73502438Y-59690476D01*
X73502438Y-59690476D02*
X73550057Y-59642857D01*
X74454819Y-58690476D02*
X74454819Y-59261904D01*
X74454819Y-58976190D02*
X73454819Y-58976190D01*
X73454819Y-58976190D02*
X73597676Y-59071428D01*
X73597676Y-59071428D02*
X73692914Y-59166666D01*
X73692914Y-59166666D02*
X73740533Y-59261904D01*
X73454819Y-58357142D02*
X73454819Y-57738095D01*
X73454819Y-57738095D02*
X73835771Y-58071428D01*
X73835771Y-58071428D02*
X73835771Y-57928571D01*
X73835771Y-57928571D02*
X73883390Y-57833333D01*
X73883390Y-57833333D02*
X73931009Y-57785714D01*
X73931009Y-57785714D02*
X74026247Y-57738095D01*
X74026247Y-57738095D02*
X74264342Y-57738095D01*
X74264342Y-57738095D02*
X74359580Y-57785714D01*
X74359580Y-57785714D02*
X74407200Y-57833333D01*
X74407200Y-57833333D02*
X74454819Y-57928571D01*
X74454819Y-57928571D02*
X74454819Y-58214285D01*
X74454819Y-58214285D02*
X74407200Y-58309523D01*
X74407200Y-58309523D02*
X74359580Y-58357142D01*
X79857142Y-120954819D02*
X79523809Y-120478628D01*
X79285714Y-120954819D02*
X79285714Y-119954819D01*
X79285714Y-119954819D02*
X79666666Y-119954819D01*
X79666666Y-119954819D02*
X79761904Y-120002438D01*
X79761904Y-120002438D02*
X79809523Y-120050057D01*
X79809523Y-120050057D02*
X79857142Y-120145295D01*
X79857142Y-120145295D02*
X79857142Y-120288152D01*
X79857142Y-120288152D02*
X79809523Y-120383390D01*
X79809523Y-120383390D02*
X79761904Y-120431009D01*
X79761904Y-120431009D02*
X79666666Y-120478628D01*
X79666666Y-120478628D02*
X79285714Y-120478628D01*
X80809523Y-120954819D02*
X80238095Y-120954819D01*
X80523809Y-120954819D02*
X80523809Y-119954819D01*
X80523809Y-119954819D02*
X80428571Y-120097676D01*
X80428571Y-120097676D02*
X80333333Y-120192914D01*
X80333333Y-120192914D02*
X80238095Y-120240533D01*
X81380952Y-120383390D02*
X81285714Y-120335771D01*
X81285714Y-120335771D02*
X81238095Y-120288152D01*
X81238095Y-120288152D02*
X81190476Y-120192914D01*
X81190476Y-120192914D02*
X81190476Y-120145295D01*
X81190476Y-120145295D02*
X81238095Y-120050057D01*
X81238095Y-120050057D02*
X81285714Y-120002438D01*
X81285714Y-120002438D02*
X81380952Y-119954819D01*
X81380952Y-119954819D02*
X81571428Y-119954819D01*
X81571428Y-119954819D02*
X81666666Y-120002438D01*
X81666666Y-120002438D02*
X81714285Y-120050057D01*
X81714285Y-120050057D02*
X81761904Y-120145295D01*
X81761904Y-120145295D02*
X81761904Y-120192914D01*
X81761904Y-120192914D02*
X81714285Y-120288152D01*
X81714285Y-120288152D02*
X81666666Y-120335771D01*
X81666666Y-120335771D02*
X81571428Y-120383390D01*
X81571428Y-120383390D02*
X81380952Y-120383390D01*
X81380952Y-120383390D02*
X81285714Y-120431009D01*
X81285714Y-120431009D02*
X81238095Y-120478628D01*
X81238095Y-120478628D02*
X81190476Y-120573866D01*
X81190476Y-120573866D02*
X81190476Y-120764342D01*
X81190476Y-120764342D02*
X81238095Y-120859580D01*
X81238095Y-120859580D02*
X81285714Y-120907200D01*
X81285714Y-120907200D02*
X81380952Y-120954819D01*
X81380952Y-120954819D02*
X81571428Y-120954819D01*
X81571428Y-120954819D02*
X81666666Y-120907200D01*
X81666666Y-120907200D02*
X81714285Y-120859580D01*
X81714285Y-120859580D02*
X81761904Y-120764342D01*
X81761904Y-120764342D02*
X81761904Y-120573866D01*
X81761904Y-120573866D02*
X81714285Y-120478628D01*
X81714285Y-120478628D02*
X81666666Y-120431009D01*
X81666666Y-120431009D02*
X81571428Y-120383390D01*
X91859580Y-58142857D02*
X91907200Y-58190476D01*
X91907200Y-58190476D02*
X91954819Y-58333333D01*
X91954819Y-58333333D02*
X91954819Y-58428571D01*
X91954819Y-58428571D02*
X91907200Y-58571428D01*
X91907200Y-58571428D02*
X91811961Y-58666666D01*
X91811961Y-58666666D02*
X91716723Y-58714285D01*
X91716723Y-58714285D02*
X91526247Y-58761904D01*
X91526247Y-58761904D02*
X91383390Y-58761904D01*
X91383390Y-58761904D02*
X91192914Y-58714285D01*
X91192914Y-58714285D02*
X91097676Y-58666666D01*
X91097676Y-58666666D02*
X91002438Y-58571428D01*
X91002438Y-58571428D02*
X90954819Y-58428571D01*
X90954819Y-58428571D02*
X90954819Y-58333333D01*
X90954819Y-58333333D02*
X91002438Y-58190476D01*
X91002438Y-58190476D02*
X91050057Y-58142857D01*
X91954819Y-57190476D02*
X91954819Y-57761904D01*
X91954819Y-57476190D02*
X90954819Y-57476190D01*
X90954819Y-57476190D02*
X91097676Y-57571428D01*
X91097676Y-57571428D02*
X91192914Y-57666666D01*
X91192914Y-57666666D02*
X91240533Y-57761904D01*
X91954819Y-56238095D02*
X91954819Y-56809523D01*
X91954819Y-56523809D02*
X90954819Y-56523809D01*
X90954819Y-56523809D02*
X91097676Y-56619047D01*
X91097676Y-56619047D02*
X91192914Y-56714285D01*
X91192914Y-56714285D02*
X91240533Y-56809523D01*
X69954819Y-107682857D02*
X69478628Y-108016190D01*
X69954819Y-108254285D02*
X68954819Y-108254285D01*
X68954819Y-108254285D02*
X68954819Y-107873333D01*
X68954819Y-107873333D02*
X69002438Y-107778095D01*
X69002438Y-107778095D02*
X69050057Y-107730476D01*
X69050057Y-107730476D02*
X69145295Y-107682857D01*
X69145295Y-107682857D02*
X69288152Y-107682857D01*
X69288152Y-107682857D02*
X69383390Y-107730476D01*
X69383390Y-107730476D02*
X69431009Y-107778095D01*
X69431009Y-107778095D02*
X69478628Y-107873333D01*
X69478628Y-107873333D02*
X69478628Y-108254285D01*
X69954819Y-106730476D02*
X69954819Y-107301904D01*
X69954819Y-107016190D02*
X68954819Y-107016190D01*
X68954819Y-107016190D02*
X69097676Y-107111428D01*
X69097676Y-107111428D02*
X69192914Y-107206666D01*
X69192914Y-107206666D02*
X69240533Y-107301904D01*
X69050057Y-106349523D02*
X69002438Y-106301904D01*
X69002438Y-106301904D02*
X68954819Y-106206666D01*
X68954819Y-106206666D02*
X68954819Y-105968571D01*
X68954819Y-105968571D02*
X69002438Y-105873333D01*
X69002438Y-105873333D02*
X69050057Y-105825714D01*
X69050057Y-105825714D02*
X69145295Y-105778095D01*
X69145295Y-105778095D02*
X69240533Y-105778095D01*
X69240533Y-105778095D02*
X69383390Y-105825714D01*
X69383390Y-105825714D02*
X69954819Y-106397142D01*
X69954819Y-106397142D02*
X69954819Y-105778095D01*
X87914819Y-88129523D02*
X88629104Y-88129523D01*
X88629104Y-88129523D02*
X88771961Y-88177142D01*
X88771961Y-88177142D02*
X88867200Y-88272380D01*
X88867200Y-88272380D02*
X88914819Y-88415237D01*
X88914819Y-88415237D02*
X88914819Y-88510475D01*
X88914819Y-87129523D02*
X88914819Y-87700951D01*
X88914819Y-87415237D02*
X87914819Y-87415237D01*
X87914819Y-87415237D02*
X88057676Y-87510475D01*
X88057676Y-87510475D02*
X88152914Y-87605713D01*
X88152914Y-87605713D02*
X88200533Y-87700951D01*
X88914819Y-86177142D02*
X88914819Y-86748570D01*
X88914819Y-86462856D02*
X87914819Y-86462856D01*
X87914819Y-86462856D02*
X88057676Y-86558094D01*
X88057676Y-86558094D02*
X88152914Y-86653332D01*
X88152914Y-86653332D02*
X88200533Y-86748570D01*
X72319047Y-76431009D02*
X72461904Y-76478628D01*
X72461904Y-76478628D02*
X72509523Y-76526247D01*
X72509523Y-76526247D02*
X72557142Y-76621485D01*
X72557142Y-76621485D02*
X72557142Y-76764342D01*
X72557142Y-76764342D02*
X72509523Y-76859580D01*
X72509523Y-76859580D02*
X72461904Y-76907200D01*
X72461904Y-76907200D02*
X72366666Y-76954819D01*
X72366666Y-76954819D02*
X71985714Y-76954819D01*
X71985714Y-76954819D02*
X71985714Y-75954819D01*
X71985714Y-75954819D02*
X72319047Y-75954819D01*
X72319047Y-75954819D02*
X72414285Y-76002438D01*
X72414285Y-76002438D02*
X72461904Y-76050057D01*
X72461904Y-76050057D02*
X72509523Y-76145295D01*
X72509523Y-76145295D02*
X72509523Y-76240533D01*
X72509523Y-76240533D02*
X72461904Y-76335771D01*
X72461904Y-76335771D02*
X72414285Y-76383390D01*
X72414285Y-76383390D02*
X72319047Y-76431009D01*
X72319047Y-76431009D02*
X71985714Y-76431009D01*
X72890476Y-75954819D02*
X73557142Y-75954819D01*
X73557142Y-75954819D02*
X72890476Y-76954819D01*
X72890476Y-76954819D02*
X73557142Y-76954819D01*
X74461904Y-76954819D02*
X73890476Y-76954819D01*
X74176190Y-76954819D02*
X74176190Y-75954819D01*
X74176190Y-75954819D02*
X74080952Y-76097676D01*
X74080952Y-76097676D02*
X73985714Y-76192914D01*
X73985714Y-76192914D02*
X73890476Y-76240533D01*
X76629048Y-79113866D02*
X77390953Y-79113866D01*
X77010000Y-79494819D02*
X77010000Y-78732914D01*
X104454819Y-80166666D02*
X103978628Y-80499999D01*
X104454819Y-80738094D02*
X103454819Y-80738094D01*
X103454819Y-80738094D02*
X103454819Y-80357142D01*
X103454819Y-80357142D02*
X103502438Y-80261904D01*
X103502438Y-80261904D02*
X103550057Y-80214285D01*
X103550057Y-80214285D02*
X103645295Y-80166666D01*
X103645295Y-80166666D02*
X103788152Y-80166666D01*
X103788152Y-80166666D02*
X103883390Y-80214285D01*
X103883390Y-80214285D02*
X103931009Y-80261904D01*
X103931009Y-80261904D02*
X103978628Y-80357142D01*
X103978628Y-80357142D02*
X103978628Y-80738094D01*
X104454819Y-79214285D02*
X104454819Y-79785713D01*
X104454819Y-79499999D02*
X103454819Y-79499999D01*
X103454819Y-79499999D02*
X103597676Y-79595237D01*
X103597676Y-79595237D02*
X103692914Y-79690475D01*
X103692914Y-79690475D02*
X103740533Y-79785713D01*
X80333333Y-113859580D02*
X80285714Y-113907200D01*
X80285714Y-113907200D02*
X80142857Y-113954819D01*
X80142857Y-113954819D02*
X80047619Y-113954819D01*
X80047619Y-113954819D02*
X79904762Y-113907200D01*
X79904762Y-113907200D02*
X79809524Y-113811961D01*
X79809524Y-113811961D02*
X79761905Y-113716723D01*
X79761905Y-113716723D02*
X79714286Y-113526247D01*
X79714286Y-113526247D02*
X79714286Y-113383390D01*
X79714286Y-113383390D02*
X79761905Y-113192914D01*
X79761905Y-113192914D02*
X79809524Y-113097676D01*
X79809524Y-113097676D02*
X79904762Y-113002438D01*
X79904762Y-113002438D02*
X80047619Y-112954819D01*
X80047619Y-112954819D02*
X80142857Y-112954819D01*
X80142857Y-112954819D02*
X80285714Y-113002438D01*
X80285714Y-113002438D02*
X80333333Y-113050057D01*
X81190476Y-113288152D02*
X81190476Y-113954819D01*
X80952381Y-112907200D02*
X80714286Y-113621485D01*
X80714286Y-113621485D02*
X81333333Y-113621485D01*
X115190476Y-65534819D02*
X115190476Y-66249104D01*
X115190476Y-66249104D02*
X115142857Y-66391961D01*
X115142857Y-66391961D02*
X115047619Y-66487200D01*
X115047619Y-66487200D02*
X114904762Y-66534819D01*
X114904762Y-66534819D02*
X114809524Y-66534819D01*
X116190476Y-66534819D02*
X115619048Y-66534819D01*
X115904762Y-66534819D02*
X115904762Y-65534819D01*
X115904762Y-65534819D02*
X115809524Y-65677676D01*
X115809524Y-65677676D02*
X115714286Y-65772914D01*
X115714286Y-65772914D02*
X115619048Y-65820533D01*
X117047619Y-65868152D02*
X117047619Y-66534819D01*
X116809524Y-65487200D02*
X116571429Y-66201485D01*
X116571429Y-66201485D02*
X117190476Y-66201485D01*
X71954819Y-122833333D02*
X72669104Y-122833333D01*
X72669104Y-122833333D02*
X72811961Y-122880952D01*
X72811961Y-122880952D02*
X72907200Y-122976190D01*
X72907200Y-122976190D02*
X72954819Y-123119047D01*
X72954819Y-123119047D02*
X72954819Y-123214285D01*
X71954819Y-121880952D02*
X71954819Y-122357142D01*
X71954819Y-122357142D02*
X72431009Y-122404761D01*
X72431009Y-122404761D02*
X72383390Y-122357142D01*
X72383390Y-122357142D02*
X72335771Y-122261904D01*
X72335771Y-122261904D02*
X72335771Y-122023809D01*
X72335771Y-122023809D02*
X72383390Y-121928571D01*
X72383390Y-121928571D02*
X72431009Y-121880952D01*
X72431009Y-121880952D02*
X72526247Y-121833333D01*
X72526247Y-121833333D02*
X72764342Y-121833333D01*
X72764342Y-121833333D02*
X72859580Y-121880952D01*
X72859580Y-121880952D02*
X72907200Y-121928571D01*
X72907200Y-121928571D02*
X72954819Y-122023809D01*
X72954819Y-122023809D02*
X72954819Y-122261904D01*
X72954819Y-122261904D02*
X72907200Y-122357142D01*
X72907200Y-122357142D02*
X72859580Y-122404761D01*
X109857142Y-118859580D02*
X109809523Y-118907200D01*
X109809523Y-118907200D02*
X109666666Y-118954819D01*
X109666666Y-118954819D02*
X109571428Y-118954819D01*
X109571428Y-118954819D02*
X109428571Y-118907200D01*
X109428571Y-118907200D02*
X109333333Y-118811961D01*
X109333333Y-118811961D02*
X109285714Y-118716723D01*
X109285714Y-118716723D02*
X109238095Y-118526247D01*
X109238095Y-118526247D02*
X109238095Y-118383390D01*
X109238095Y-118383390D02*
X109285714Y-118192914D01*
X109285714Y-118192914D02*
X109333333Y-118097676D01*
X109333333Y-118097676D02*
X109428571Y-118002438D01*
X109428571Y-118002438D02*
X109571428Y-117954819D01*
X109571428Y-117954819D02*
X109666666Y-117954819D01*
X109666666Y-117954819D02*
X109809523Y-118002438D01*
X109809523Y-118002438D02*
X109857142Y-118050057D01*
X110809523Y-118954819D02*
X110238095Y-118954819D01*
X110523809Y-118954819D02*
X110523809Y-117954819D01*
X110523809Y-117954819D02*
X110428571Y-118097676D01*
X110428571Y-118097676D02*
X110333333Y-118192914D01*
X110333333Y-118192914D02*
X110238095Y-118240533D01*
X111428571Y-117954819D02*
X111523809Y-117954819D01*
X111523809Y-117954819D02*
X111619047Y-118002438D01*
X111619047Y-118002438D02*
X111666666Y-118050057D01*
X111666666Y-118050057D02*
X111714285Y-118145295D01*
X111714285Y-118145295D02*
X111761904Y-118335771D01*
X111761904Y-118335771D02*
X111761904Y-118573866D01*
X111761904Y-118573866D02*
X111714285Y-118764342D01*
X111714285Y-118764342D02*
X111666666Y-118859580D01*
X111666666Y-118859580D02*
X111619047Y-118907200D01*
X111619047Y-118907200D02*
X111523809Y-118954819D01*
X111523809Y-118954819D02*
X111428571Y-118954819D01*
X111428571Y-118954819D02*
X111333333Y-118907200D01*
X111333333Y-118907200D02*
X111285714Y-118859580D01*
X111285714Y-118859580D02*
X111238095Y-118764342D01*
X111238095Y-118764342D02*
X111190476Y-118573866D01*
X111190476Y-118573866D02*
X111190476Y-118335771D01*
X111190476Y-118335771D02*
X111238095Y-118145295D01*
X111238095Y-118145295D02*
X111285714Y-118050057D01*
X111285714Y-118050057D02*
X111333333Y-118002438D01*
X111333333Y-118002438D02*
X111428571Y-117954819D01*
X77669104Y-59714285D02*
X77669104Y-59238095D01*
X77954819Y-59809523D02*
X76954819Y-59476190D01*
X76954819Y-59476190D02*
X77954819Y-59142857D01*
X77050057Y-58857142D02*
X77002438Y-58809523D01*
X77002438Y-58809523D02*
X76954819Y-58714285D01*
X76954819Y-58714285D02*
X76954819Y-58476190D01*
X76954819Y-58476190D02*
X77002438Y-58380952D01*
X77002438Y-58380952D02*
X77050057Y-58333333D01*
X77050057Y-58333333D02*
X77145295Y-58285714D01*
X77145295Y-58285714D02*
X77240533Y-58285714D01*
X77240533Y-58285714D02*
X77383390Y-58333333D01*
X77383390Y-58333333D02*
X77954819Y-58904761D01*
X77954819Y-58904761D02*
X77954819Y-58285714D01*
X87914819Y-83539523D02*
X88629104Y-83539523D01*
X88629104Y-83539523D02*
X88771961Y-83587142D01*
X88771961Y-83587142D02*
X88867200Y-83682380D01*
X88867200Y-83682380D02*
X88914819Y-83825237D01*
X88914819Y-83825237D02*
X88914819Y-83920475D01*
X88914819Y-82539523D02*
X88914819Y-83110951D01*
X88914819Y-82825237D02*
X87914819Y-82825237D01*
X87914819Y-82825237D02*
X88057676Y-82920475D01*
X88057676Y-82920475D02*
X88152914Y-83015713D01*
X88152914Y-83015713D02*
X88200533Y-83110951D01*
X87914819Y-81920475D02*
X87914819Y-81825237D01*
X87914819Y-81825237D02*
X87962438Y-81729999D01*
X87962438Y-81729999D02*
X88010057Y-81682380D01*
X88010057Y-81682380D02*
X88105295Y-81634761D01*
X88105295Y-81634761D02*
X88295771Y-81587142D01*
X88295771Y-81587142D02*
X88533866Y-81587142D01*
X88533866Y-81587142D02*
X88724342Y-81634761D01*
X88724342Y-81634761D02*
X88819580Y-81682380D01*
X88819580Y-81682380D02*
X88867200Y-81729999D01*
X88867200Y-81729999D02*
X88914819Y-81825237D01*
X88914819Y-81825237D02*
X88914819Y-81920475D01*
X88914819Y-81920475D02*
X88867200Y-82015713D01*
X88867200Y-82015713D02*
X88819580Y-82063332D01*
X88819580Y-82063332D02*
X88724342Y-82110951D01*
X88724342Y-82110951D02*
X88533866Y-82158570D01*
X88533866Y-82158570D02*
X88295771Y-82158570D01*
X88295771Y-82158570D02*
X88105295Y-82110951D01*
X88105295Y-82110951D02*
X88010057Y-82063332D01*
X88010057Y-82063332D02*
X87962438Y-82015713D01*
X87962438Y-82015713D02*
X87914819Y-81920475D01*
X79857142Y-118454819D02*
X79523809Y-117978628D01*
X79285714Y-118454819D02*
X79285714Y-117454819D01*
X79285714Y-117454819D02*
X79666666Y-117454819D01*
X79666666Y-117454819D02*
X79761904Y-117502438D01*
X79761904Y-117502438D02*
X79809523Y-117550057D01*
X79809523Y-117550057D02*
X79857142Y-117645295D01*
X79857142Y-117645295D02*
X79857142Y-117788152D01*
X79857142Y-117788152D02*
X79809523Y-117883390D01*
X79809523Y-117883390D02*
X79761904Y-117931009D01*
X79761904Y-117931009D02*
X79666666Y-117978628D01*
X79666666Y-117978628D02*
X79285714Y-117978628D01*
X80809523Y-118454819D02*
X80238095Y-118454819D01*
X80523809Y-118454819D02*
X80523809Y-117454819D01*
X80523809Y-117454819D02*
X80428571Y-117597676D01*
X80428571Y-117597676D02*
X80333333Y-117692914D01*
X80333333Y-117692914D02*
X80238095Y-117740533D01*
X81285714Y-118454819D02*
X81476190Y-118454819D01*
X81476190Y-118454819D02*
X81571428Y-118407200D01*
X81571428Y-118407200D02*
X81619047Y-118359580D01*
X81619047Y-118359580D02*
X81714285Y-118216723D01*
X81714285Y-118216723D02*
X81761904Y-118026247D01*
X81761904Y-118026247D02*
X81761904Y-117645295D01*
X81761904Y-117645295D02*
X81714285Y-117550057D01*
X81714285Y-117550057D02*
X81666666Y-117502438D01*
X81666666Y-117502438D02*
X81571428Y-117454819D01*
X81571428Y-117454819D02*
X81380952Y-117454819D01*
X81380952Y-117454819D02*
X81285714Y-117502438D01*
X81285714Y-117502438D02*
X81238095Y-117550057D01*
X81238095Y-117550057D02*
X81190476Y-117645295D01*
X81190476Y-117645295D02*
X81190476Y-117883390D01*
X81190476Y-117883390D02*
X81238095Y-117978628D01*
X81238095Y-117978628D02*
X81285714Y-118026247D01*
X81285714Y-118026247D02*
X81380952Y-118073866D01*
X81380952Y-118073866D02*
X81571428Y-118073866D01*
X81571428Y-118073866D02*
X81666666Y-118026247D01*
X81666666Y-118026247D02*
X81714285Y-117978628D01*
X81714285Y-117978628D02*
X81761904Y-117883390D01*
X93761905Y-132494819D02*
X93761905Y-131494819D01*
X93761905Y-131494819D02*
X94000000Y-131494819D01*
X94000000Y-131494819D02*
X94142857Y-131542438D01*
X94142857Y-131542438D02*
X94238095Y-131637676D01*
X94238095Y-131637676D02*
X94285714Y-131732914D01*
X94285714Y-131732914D02*
X94333333Y-131923390D01*
X94333333Y-131923390D02*
X94333333Y-132066247D01*
X94333333Y-132066247D02*
X94285714Y-132256723D01*
X94285714Y-132256723D02*
X94238095Y-132351961D01*
X94238095Y-132351961D02*
X94142857Y-132447200D01*
X94142857Y-132447200D02*
X94000000Y-132494819D01*
X94000000Y-132494819D02*
X93761905Y-132494819D01*
X94714286Y-131590057D02*
X94761905Y-131542438D01*
X94761905Y-131542438D02*
X94857143Y-131494819D01*
X94857143Y-131494819D02*
X95095238Y-131494819D01*
X95095238Y-131494819D02*
X95190476Y-131542438D01*
X95190476Y-131542438D02*
X95238095Y-131590057D01*
X95238095Y-131590057D02*
X95285714Y-131685295D01*
X95285714Y-131685295D02*
X95285714Y-131780533D01*
X95285714Y-131780533D02*
X95238095Y-131923390D01*
X95238095Y-131923390D02*
X94666667Y-132494819D01*
X94666667Y-132494819D02*
X95285714Y-132494819D01*
X95954819Y-71666666D02*
X95478628Y-71999999D01*
X95954819Y-72238094D02*
X94954819Y-72238094D01*
X94954819Y-72238094D02*
X94954819Y-71857142D01*
X94954819Y-71857142D02*
X95002438Y-71761904D01*
X95002438Y-71761904D02*
X95050057Y-71714285D01*
X95050057Y-71714285D02*
X95145295Y-71666666D01*
X95145295Y-71666666D02*
X95288152Y-71666666D01*
X95288152Y-71666666D02*
X95383390Y-71714285D01*
X95383390Y-71714285D02*
X95431009Y-71761904D01*
X95431009Y-71761904D02*
X95478628Y-71857142D01*
X95478628Y-71857142D02*
X95478628Y-72238094D01*
X94954819Y-70809523D02*
X94954819Y-70999999D01*
X94954819Y-70999999D02*
X95002438Y-71095237D01*
X95002438Y-71095237D02*
X95050057Y-71142856D01*
X95050057Y-71142856D02*
X95192914Y-71238094D01*
X95192914Y-71238094D02*
X95383390Y-71285713D01*
X95383390Y-71285713D02*
X95764342Y-71285713D01*
X95764342Y-71285713D02*
X95859580Y-71238094D01*
X95859580Y-71238094D02*
X95907200Y-71190475D01*
X95907200Y-71190475D02*
X95954819Y-71095237D01*
X95954819Y-71095237D02*
X95954819Y-70904761D01*
X95954819Y-70904761D02*
X95907200Y-70809523D01*
X95907200Y-70809523D02*
X95859580Y-70761904D01*
X95859580Y-70761904D02*
X95764342Y-70714285D01*
X95764342Y-70714285D02*
X95526247Y-70714285D01*
X95526247Y-70714285D02*
X95431009Y-70761904D01*
X95431009Y-70761904D02*
X95383390Y-70809523D01*
X95383390Y-70809523D02*
X95335771Y-70904761D01*
X95335771Y-70904761D02*
X95335771Y-71095237D01*
X95335771Y-71095237D02*
X95383390Y-71190475D01*
X95383390Y-71190475D02*
X95431009Y-71238094D01*
X95431009Y-71238094D02*
X95526247Y-71285713D01*
X65604819Y-79602857D02*
X65128628Y-79936190D01*
X65604819Y-80174285D02*
X64604819Y-80174285D01*
X64604819Y-80174285D02*
X64604819Y-79793333D01*
X64604819Y-79793333D02*
X64652438Y-79698095D01*
X64652438Y-79698095D02*
X64700057Y-79650476D01*
X64700057Y-79650476D02*
X64795295Y-79602857D01*
X64795295Y-79602857D02*
X64938152Y-79602857D01*
X64938152Y-79602857D02*
X65033390Y-79650476D01*
X65033390Y-79650476D02*
X65081009Y-79698095D01*
X65081009Y-79698095D02*
X65128628Y-79793333D01*
X65128628Y-79793333D02*
X65128628Y-80174285D01*
X65604819Y-78650476D02*
X65604819Y-79221904D01*
X65604819Y-78936190D02*
X64604819Y-78936190D01*
X64604819Y-78936190D02*
X64747676Y-79031428D01*
X64747676Y-79031428D02*
X64842914Y-79126666D01*
X64842914Y-79126666D02*
X64890533Y-79221904D01*
X64938152Y-77793333D02*
X65604819Y-77793333D01*
X64557200Y-78031428D02*
X65271485Y-78269523D01*
X65271485Y-78269523D02*
X65271485Y-77650476D01*
X90404761Y-74050057D02*
X90309523Y-74002438D01*
X90309523Y-74002438D02*
X90214285Y-73907200D01*
X90214285Y-73907200D02*
X90071428Y-73764342D01*
X90071428Y-73764342D02*
X89976190Y-73716723D01*
X89976190Y-73716723D02*
X89880952Y-73716723D01*
X89928571Y-73954819D02*
X89833333Y-73907200D01*
X89833333Y-73907200D02*
X89738095Y-73811961D01*
X89738095Y-73811961D02*
X89690476Y-73621485D01*
X89690476Y-73621485D02*
X89690476Y-73288152D01*
X89690476Y-73288152D02*
X89738095Y-73097676D01*
X89738095Y-73097676D02*
X89833333Y-73002438D01*
X89833333Y-73002438D02*
X89928571Y-72954819D01*
X89928571Y-72954819D02*
X90119047Y-72954819D01*
X90119047Y-72954819D02*
X90214285Y-73002438D01*
X90214285Y-73002438D02*
X90309523Y-73097676D01*
X90309523Y-73097676D02*
X90357142Y-73288152D01*
X90357142Y-73288152D02*
X90357142Y-73621485D01*
X90357142Y-73621485D02*
X90309523Y-73811961D01*
X90309523Y-73811961D02*
X90214285Y-73907200D01*
X90214285Y-73907200D02*
X90119047Y-73954819D01*
X90119047Y-73954819D02*
X89928571Y-73954819D01*
X90738095Y-73050057D02*
X90785714Y-73002438D01*
X90785714Y-73002438D02*
X90880952Y-72954819D01*
X90880952Y-72954819D02*
X91119047Y-72954819D01*
X91119047Y-72954819D02*
X91214285Y-73002438D01*
X91214285Y-73002438D02*
X91261904Y-73050057D01*
X91261904Y-73050057D02*
X91309523Y-73145295D01*
X91309523Y-73145295D02*
X91309523Y-73240533D01*
X91309523Y-73240533D02*
X91261904Y-73383390D01*
X91261904Y-73383390D02*
X90690476Y-73954819D01*
X90690476Y-73954819D02*
X91309523Y-73954819D01*
X59054819Y-115736904D02*
X59864342Y-115736904D01*
X59864342Y-115736904D02*
X59959580Y-115689285D01*
X59959580Y-115689285D02*
X60007200Y-115641666D01*
X60007200Y-115641666D02*
X60054819Y-115546428D01*
X60054819Y-115546428D02*
X60054819Y-115355952D01*
X60054819Y-115355952D02*
X60007200Y-115260714D01*
X60007200Y-115260714D02*
X59959580Y-115213095D01*
X59959580Y-115213095D02*
X59864342Y-115165476D01*
X59864342Y-115165476D02*
X59054819Y-115165476D01*
X59054819Y-114784523D02*
X59054819Y-114165476D01*
X59054819Y-114165476D02*
X59435771Y-114498809D01*
X59435771Y-114498809D02*
X59435771Y-114355952D01*
X59435771Y-114355952D02*
X59483390Y-114260714D01*
X59483390Y-114260714D02*
X59531009Y-114213095D01*
X59531009Y-114213095D02*
X59626247Y-114165476D01*
X59626247Y-114165476D02*
X59864342Y-114165476D01*
X59864342Y-114165476D02*
X59959580Y-114213095D01*
X59959580Y-114213095D02*
X60007200Y-114260714D01*
X60007200Y-114260714D02*
X60054819Y-114355952D01*
X60054819Y-114355952D02*
X60054819Y-114641666D01*
X60054819Y-114641666D02*
X60007200Y-114736904D01*
X60007200Y-114736904D02*
X59959580Y-114784523D01*
X105669104Y-59714285D02*
X105669104Y-59238095D01*
X105954819Y-59809523D02*
X104954819Y-59476190D01*
X104954819Y-59476190D02*
X105954819Y-59142857D01*
X105954819Y-58285714D02*
X105954819Y-58857142D01*
X105954819Y-58571428D02*
X104954819Y-58571428D01*
X104954819Y-58571428D02*
X105097676Y-58666666D01*
X105097676Y-58666666D02*
X105192914Y-58761904D01*
X105192914Y-58761904D02*
X105240533Y-58857142D01*
X61833333Y-106859580D02*
X61785714Y-106907200D01*
X61785714Y-106907200D02*
X61642857Y-106954819D01*
X61642857Y-106954819D02*
X61547619Y-106954819D01*
X61547619Y-106954819D02*
X61404762Y-106907200D01*
X61404762Y-106907200D02*
X61309524Y-106811961D01*
X61309524Y-106811961D02*
X61261905Y-106716723D01*
X61261905Y-106716723D02*
X61214286Y-106526247D01*
X61214286Y-106526247D02*
X61214286Y-106383390D01*
X61214286Y-106383390D02*
X61261905Y-106192914D01*
X61261905Y-106192914D02*
X61309524Y-106097676D01*
X61309524Y-106097676D02*
X61404762Y-106002438D01*
X61404762Y-106002438D02*
X61547619Y-105954819D01*
X61547619Y-105954819D02*
X61642857Y-105954819D01*
X61642857Y-105954819D02*
X61785714Y-106002438D01*
X61785714Y-106002438D02*
X61833333Y-106050057D01*
X62214286Y-106050057D02*
X62261905Y-106002438D01*
X62261905Y-106002438D02*
X62357143Y-105954819D01*
X62357143Y-105954819D02*
X62595238Y-105954819D01*
X62595238Y-105954819D02*
X62690476Y-106002438D01*
X62690476Y-106002438D02*
X62738095Y-106050057D01*
X62738095Y-106050057D02*
X62785714Y-106145295D01*
X62785714Y-106145295D02*
X62785714Y-106240533D01*
X62785714Y-106240533D02*
X62738095Y-106383390D01*
X62738095Y-106383390D02*
X62166667Y-106954819D01*
X62166667Y-106954819D02*
X62785714Y-106954819D01*
X87833333Y-119454819D02*
X87500000Y-118978628D01*
X87261905Y-119454819D02*
X87261905Y-118454819D01*
X87261905Y-118454819D02*
X87642857Y-118454819D01*
X87642857Y-118454819D02*
X87738095Y-118502438D01*
X87738095Y-118502438D02*
X87785714Y-118550057D01*
X87785714Y-118550057D02*
X87833333Y-118645295D01*
X87833333Y-118645295D02*
X87833333Y-118788152D01*
X87833333Y-118788152D02*
X87785714Y-118883390D01*
X87785714Y-118883390D02*
X87738095Y-118931009D01*
X87738095Y-118931009D02*
X87642857Y-118978628D01*
X87642857Y-118978628D02*
X87261905Y-118978628D01*
X88404762Y-118883390D02*
X88309524Y-118835771D01*
X88309524Y-118835771D02*
X88261905Y-118788152D01*
X88261905Y-118788152D02*
X88214286Y-118692914D01*
X88214286Y-118692914D02*
X88214286Y-118645295D01*
X88214286Y-118645295D02*
X88261905Y-118550057D01*
X88261905Y-118550057D02*
X88309524Y-118502438D01*
X88309524Y-118502438D02*
X88404762Y-118454819D01*
X88404762Y-118454819D02*
X88595238Y-118454819D01*
X88595238Y-118454819D02*
X88690476Y-118502438D01*
X88690476Y-118502438D02*
X88738095Y-118550057D01*
X88738095Y-118550057D02*
X88785714Y-118645295D01*
X88785714Y-118645295D02*
X88785714Y-118692914D01*
X88785714Y-118692914D02*
X88738095Y-118788152D01*
X88738095Y-118788152D02*
X88690476Y-118835771D01*
X88690476Y-118835771D02*
X88595238Y-118883390D01*
X88595238Y-118883390D02*
X88404762Y-118883390D01*
X88404762Y-118883390D02*
X88309524Y-118931009D01*
X88309524Y-118931009D02*
X88261905Y-118978628D01*
X88261905Y-118978628D02*
X88214286Y-119073866D01*
X88214286Y-119073866D02*
X88214286Y-119264342D01*
X88214286Y-119264342D02*
X88261905Y-119359580D01*
X88261905Y-119359580D02*
X88309524Y-119407200D01*
X88309524Y-119407200D02*
X88404762Y-119454819D01*
X88404762Y-119454819D02*
X88595238Y-119454819D01*
X88595238Y-119454819D02*
X88690476Y-119407200D01*
X88690476Y-119407200D02*
X88738095Y-119359580D01*
X88738095Y-119359580D02*
X88785714Y-119264342D01*
X88785714Y-119264342D02*
X88785714Y-119073866D01*
X88785714Y-119073866D02*
X88738095Y-118978628D01*
X88738095Y-118978628D02*
X88690476Y-118931009D01*
X88690476Y-118931009D02*
X88595238Y-118883390D01*
X92166666Y-74574819D02*
X92166666Y-75289104D01*
X92166666Y-75289104D02*
X92119047Y-75431961D01*
X92119047Y-75431961D02*
X92023809Y-75527200D01*
X92023809Y-75527200D02*
X91880952Y-75574819D01*
X91880952Y-75574819D02*
X91785714Y-75574819D01*
X92547619Y-74574819D02*
X93166666Y-74574819D01*
X93166666Y-74574819D02*
X92833333Y-74955771D01*
X92833333Y-74955771D02*
X92976190Y-74955771D01*
X92976190Y-74955771D02*
X93071428Y-75003390D01*
X93071428Y-75003390D02*
X93119047Y-75051009D01*
X93119047Y-75051009D02*
X93166666Y-75146247D01*
X93166666Y-75146247D02*
X93166666Y-75384342D01*
X93166666Y-75384342D02*
X93119047Y-75479580D01*
X93119047Y-75479580D02*
X93071428Y-75527200D01*
X93071428Y-75527200D02*
X92976190Y-75574819D01*
X92976190Y-75574819D02*
X92690476Y-75574819D01*
X92690476Y-75574819D02*
X92595238Y-75527200D01*
X92595238Y-75527200D02*
X92547619Y-75479580D01*
X87833333Y-121954819D02*
X87500000Y-121478628D01*
X87261905Y-121954819D02*
X87261905Y-120954819D01*
X87261905Y-120954819D02*
X87642857Y-120954819D01*
X87642857Y-120954819D02*
X87738095Y-121002438D01*
X87738095Y-121002438D02*
X87785714Y-121050057D01*
X87785714Y-121050057D02*
X87833333Y-121145295D01*
X87833333Y-121145295D02*
X87833333Y-121288152D01*
X87833333Y-121288152D02*
X87785714Y-121383390D01*
X87785714Y-121383390D02*
X87738095Y-121431009D01*
X87738095Y-121431009D02*
X87642857Y-121478628D01*
X87642857Y-121478628D02*
X87261905Y-121478628D01*
X88166667Y-120954819D02*
X88833333Y-120954819D01*
X88833333Y-120954819D02*
X88404762Y-121954819D01*
X57833333Y-72859580D02*
X57785714Y-72907200D01*
X57785714Y-72907200D02*
X57642857Y-72954819D01*
X57642857Y-72954819D02*
X57547619Y-72954819D01*
X57547619Y-72954819D02*
X57404762Y-72907200D01*
X57404762Y-72907200D02*
X57309524Y-72811961D01*
X57309524Y-72811961D02*
X57261905Y-72716723D01*
X57261905Y-72716723D02*
X57214286Y-72526247D01*
X57214286Y-72526247D02*
X57214286Y-72383390D01*
X57214286Y-72383390D02*
X57261905Y-72192914D01*
X57261905Y-72192914D02*
X57309524Y-72097676D01*
X57309524Y-72097676D02*
X57404762Y-72002438D01*
X57404762Y-72002438D02*
X57547619Y-71954819D01*
X57547619Y-71954819D02*
X57642857Y-71954819D01*
X57642857Y-71954819D02*
X57785714Y-72002438D01*
X57785714Y-72002438D02*
X57833333Y-72050057D01*
X58166667Y-71954819D02*
X58833333Y-71954819D01*
X58833333Y-71954819D02*
X58404762Y-72954819D01*
X54090476Y-135304819D02*
X54090476Y-136019104D01*
X54090476Y-136019104D02*
X54042857Y-136161961D01*
X54042857Y-136161961D02*
X53947619Y-136257200D01*
X53947619Y-136257200D02*
X53804762Y-136304819D01*
X53804762Y-136304819D02*
X53709524Y-136304819D01*
X54519048Y-135400057D02*
X54566667Y-135352438D01*
X54566667Y-135352438D02*
X54661905Y-135304819D01*
X54661905Y-135304819D02*
X54900000Y-135304819D01*
X54900000Y-135304819D02*
X54995238Y-135352438D01*
X54995238Y-135352438D02*
X55042857Y-135400057D01*
X55042857Y-135400057D02*
X55090476Y-135495295D01*
X55090476Y-135495295D02*
X55090476Y-135590533D01*
X55090476Y-135590533D02*
X55042857Y-135733390D01*
X55042857Y-135733390D02*
X54471429Y-136304819D01*
X54471429Y-136304819D02*
X55090476Y-136304819D01*
X55709524Y-135304819D02*
X55804762Y-135304819D01*
X55804762Y-135304819D02*
X55900000Y-135352438D01*
X55900000Y-135352438D02*
X55947619Y-135400057D01*
X55947619Y-135400057D02*
X55995238Y-135495295D01*
X55995238Y-135495295D02*
X56042857Y-135685771D01*
X56042857Y-135685771D02*
X56042857Y-135923866D01*
X56042857Y-135923866D02*
X55995238Y-136114342D01*
X55995238Y-136114342D02*
X55947619Y-136209580D01*
X55947619Y-136209580D02*
X55900000Y-136257200D01*
X55900000Y-136257200D02*
X55804762Y-136304819D01*
X55804762Y-136304819D02*
X55709524Y-136304819D01*
X55709524Y-136304819D02*
X55614286Y-136257200D01*
X55614286Y-136257200D02*
X55566667Y-136209580D01*
X55566667Y-136209580D02*
X55519048Y-136114342D01*
X55519048Y-136114342D02*
X55471429Y-135923866D01*
X55471429Y-135923866D02*
X55471429Y-135685771D01*
X55471429Y-135685771D02*
X55519048Y-135495295D01*
X55519048Y-135495295D02*
X55566667Y-135400057D01*
X55566667Y-135400057D02*
X55614286Y-135352438D01*
X55614286Y-135352438D02*
X55709524Y-135304819D01*
X85454819Y-54809523D02*
X86169104Y-54809523D01*
X86169104Y-54809523D02*
X86311961Y-54857142D01*
X86311961Y-54857142D02*
X86407200Y-54952380D01*
X86407200Y-54952380D02*
X86454819Y-55095237D01*
X86454819Y-55095237D02*
X86454819Y-55190475D01*
X86454819Y-53809523D02*
X86454819Y-54380951D01*
X86454819Y-54095237D02*
X85454819Y-54095237D01*
X85454819Y-54095237D02*
X85597676Y-54190475D01*
X85597676Y-54190475D02*
X85692914Y-54285713D01*
X85692914Y-54285713D02*
X85740533Y-54380951D01*
X86454819Y-53333332D02*
X86454819Y-53142856D01*
X86454819Y-53142856D02*
X86407200Y-53047618D01*
X86407200Y-53047618D02*
X86359580Y-52999999D01*
X86359580Y-52999999D02*
X86216723Y-52904761D01*
X86216723Y-52904761D02*
X86026247Y-52857142D01*
X86026247Y-52857142D02*
X85645295Y-52857142D01*
X85645295Y-52857142D02*
X85550057Y-52904761D01*
X85550057Y-52904761D02*
X85502438Y-52952380D01*
X85502438Y-52952380D02*
X85454819Y-53047618D01*
X85454819Y-53047618D02*
X85454819Y-53238094D01*
X85454819Y-53238094D02*
X85502438Y-53333332D01*
X85502438Y-53333332D02*
X85550057Y-53380951D01*
X85550057Y-53380951D02*
X85645295Y-53428570D01*
X85645295Y-53428570D02*
X85883390Y-53428570D01*
X85883390Y-53428570D02*
X85978628Y-53380951D01*
X85978628Y-53380951D02*
X86026247Y-53333332D01*
X86026247Y-53333332D02*
X86073866Y-53238094D01*
X86073866Y-53238094D02*
X86073866Y-53047618D01*
X86073866Y-53047618D02*
X86026247Y-52952380D01*
X86026247Y-52952380D02*
X85978628Y-52904761D01*
X85978628Y-52904761D02*
X85883390Y-52857142D01*
X104238095Y-107954819D02*
X104238095Y-108764342D01*
X104238095Y-108764342D02*
X104285714Y-108859580D01*
X104285714Y-108859580D02*
X104333333Y-108907200D01*
X104333333Y-108907200D02*
X104428571Y-108954819D01*
X104428571Y-108954819D02*
X104619047Y-108954819D01*
X104619047Y-108954819D02*
X104714285Y-108907200D01*
X104714285Y-108907200D02*
X104761904Y-108859580D01*
X104761904Y-108859580D02*
X104809523Y-108764342D01*
X104809523Y-108764342D02*
X104809523Y-107954819D01*
X105761904Y-107954819D02*
X105285714Y-107954819D01*
X105285714Y-107954819D02*
X105238095Y-108431009D01*
X105238095Y-108431009D02*
X105285714Y-108383390D01*
X105285714Y-108383390D02*
X105380952Y-108335771D01*
X105380952Y-108335771D02*
X105619047Y-108335771D01*
X105619047Y-108335771D02*
X105714285Y-108383390D01*
X105714285Y-108383390D02*
X105761904Y-108431009D01*
X105761904Y-108431009D02*
X105809523Y-108526247D01*
X105809523Y-108526247D02*
X105809523Y-108764342D01*
X105809523Y-108764342D02*
X105761904Y-108859580D01*
X105761904Y-108859580D02*
X105714285Y-108907200D01*
X105714285Y-108907200D02*
X105619047Y-108954819D01*
X105619047Y-108954819D02*
X105380952Y-108954819D01*
X105380952Y-108954819D02*
X105285714Y-108907200D01*
X105285714Y-108907200D02*
X105238095Y-108859580D01*
X87914819Y-97309523D02*
X88629104Y-97309523D01*
X88629104Y-97309523D02*
X88771961Y-97357142D01*
X88771961Y-97357142D02*
X88867200Y-97452380D01*
X88867200Y-97452380D02*
X88914819Y-97595237D01*
X88914819Y-97595237D02*
X88914819Y-97690475D01*
X88914819Y-96309523D02*
X88914819Y-96880951D01*
X88914819Y-96595237D02*
X87914819Y-96595237D01*
X87914819Y-96595237D02*
X88057676Y-96690475D01*
X88057676Y-96690475D02*
X88152914Y-96785713D01*
X88152914Y-96785713D02*
X88200533Y-96880951D01*
X87914819Y-95976189D02*
X87914819Y-95357142D01*
X87914819Y-95357142D02*
X88295771Y-95690475D01*
X88295771Y-95690475D02*
X88295771Y-95547618D01*
X88295771Y-95547618D02*
X88343390Y-95452380D01*
X88343390Y-95452380D02*
X88391009Y-95404761D01*
X88391009Y-95404761D02*
X88486247Y-95357142D01*
X88486247Y-95357142D02*
X88724342Y-95357142D01*
X88724342Y-95357142D02*
X88819580Y-95404761D01*
X88819580Y-95404761D02*
X88867200Y-95452380D01*
X88867200Y-95452380D02*
X88914819Y-95547618D01*
X88914819Y-95547618D02*
X88914819Y-95833332D01*
X88914819Y-95833332D02*
X88867200Y-95928570D01*
X88867200Y-95928570D02*
X88819580Y-95976189D01*
X57357142Y-69954819D02*
X57023809Y-69478628D01*
X56785714Y-69954819D02*
X56785714Y-68954819D01*
X56785714Y-68954819D02*
X57166666Y-68954819D01*
X57166666Y-68954819D02*
X57261904Y-69002438D01*
X57261904Y-69002438D02*
X57309523Y-69050057D01*
X57309523Y-69050057D02*
X57357142Y-69145295D01*
X57357142Y-69145295D02*
X57357142Y-69288152D01*
X57357142Y-69288152D02*
X57309523Y-69383390D01*
X57309523Y-69383390D02*
X57261904Y-69431009D01*
X57261904Y-69431009D02*
X57166666Y-69478628D01*
X57166666Y-69478628D02*
X56785714Y-69478628D01*
X57738095Y-69050057D02*
X57785714Y-69002438D01*
X57785714Y-69002438D02*
X57880952Y-68954819D01*
X57880952Y-68954819D02*
X58119047Y-68954819D01*
X58119047Y-68954819D02*
X58214285Y-69002438D01*
X58214285Y-69002438D02*
X58261904Y-69050057D01*
X58261904Y-69050057D02*
X58309523Y-69145295D01*
X58309523Y-69145295D02*
X58309523Y-69240533D01*
X58309523Y-69240533D02*
X58261904Y-69383390D01*
X58261904Y-69383390D02*
X57690476Y-69954819D01*
X57690476Y-69954819D02*
X58309523Y-69954819D01*
X58928571Y-68954819D02*
X59023809Y-68954819D01*
X59023809Y-68954819D02*
X59119047Y-69002438D01*
X59119047Y-69002438D02*
X59166666Y-69050057D01*
X59166666Y-69050057D02*
X59214285Y-69145295D01*
X59214285Y-69145295D02*
X59261904Y-69335771D01*
X59261904Y-69335771D02*
X59261904Y-69573866D01*
X59261904Y-69573866D02*
X59214285Y-69764342D01*
X59214285Y-69764342D02*
X59166666Y-69859580D01*
X59166666Y-69859580D02*
X59119047Y-69907200D01*
X59119047Y-69907200D02*
X59023809Y-69954819D01*
X59023809Y-69954819D02*
X58928571Y-69954819D01*
X58928571Y-69954819D02*
X58833333Y-69907200D01*
X58833333Y-69907200D02*
X58785714Y-69859580D01*
X58785714Y-69859580D02*
X58738095Y-69764342D01*
X58738095Y-69764342D02*
X58690476Y-69573866D01*
X58690476Y-69573866D02*
X58690476Y-69335771D01*
X58690476Y-69335771D02*
X58738095Y-69145295D01*
X58738095Y-69145295D02*
X58785714Y-69050057D01*
X58785714Y-69050057D02*
X58833333Y-69002438D01*
X58833333Y-69002438D02*
X58928571Y-68954819D01*
X88050057Y-65135238D02*
X88002438Y-65230476D01*
X88002438Y-65230476D02*
X87907200Y-65325714D01*
X87907200Y-65325714D02*
X87764342Y-65468571D01*
X87764342Y-65468571D02*
X87716723Y-65563809D01*
X87716723Y-65563809D02*
X87716723Y-65659047D01*
X87954819Y-65611428D02*
X87907200Y-65706666D01*
X87907200Y-65706666D02*
X87811961Y-65801904D01*
X87811961Y-65801904D02*
X87621485Y-65849523D01*
X87621485Y-65849523D02*
X87288152Y-65849523D01*
X87288152Y-65849523D02*
X87097676Y-65801904D01*
X87097676Y-65801904D02*
X87002438Y-65706666D01*
X87002438Y-65706666D02*
X86954819Y-65611428D01*
X86954819Y-65611428D02*
X86954819Y-65420952D01*
X86954819Y-65420952D02*
X87002438Y-65325714D01*
X87002438Y-65325714D02*
X87097676Y-65230476D01*
X87097676Y-65230476D02*
X87288152Y-65182857D01*
X87288152Y-65182857D02*
X87621485Y-65182857D01*
X87621485Y-65182857D02*
X87811961Y-65230476D01*
X87811961Y-65230476D02*
X87907200Y-65325714D01*
X87907200Y-65325714D02*
X87954819Y-65420952D01*
X87954819Y-65420952D02*
X87954819Y-65611428D01*
X87954819Y-64230476D02*
X87954819Y-64801904D01*
X87954819Y-64516190D02*
X86954819Y-64516190D01*
X86954819Y-64516190D02*
X87097676Y-64611428D01*
X87097676Y-64611428D02*
X87192914Y-64706666D01*
X87192914Y-64706666D02*
X87240533Y-64801904D01*
X106954819Y-80166666D02*
X106478628Y-80499999D01*
X106954819Y-80738094D02*
X105954819Y-80738094D01*
X105954819Y-80738094D02*
X105954819Y-80357142D01*
X105954819Y-80357142D02*
X106002438Y-80261904D01*
X106002438Y-80261904D02*
X106050057Y-80214285D01*
X106050057Y-80214285D02*
X106145295Y-80166666D01*
X106145295Y-80166666D02*
X106288152Y-80166666D01*
X106288152Y-80166666D02*
X106383390Y-80214285D01*
X106383390Y-80214285D02*
X106431009Y-80261904D01*
X106431009Y-80261904D02*
X106478628Y-80357142D01*
X106478628Y-80357142D02*
X106478628Y-80738094D01*
X106050057Y-79785713D02*
X106002438Y-79738094D01*
X106002438Y-79738094D02*
X105954819Y-79642856D01*
X105954819Y-79642856D02*
X105954819Y-79404761D01*
X105954819Y-79404761D02*
X106002438Y-79309523D01*
X106002438Y-79309523D02*
X106050057Y-79261904D01*
X106050057Y-79261904D02*
X106145295Y-79214285D01*
X106145295Y-79214285D02*
X106240533Y-79214285D01*
X106240533Y-79214285D02*
X106383390Y-79261904D01*
X106383390Y-79261904D02*
X106954819Y-79833332D01*
X106954819Y-79833332D02*
X106954819Y-79214285D01*
X55454819Y-111261904D02*
X56264342Y-111261904D01*
X56264342Y-111261904D02*
X56359580Y-111214285D01*
X56359580Y-111214285D02*
X56407200Y-111166666D01*
X56407200Y-111166666D02*
X56454819Y-111071428D01*
X56454819Y-111071428D02*
X56454819Y-110880952D01*
X56454819Y-110880952D02*
X56407200Y-110785714D01*
X56407200Y-110785714D02*
X56359580Y-110738095D01*
X56359580Y-110738095D02*
X56264342Y-110690476D01*
X56264342Y-110690476D02*
X55454819Y-110690476D01*
X55454819Y-109785714D02*
X55454819Y-109976190D01*
X55454819Y-109976190D02*
X55502438Y-110071428D01*
X55502438Y-110071428D02*
X55550057Y-110119047D01*
X55550057Y-110119047D02*
X55692914Y-110214285D01*
X55692914Y-110214285D02*
X55883390Y-110261904D01*
X55883390Y-110261904D02*
X56264342Y-110261904D01*
X56264342Y-110261904D02*
X56359580Y-110214285D01*
X56359580Y-110214285D02*
X56407200Y-110166666D01*
X56407200Y-110166666D02*
X56454819Y-110071428D01*
X56454819Y-110071428D02*
X56454819Y-109880952D01*
X56454819Y-109880952D02*
X56407200Y-109785714D01*
X56407200Y-109785714D02*
X56359580Y-109738095D01*
X56359580Y-109738095D02*
X56264342Y-109690476D01*
X56264342Y-109690476D02*
X56026247Y-109690476D01*
X56026247Y-109690476D02*
X55931009Y-109738095D01*
X55931009Y-109738095D02*
X55883390Y-109785714D01*
X55883390Y-109785714D02*
X55835771Y-109880952D01*
X55835771Y-109880952D02*
X55835771Y-110071428D01*
X55835771Y-110071428D02*
X55883390Y-110166666D01*
X55883390Y-110166666D02*
X55931009Y-110214285D01*
X55931009Y-110214285D02*
X56026247Y-110261904D01*
X90333333Y-68859580D02*
X90285714Y-68907200D01*
X90285714Y-68907200D02*
X90142857Y-68954819D01*
X90142857Y-68954819D02*
X90047619Y-68954819D01*
X90047619Y-68954819D02*
X89904762Y-68907200D01*
X89904762Y-68907200D02*
X89809524Y-68811961D01*
X89809524Y-68811961D02*
X89761905Y-68716723D01*
X89761905Y-68716723D02*
X89714286Y-68526247D01*
X89714286Y-68526247D02*
X89714286Y-68383390D01*
X89714286Y-68383390D02*
X89761905Y-68192914D01*
X89761905Y-68192914D02*
X89809524Y-68097676D01*
X89809524Y-68097676D02*
X89904762Y-68002438D01*
X89904762Y-68002438D02*
X90047619Y-67954819D01*
X90047619Y-67954819D02*
X90142857Y-67954819D01*
X90142857Y-67954819D02*
X90285714Y-68002438D01*
X90285714Y-68002438D02*
X90333333Y-68050057D01*
X90904762Y-68383390D02*
X90809524Y-68335771D01*
X90809524Y-68335771D02*
X90761905Y-68288152D01*
X90761905Y-68288152D02*
X90714286Y-68192914D01*
X90714286Y-68192914D02*
X90714286Y-68145295D01*
X90714286Y-68145295D02*
X90761905Y-68050057D01*
X90761905Y-68050057D02*
X90809524Y-68002438D01*
X90809524Y-68002438D02*
X90904762Y-67954819D01*
X90904762Y-67954819D02*
X91095238Y-67954819D01*
X91095238Y-67954819D02*
X91190476Y-68002438D01*
X91190476Y-68002438D02*
X91238095Y-68050057D01*
X91238095Y-68050057D02*
X91285714Y-68145295D01*
X91285714Y-68145295D02*
X91285714Y-68192914D01*
X91285714Y-68192914D02*
X91238095Y-68288152D01*
X91238095Y-68288152D02*
X91190476Y-68335771D01*
X91190476Y-68335771D02*
X91095238Y-68383390D01*
X91095238Y-68383390D02*
X90904762Y-68383390D01*
X90904762Y-68383390D02*
X90809524Y-68431009D01*
X90809524Y-68431009D02*
X90761905Y-68478628D01*
X90761905Y-68478628D02*
X90714286Y-68573866D01*
X90714286Y-68573866D02*
X90714286Y-68764342D01*
X90714286Y-68764342D02*
X90761905Y-68859580D01*
X90761905Y-68859580D02*
X90809524Y-68907200D01*
X90809524Y-68907200D02*
X90904762Y-68954819D01*
X90904762Y-68954819D02*
X91095238Y-68954819D01*
X91095238Y-68954819D02*
X91190476Y-68907200D01*
X91190476Y-68907200D02*
X91238095Y-68859580D01*
X91238095Y-68859580D02*
X91285714Y-68764342D01*
X91285714Y-68764342D02*
X91285714Y-68573866D01*
X91285714Y-68573866D02*
X91238095Y-68478628D01*
X91238095Y-68478628D02*
X91190476Y-68431009D01*
X91190476Y-68431009D02*
X91095238Y-68383390D01*
X90857142Y-107359580D02*
X90809523Y-107407200D01*
X90809523Y-107407200D02*
X90666666Y-107454819D01*
X90666666Y-107454819D02*
X90571428Y-107454819D01*
X90571428Y-107454819D02*
X90428571Y-107407200D01*
X90428571Y-107407200D02*
X90333333Y-107311961D01*
X90333333Y-107311961D02*
X90285714Y-107216723D01*
X90285714Y-107216723D02*
X90238095Y-107026247D01*
X90238095Y-107026247D02*
X90238095Y-106883390D01*
X90238095Y-106883390D02*
X90285714Y-106692914D01*
X90285714Y-106692914D02*
X90333333Y-106597676D01*
X90333333Y-106597676D02*
X90428571Y-106502438D01*
X90428571Y-106502438D02*
X90571428Y-106454819D01*
X90571428Y-106454819D02*
X90666666Y-106454819D01*
X90666666Y-106454819D02*
X90809523Y-106502438D01*
X90809523Y-106502438D02*
X90857142Y-106550057D01*
X91809523Y-107454819D02*
X91238095Y-107454819D01*
X91523809Y-107454819D02*
X91523809Y-106454819D01*
X91523809Y-106454819D02*
X91428571Y-106597676D01*
X91428571Y-106597676D02*
X91333333Y-106692914D01*
X91333333Y-106692914D02*
X91238095Y-106740533D01*
X92666666Y-106788152D02*
X92666666Y-107454819D01*
X92428571Y-106407200D02*
X92190476Y-107121485D01*
X92190476Y-107121485D02*
X92809523Y-107121485D01*
X83317142Y-72454819D02*
X82983809Y-71978628D01*
X82745714Y-72454819D02*
X82745714Y-71454819D01*
X82745714Y-71454819D02*
X83126666Y-71454819D01*
X83126666Y-71454819D02*
X83221904Y-71502438D01*
X83221904Y-71502438D02*
X83269523Y-71550057D01*
X83269523Y-71550057D02*
X83317142Y-71645295D01*
X83317142Y-71645295D02*
X83317142Y-71788152D01*
X83317142Y-71788152D02*
X83269523Y-71883390D01*
X83269523Y-71883390D02*
X83221904Y-71931009D01*
X83221904Y-71931009D02*
X83126666Y-71978628D01*
X83126666Y-71978628D02*
X82745714Y-71978628D01*
X83698095Y-71550057D02*
X83745714Y-71502438D01*
X83745714Y-71502438D02*
X83840952Y-71454819D01*
X83840952Y-71454819D02*
X84079047Y-71454819D01*
X84079047Y-71454819D02*
X84174285Y-71502438D01*
X84174285Y-71502438D02*
X84221904Y-71550057D01*
X84221904Y-71550057D02*
X84269523Y-71645295D01*
X84269523Y-71645295D02*
X84269523Y-71740533D01*
X84269523Y-71740533D02*
X84221904Y-71883390D01*
X84221904Y-71883390D02*
X83650476Y-72454819D01*
X83650476Y-72454819D02*
X84269523Y-72454819D01*
X84650476Y-71550057D02*
X84698095Y-71502438D01*
X84698095Y-71502438D02*
X84793333Y-71454819D01*
X84793333Y-71454819D02*
X85031428Y-71454819D01*
X85031428Y-71454819D02*
X85126666Y-71502438D01*
X85126666Y-71502438D02*
X85174285Y-71550057D01*
X85174285Y-71550057D02*
X85221904Y-71645295D01*
X85221904Y-71645295D02*
X85221904Y-71740533D01*
X85221904Y-71740533D02*
X85174285Y-71883390D01*
X85174285Y-71883390D02*
X84602857Y-72454819D01*
X84602857Y-72454819D02*
X85221904Y-72454819D01*
X67454819Y-107682857D02*
X66978628Y-108016190D01*
X67454819Y-108254285D02*
X66454819Y-108254285D01*
X66454819Y-108254285D02*
X66454819Y-107873333D01*
X66454819Y-107873333D02*
X66502438Y-107778095D01*
X66502438Y-107778095D02*
X66550057Y-107730476D01*
X66550057Y-107730476D02*
X66645295Y-107682857D01*
X66645295Y-107682857D02*
X66788152Y-107682857D01*
X66788152Y-107682857D02*
X66883390Y-107730476D01*
X66883390Y-107730476D02*
X66931009Y-107778095D01*
X66931009Y-107778095D02*
X66978628Y-107873333D01*
X66978628Y-107873333D02*
X66978628Y-108254285D01*
X67454819Y-106730476D02*
X67454819Y-107301904D01*
X67454819Y-107016190D02*
X66454819Y-107016190D01*
X66454819Y-107016190D02*
X66597676Y-107111428D01*
X66597676Y-107111428D02*
X66692914Y-107206666D01*
X66692914Y-107206666D02*
X66740533Y-107301904D01*
X67454819Y-105778095D02*
X67454819Y-106349523D01*
X67454819Y-106063809D02*
X66454819Y-106063809D01*
X66454819Y-106063809D02*
X66597676Y-106159047D01*
X66597676Y-106159047D02*
X66692914Y-106254285D01*
X66692914Y-106254285D02*
X66740533Y-106349523D01*
X93397142Y-81454819D02*
X93063809Y-80978628D01*
X92825714Y-81454819D02*
X92825714Y-80454819D01*
X92825714Y-80454819D02*
X93206666Y-80454819D01*
X93206666Y-80454819D02*
X93301904Y-80502438D01*
X93301904Y-80502438D02*
X93349523Y-80550057D01*
X93349523Y-80550057D02*
X93397142Y-80645295D01*
X93397142Y-80645295D02*
X93397142Y-80788152D01*
X93397142Y-80788152D02*
X93349523Y-80883390D01*
X93349523Y-80883390D02*
X93301904Y-80931009D01*
X93301904Y-80931009D02*
X93206666Y-80978628D01*
X93206666Y-80978628D02*
X92825714Y-80978628D01*
X94349523Y-81454819D02*
X93778095Y-81454819D01*
X94063809Y-81454819D02*
X94063809Y-80454819D01*
X94063809Y-80454819D02*
X93968571Y-80597676D01*
X93968571Y-80597676D02*
X93873333Y-80692914D01*
X93873333Y-80692914D02*
X93778095Y-80740533D01*
X95206666Y-80454819D02*
X95016190Y-80454819D01*
X95016190Y-80454819D02*
X94920952Y-80502438D01*
X94920952Y-80502438D02*
X94873333Y-80550057D01*
X94873333Y-80550057D02*
X94778095Y-80692914D01*
X94778095Y-80692914D02*
X94730476Y-80883390D01*
X94730476Y-80883390D02*
X94730476Y-81264342D01*
X94730476Y-81264342D02*
X94778095Y-81359580D01*
X94778095Y-81359580D02*
X94825714Y-81407200D01*
X94825714Y-81407200D02*
X94920952Y-81454819D01*
X94920952Y-81454819D02*
X95111428Y-81454819D01*
X95111428Y-81454819D02*
X95206666Y-81407200D01*
X95206666Y-81407200D02*
X95254285Y-81359580D01*
X95254285Y-81359580D02*
X95301904Y-81264342D01*
X95301904Y-81264342D02*
X95301904Y-81026247D01*
X95301904Y-81026247D02*
X95254285Y-80931009D01*
X95254285Y-80931009D02*
X95206666Y-80883390D01*
X95206666Y-80883390D02*
X95111428Y-80835771D01*
X95111428Y-80835771D02*
X94920952Y-80835771D01*
X94920952Y-80835771D02*
X94825714Y-80883390D01*
X94825714Y-80883390D02*
X94778095Y-80931009D01*
X94778095Y-80931009D02*
X94730476Y-81026247D01*
X74833333Y-105359580D02*
X74785714Y-105407200D01*
X74785714Y-105407200D02*
X74642857Y-105454819D01*
X74642857Y-105454819D02*
X74547619Y-105454819D01*
X74547619Y-105454819D02*
X74404762Y-105407200D01*
X74404762Y-105407200D02*
X74309524Y-105311961D01*
X74309524Y-105311961D02*
X74261905Y-105216723D01*
X74261905Y-105216723D02*
X74214286Y-105026247D01*
X74214286Y-105026247D02*
X74214286Y-104883390D01*
X74214286Y-104883390D02*
X74261905Y-104692914D01*
X74261905Y-104692914D02*
X74309524Y-104597676D01*
X74309524Y-104597676D02*
X74404762Y-104502438D01*
X74404762Y-104502438D02*
X74547619Y-104454819D01*
X74547619Y-104454819D02*
X74642857Y-104454819D01*
X74642857Y-104454819D02*
X74785714Y-104502438D01*
X74785714Y-104502438D02*
X74833333Y-104550057D01*
X75690476Y-104454819D02*
X75500000Y-104454819D01*
X75500000Y-104454819D02*
X75404762Y-104502438D01*
X75404762Y-104502438D02*
X75357143Y-104550057D01*
X75357143Y-104550057D02*
X75261905Y-104692914D01*
X75261905Y-104692914D02*
X75214286Y-104883390D01*
X75214286Y-104883390D02*
X75214286Y-105264342D01*
X75214286Y-105264342D02*
X75261905Y-105359580D01*
X75261905Y-105359580D02*
X75309524Y-105407200D01*
X75309524Y-105407200D02*
X75404762Y-105454819D01*
X75404762Y-105454819D02*
X75595238Y-105454819D01*
X75595238Y-105454819D02*
X75690476Y-105407200D01*
X75690476Y-105407200D02*
X75738095Y-105359580D01*
X75738095Y-105359580D02*
X75785714Y-105264342D01*
X75785714Y-105264342D02*
X75785714Y-105026247D01*
X75785714Y-105026247D02*
X75738095Y-104931009D01*
X75738095Y-104931009D02*
X75690476Y-104883390D01*
X75690476Y-104883390D02*
X75595238Y-104835771D01*
X75595238Y-104835771D02*
X75404762Y-104835771D01*
X75404762Y-104835771D02*
X75309524Y-104883390D01*
X75309524Y-104883390D02*
X75261905Y-104931009D01*
X75261905Y-104931009D02*
X75214286Y-105026247D01*
X62454819Y-79602857D02*
X61978628Y-79936190D01*
X62454819Y-80174285D02*
X61454819Y-80174285D01*
X61454819Y-80174285D02*
X61454819Y-79793333D01*
X61454819Y-79793333D02*
X61502438Y-79698095D01*
X61502438Y-79698095D02*
X61550057Y-79650476D01*
X61550057Y-79650476D02*
X61645295Y-79602857D01*
X61645295Y-79602857D02*
X61788152Y-79602857D01*
X61788152Y-79602857D02*
X61883390Y-79650476D01*
X61883390Y-79650476D02*
X61931009Y-79698095D01*
X61931009Y-79698095D02*
X61978628Y-79793333D01*
X61978628Y-79793333D02*
X61978628Y-80174285D01*
X62454819Y-78650476D02*
X62454819Y-79221904D01*
X62454819Y-78936190D02*
X61454819Y-78936190D01*
X61454819Y-78936190D02*
X61597676Y-79031428D01*
X61597676Y-79031428D02*
X61692914Y-79126666D01*
X61692914Y-79126666D02*
X61740533Y-79221904D01*
X61454819Y-77745714D02*
X61454819Y-78221904D01*
X61454819Y-78221904D02*
X61931009Y-78269523D01*
X61931009Y-78269523D02*
X61883390Y-78221904D01*
X61883390Y-78221904D02*
X61835771Y-78126666D01*
X61835771Y-78126666D02*
X61835771Y-77888571D01*
X61835771Y-77888571D02*
X61883390Y-77793333D01*
X61883390Y-77793333D02*
X61931009Y-77745714D01*
X61931009Y-77745714D02*
X62026247Y-77698095D01*
X62026247Y-77698095D02*
X62264342Y-77698095D01*
X62264342Y-77698095D02*
X62359580Y-77745714D01*
X62359580Y-77745714D02*
X62407200Y-77793333D01*
X62407200Y-77793333D02*
X62454819Y-77888571D01*
X62454819Y-77888571D02*
X62454819Y-78126666D01*
X62454819Y-78126666D02*
X62407200Y-78221904D01*
X62407200Y-78221904D02*
X62359580Y-78269523D01*
X95454819Y-111333333D02*
X96169104Y-111333333D01*
X96169104Y-111333333D02*
X96311961Y-111380952D01*
X96311961Y-111380952D02*
X96407200Y-111476190D01*
X96407200Y-111476190D02*
X96454819Y-111619047D01*
X96454819Y-111619047D02*
X96454819Y-111714285D01*
X95454819Y-110428571D02*
X95454819Y-110619047D01*
X95454819Y-110619047D02*
X95502438Y-110714285D01*
X95502438Y-110714285D02*
X95550057Y-110761904D01*
X95550057Y-110761904D02*
X95692914Y-110857142D01*
X95692914Y-110857142D02*
X95883390Y-110904761D01*
X95883390Y-110904761D02*
X96264342Y-110904761D01*
X96264342Y-110904761D02*
X96359580Y-110857142D01*
X96359580Y-110857142D02*
X96407200Y-110809523D01*
X96407200Y-110809523D02*
X96454819Y-110714285D01*
X96454819Y-110714285D02*
X96454819Y-110523809D01*
X96454819Y-110523809D02*
X96407200Y-110428571D01*
X96407200Y-110428571D02*
X96359580Y-110380952D01*
X96359580Y-110380952D02*
X96264342Y-110333333D01*
X96264342Y-110333333D02*
X96026247Y-110333333D01*
X96026247Y-110333333D02*
X95931009Y-110380952D01*
X95931009Y-110380952D02*
X95883390Y-110428571D01*
X95883390Y-110428571D02*
X95835771Y-110523809D01*
X95835771Y-110523809D02*
X95835771Y-110714285D01*
X95835771Y-110714285D02*
X95883390Y-110809523D01*
X95883390Y-110809523D02*
X95931009Y-110857142D01*
X95931009Y-110857142D02*
X96026247Y-110904761D01*
X98373333Y-77454819D02*
X98040000Y-76978628D01*
X97801905Y-77454819D02*
X97801905Y-76454819D01*
X97801905Y-76454819D02*
X98182857Y-76454819D01*
X98182857Y-76454819D02*
X98278095Y-76502438D01*
X98278095Y-76502438D02*
X98325714Y-76550057D01*
X98325714Y-76550057D02*
X98373333Y-76645295D01*
X98373333Y-76645295D02*
X98373333Y-76788152D01*
X98373333Y-76788152D02*
X98325714Y-76883390D01*
X98325714Y-76883390D02*
X98278095Y-76931009D01*
X98278095Y-76931009D02*
X98182857Y-76978628D01*
X98182857Y-76978628D02*
X97801905Y-76978628D01*
X99230476Y-76788152D02*
X99230476Y-77454819D01*
X98992381Y-76407200D02*
X98754286Y-77121485D01*
X98754286Y-77121485D02*
X99373333Y-77121485D01*
X53897142Y-104454819D02*
X53563809Y-103978628D01*
X53325714Y-104454819D02*
X53325714Y-103454819D01*
X53325714Y-103454819D02*
X53706666Y-103454819D01*
X53706666Y-103454819D02*
X53801904Y-103502438D01*
X53801904Y-103502438D02*
X53849523Y-103550057D01*
X53849523Y-103550057D02*
X53897142Y-103645295D01*
X53897142Y-103645295D02*
X53897142Y-103788152D01*
X53897142Y-103788152D02*
X53849523Y-103883390D01*
X53849523Y-103883390D02*
X53801904Y-103931009D01*
X53801904Y-103931009D02*
X53706666Y-103978628D01*
X53706666Y-103978628D02*
X53325714Y-103978628D01*
X54849523Y-104454819D02*
X54278095Y-104454819D01*
X54563809Y-104454819D02*
X54563809Y-103454819D01*
X54563809Y-103454819D02*
X54468571Y-103597676D01*
X54468571Y-103597676D02*
X54373333Y-103692914D01*
X54373333Y-103692914D02*
X54278095Y-103740533D01*
X55182857Y-103454819D02*
X55849523Y-103454819D01*
X55849523Y-103454819D02*
X55420952Y-104454819D01*
X93761905Y-122954820D02*
X93761905Y-121954820D01*
X93761905Y-121954820D02*
X94000000Y-121954820D01*
X94000000Y-121954820D02*
X94142857Y-122002439D01*
X94142857Y-122002439D02*
X94238095Y-122097677D01*
X94238095Y-122097677D02*
X94285714Y-122192915D01*
X94285714Y-122192915D02*
X94333333Y-122383391D01*
X94333333Y-122383391D02*
X94333333Y-122526248D01*
X94333333Y-122526248D02*
X94285714Y-122716724D01*
X94285714Y-122716724D02*
X94238095Y-122811962D01*
X94238095Y-122811962D02*
X94142857Y-122907201D01*
X94142857Y-122907201D02*
X94000000Y-122954820D01*
X94000000Y-122954820D02*
X93761905Y-122954820D01*
X95285714Y-122954820D02*
X94714286Y-122954820D01*
X95000000Y-122954820D02*
X95000000Y-121954820D01*
X95000000Y-121954820D02*
X94904762Y-122097677D01*
X94904762Y-122097677D02*
X94809524Y-122192915D01*
X94809524Y-122192915D02*
X94714286Y-122240534D01*
X110034819Y-128809523D02*
X110749104Y-128809523D01*
X110749104Y-128809523D02*
X110891961Y-128857142D01*
X110891961Y-128857142D02*
X110987200Y-128952380D01*
X110987200Y-128952380D02*
X111034819Y-129095237D01*
X111034819Y-129095237D02*
X111034819Y-129190475D01*
X111034819Y-127809523D02*
X111034819Y-128380951D01*
X111034819Y-128095237D02*
X110034819Y-128095237D01*
X110034819Y-128095237D02*
X110177676Y-128190475D01*
X110177676Y-128190475D02*
X110272914Y-128285713D01*
X110272914Y-128285713D02*
X110320533Y-128380951D01*
X110034819Y-126952380D02*
X110034819Y-127142856D01*
X110034819Y-127142856D02*
X110082438Y-127238094D01*
X110082438Y-127238094D02*
X110130057Y-127285713D01*
X110130057Y-127285713D02*
X110272914Y-127380951D01*
X110272914Y-127380951D02*
X110463390Y-127428570D01*
X110463390Y-127428570D02*
X110844342Y-127428570D01*
X110844342Y-127428570D02*
X110939580Y-127380951D01*
X110939580Y-127380951D02*
X110987200Y-127333332D01*
X110987200Y-127333332D02*
X111034819Y-127238094D01*
X111034819Y-127238094D02*
X111034819Y-127047618D01*
X111034819Y-127047618D02*
X110987200Y-126952380D01*
X110987200Y-126952380D02*
X110939580Y-126904761D01*
X110939580Y-126904761D02*
X110844342Y-126857142D01*
X110844342Y-126857142D02*
X110606247Y-126857142D01*
X110606247Y-126857142D02*
X110511009Y-126904761D01*
X110511009Y-126904761D02*
X110463390Y-126952380D01*
X110463390Y-126952380D02*
X110415771Y-127047618D01*
X110415771Y-127047618D02*
X110415771Y-127238094D01*
X110415771Y-127238094D02*
X110463390Y-127333332D01*
X110463390Y-127333332D02*
X110511009Y-127380951D01*
X110511009Y-127380951D02*
X110606247Y-127428570D01*
X86166666Y-107454819D02*
X86166666Y-108169104D01*
X86166666Y-108169104D02*
X86119047Y-108311961D01*
X86119047Y-108311961D02*
X86023809Y-108407200D01*
X86023809Y-108407200D02*
X85880952Y-108454819D01*
X85880952Y-108454819D02*
X85785714Y-108454819D01*
X87071428Y-107788152D02*
X87071428Y-108454819D01*
X86833333Y-107407200D02*
X86595238Y-108121485D01*
X86595238Y-108121485D02*
X87214285Y-108121485D01*
X81833333Y-102359580D02*
X81785714Y-102407200D01*
X81785714Y-102407200D02*
X81642857Y-102454819D01*
X81642857Y-102454819D02*
X81547619Y-102454819D01*
X81547619Y-102454819D02*
X81404762Y-102407200D01*
X81404762Y-102407200D02*
X81309524Y-102311961D01*
X81309524Y-102311961D02*
X81261905Y-102216723D01*
X81261905Y-102216723D02*
X81214286Y-102026247D01*
X81214286Y-102026247D02*
X81214286Y-101883390D01*
X81214286Y-101883390D02*
X81261905Y-101692914D01*
X81261905Y-101692914D02*
X81309524Y-101597676D01*
X81309524Y-101597676D02*
X81404762Y-101502438D01*
X81404762Y-101502438D02*
X81547619Y-101454819D01*
X81547619Y-101454819D02*
X81642857Y-101454819D01*
X81642857Y-101454819D02*
X81785714Y-101502438D01*
X81785714Y-101502438D02*
X81833333Y-101550057D01*
X82309524Y-102454819D02*
X82500000Y-102454819D01*
X82500000Y-102454819D02*
X82595238Y-102407200D01*
X82595238Y-102407200D02*
X82642857Y-102359580D01*
X82642857Y-102359580D02*
X82738095Y-102216723D01*
X82738095Y-102216723D02*
X82785714Y-102026247D01*
X82785714Y-102026247D02*
X82785714Y-101645295D01*
X82785714Y-101645295D02*
X82738095Y-101550057D01*
X82738095Y-101550057D02*
X82690476Y-101502438D01*
X82690476Y-101502438D02*
X82595238Y-101454819D01*
X82595238Y-101454819D02*
X82404762Y-101454819D01*
X82404762Y-101454819D02*
X82309524Y-101502438D01*
X82309524Y-101502438D02*
X82261905Y-101550057D01*
X82261905Y-101550057D02*
X82214286Y-101645295D01*
X82214286Y-101645295D02*
X82214286Y-101883390D01*
X82214286Y-101883390D02*
X82261905Y-101978628D01*
X82261905Y-101978628D02*
X82309524Y-102026247D01*
X82309524Y-102026247D02*
X82404762Y-102073866D01*
X82404762Y-102073866D02*
X82595238Y-102073866D01*
X82595238Y-102073866D02*
X82690476Y-102026247D01*
X82690476Y-102026247D02*
X82738095Y-101978628D01*
X82738095Y-101978628D02*
X82785714Y-101883390D01*
X79731666Y-125454819D02*
X79731666Y-126169104D01*
X79731666Y-126169104D02*
X79684047Y-126311961D01*
X79684047Y-126311961D02*
X79588809Y-126407200D01*
X79588809Y-126407200D02*
X79445952Y-126454819D01*
X79445952Y-126454819D02*
X79350714Y-126454819D01*
X80731666Y-126454819D02*
X80160238Y-126454819D01*
X80445952Y-126454819D02*
X80445952Y-125454819D01*
X80445952Y-125454819D02*
X80350714Y-125597676D01*
X80350714Y-125597676D02*
X80255476Y-125692914D01*
X80255476Y-125692914D02*
X80160238Y-125740533D01*
X108454819Y-59166666D02*
X107978628Y-59499999D01*
X108454819Y-59738094D02*
X107454819Y-59738094D01*
X107454819Y-59738094D02*
X107454819Y-59357142D01*
X107454819Y-59357142D02*
X107502438Y-59261904D01*
X107502438Y-59261904D02*
X107550057Y-59214285D01*
X107550057Y-59214285D02*
X107645295Y-59166666D01*
X107645295Y-59166666D02*
X107788152Y-59166666D01*
X107788152Y-59166666D02*
X107883390Y-59214285D01*
X107883390Y-59214285D02*
X107931009Y-59261904D01*
X107931009Y-59261904D02*
X107978628Y-59357142D01*
X107978628Y-59357142D02*
X107978628Y-59738094D01*
X107454819Y-58833332D02*
X107454819Y-58214285D01*
X107454819Y-58214285D02*
X107835771Y-58547618D01*
X107835771Y-58547618D02*
X107835771Y-58404761D01*
X107835771Y-58404761D02*
X107883390Y-58309523D01*
X107883390Y-58309523D02*
X107931009Y-58261904D01*
X107931009Y-58261904D02*
X108026247Y-58214285D01*
X108026247Y-58214285D02*
X108264342Y-58214285D01*
X108264342Y-58214285D02*
X108359580Y-58261904D01*
X108359580Y-58261904D02*
X108407200Y-58309523D01*
X108407200Y-58309523D02*
X108454819Y-58404761D01*
X108454819Y-58404761D02*
X108454819Y-58690475D01*
X108454819Y-58690475D02*
X108407200Y-58785713D01*
X108407200Y-58785713D02*
X108359580Y-58833332D01*
D12*
%TO.C,J8*%
X52120000Y-51310000D02*
X53500000Y-51310000D01*
X52120000Y-52690000D02*
X52120000Y-51310000D01*
X52120000Y-53960000D02*
X52120000Y-61690000D01*
X52120000Y-53960000D02*
X54880000Y-53960000D01*
X52120000Y-61690000D02*
X54880000Y-61690000D01*
X54880000Y-53960000D02*
X54880000Y-61690000D01*
%TO.C,C5*%
X78230000Y-109930000D02*
X82770000Y-109930000D01*
X78230000Y-109986000D02*
X78230000Y-109930000D01*
X82770000Y-112014000D02*
X82770000Y-112070000D01*
X82770000Y-112070000D02*
X78230000Y-112070000D01*
%TO.C,J9*%
X112620000Y-59270000D02*
X112620000Y-51540000D01*
X115380000Y-51540000D02*
X112620000Y-51540000D01*
X115380000Y-59270000D02*
X112620000Y-59270000D01*
X115380000Y-59270000D02*
X115380000Y-51540000D01*
X115380000Y-60540000D02*
X115380000Y-61920000D01*
X115380000Y-61920000D02*
X114000000Y-61920000D01*
%TO.C,R23*%
X85960000Y-76580000D02*
X82120000Y-76580000D01*
X85960000Y-78420000D02*
X82120000Y-78420000D01*
%TO.C,R9*%
X89920000Y-115580000D02*
X86080000Y-115580000D01*
X89920000Y-117420000D02*
X86080000Y-117420000D01*
%TO.C,C3*%
X59730000Y-107930000D02*
X64270000Y-107930000D01*
X59730000Y-107986000D02*
X59730000Y-107930000D01*
X64270000Y-110014000D02*
X64270000Y-110070000D01*
X64270000Y-110070000D02*
X59730000Y-110070000D01*
%TO.C,R5*%
X94580000Y-69580000D02*
X94580000Y-73420000D01*
X96420000Y-69580000D02*
X96420000Y-73420000D01*
%TO.C,J2*%
X109620000Y-67845000D02*
X111000000Y-67845000D01*
X109620000Y-69225000D02*
X109620000Y-67845000D01*
X109620000Y-70495000D02*
X109620000Y-73145000D01*
X109620000Y-70495000D02*
X112380000Y-70495000D01*
X109620000Y-73145000D02*
X112380000Y-73145000D01*
X112380000Y-70495000D02*
X112380000Y-73145000D01*
%TO.C,C1*%
X111230000Y-104430000D02*
X115770000Y-104430000D01*
X111230000Y-104486000D02*
X111230000Y-104430000D01*
X115770000Y-106514000D02*
X115770000Y-106570000D01*
X115770000Y-106570000D02*
X111230000Y-106570000D01*
%TO.C,R13*%
X67380000Y-71580000D02*
X63540000Y-71580000D01*
X67380000Y-73420000D02*
X63540000Y-73420000D01*
%TO.C,U4*%
X50880000Y-84980000D02*
X58500000Y-84980000D01*
X50880000Y-101220000D02*
X50880000Y-84980000D01*
X58500000Y-101220000D02*
X50880000Y-101220000D01*
X74500000Y-84980000D02*
X75120000Y-84980000D01*
X75120000Y-84980000D02*
X75120000Y-87100000D01*
X75120000Y-99100000D02*
X75120000Y-101220000D01*
X75120000Y-101220000D02*
X74500000Y-101220000D01*
X58500000Y-101650000D02*
X58164000Y-101890000D01*
X58164000Y-101410000D01*
X58500000Y-101650000D01*
G36*
X58500000Y-101650000D02*
G01*
X58164000Y-101890000D01*
X58164000Y-101410000D01*
X58500000Y-101650000D01*
G37*
%TO.C,J15*%
X97450000Y-122200000D02*
X97450000Y-123500000D01*
X97750000Y-122500000D02*
X99750000Y-122500000D01*
X97750000Y-137000000D02*
X97750000Y-122500000D01*
X99150000Y-122200000D02*
X97450000Y-122200000D01*
X104950000Y-122500000D02*
X106950000Y-122500000D01*
X106950000Y-122500000D02*
X106950000Y-123800000D01*
X106950000Y-128400000D02*
X106950000Y-137000000D01*
X106950000Y-137000000D02*
X97750000Y-137000000D01*
%TO.C,J7*%
X92120000Y-116230000D02*
X92120000Y-113580000D01*
X94880000Y-113580000D02*
X92120000Y-113580000D01*
X94880000Y-116230000D02*
X92120000Y-116230000D01*
X94880000Y-116230000D02*
X94880000Y-113580000D01*
X94880000Y-117500000D02*
X94880000Y-118880000D01*
X94880000Y-118880000D02*
X93500000Y-118880000D01*
%TO.C,U2*%
X104475000Y-69035000D02*
X102525000Y-69035000D01*
X104475000Y-69035000D02*
X106425000Y-69035000D01*
X104475000Y-74155000D02*
X102525000Y-74155000D01*
X104475000Y-74155000D02*
X106425000Y-74155000D01*
X101775000Y-69130000D02*
X101535000Y-68800000D01*
X102015000Y-68800000D01*
X101775000Y-69130000D01*
G36*
X101775000Y-69130000D02*
G01*
X101535000Y-68800000D01*
X102015000Y-68800000D01*
X101775000Y-69130000D01*
G37*
%TO.C,J12*%
X79620000Y-90530000D02*
X79620000Y-93290000D01*
X84810000Y-90530000D02*
X79620000Y-90530000D01*
X84810000Y-90530000D02*
X84810000Y-93290000D01*
X84810000Y-93290000D02*
X79620000Y-93290000D01*
X86080000Y-90530000D02*
X87460000Y-90530000D01*
X87460000Y-90530000D02*
X87460000Y-91910000D01*
%TO.C,Y1*%
X71565000Y-116700000D02*
X71565000Y-110300000D01*
X76435000Y-110300000D02*
X76435000Y-116700000D01*
X71565000Y-110300000D02*
G75*
G02*
X76435000Y-110300000I2435000J0D01*
G01*
X76435000Y-116700000D02*
G75*
G02*
X71565000Y-116700000I-2435000J0D01*
G01*
%TO.C,D3*%
X92940000Y-127264000D02*
X92940000Y-127420000D01*
X92940000Y-129580000D02*
X92940000Y-129736000D01*
X92940000Y-127264484D02*
G75*
G02*
X96171437Y-127420000I1560000J-1235516D01*
G01*
X93459039Y-127420000D02*
G75*
G02*
X95540961Y-127420000I1040961J-1080000D01*
G01*
X95540961Y-129580000D02*
G75*
G02*
X93459039Y-129580000I-1040961J1080000D01*
G01*
X96171437Y-129580000D02*
G75*
G02*
X92940000Y-129735516I-1671437J1080000D01*
G01*
%TO.C,R10*%
X89920000Y-113080000D02*
X86080000Y-113080000D01*
X89920000Y-114920000D02*
X86080000Y-114920000D01*
%TO.C,D5*%
X69260000Y-68500000D02*
X70280000Y-68500000D01*
X71060000Y-67030000D02*
X71060000Y-69970000D01*
X71180000Y-67030000D02*
X71180000Y-69970000D01*
X71300000Y-67030000D02*
X71300000Y-69970000D01*
X76740000Y-68500000D02*
X75720000Y-68500000D01*
X70280000Y-67030000D02*
X75720000Y-67030000D01*
X75720000Y-69970000D01*
X70280000Y-69970000D01*
X70280000Y-67030000D01*
%TO.C,C12*%
X111230000Y-107430000D02*
X115770000Y-107430000D01*
X111230000Y-107486000D02*
X111230000Y-107430000D01*
X115770000Y-109514000D02*
X115770000Y-109570000D01*
X115770000Y-109570000D02*
X111230000Y-109570000D01*
%TO.C,R21*%
X85960000Y-73580000D02*
X82120000Y-73580000D01*
X85960000Y-75420000D02*
X82120000Y-75420000D01*
%TO.C,J18*%
X50620000Y-66080000D02*
X52000000Y-66080000D01*
X50620000Y-67460000D02*
X50620000Y-66080000D01*
X50620000Y-68730000D02*
X50620000Y-79000000D01*
X50620000Y-68730000D02*
X53380000Y-68730000D01*
X50620000Y-79000000D02*
X53380000Y-79000000D01*
X53380000Y-68730000D02*
X53380000Y-79000000D01*
%TO.C,U1*%
X91880000Y-84780000D02*
X91880000Y-85780000D01*
X91880000Y-103020000D02*
X91880000Y-102020000D01*
X92660000Y-84780000D02*
X91880000Y-84780000D01*
X92660000Y-103020000D02*
X91880000Y-103020000D01*
X117620000Y-84780000D02*
X111460000Y-84780000D01*
X117620000Y-84780000D02*
X117620000Y-103020000D01*
X117620000Y-103020000D02*
X111205000Y-103020000D01*
X111235000Y-84775000D02*
X110735000Y-84775000D01*
X110735000Y-84275000D01*
X111235000Y-84775000D01*
G36*
X111235000Y-84775000D02*
G01*
X110735000Y-84775000D01*
X110735000Y-84275000D01*
X111235000Y-84775000D01*
G37*
%TO.C,C13*%
X72930000Y-61270000D02*
X72930000Y-56730000D01*
X72986000Y-61270000D02*
X72930000Y-61270000D01*
X75014000Y-56730000D02*
X75070000Y-56730000D01*
X75070000Y-56730000D02*
X75070000Y-61270000D01*
%TO.C,R18*%
X78580000Y-119580000D02*
X82420000Y-119580000D01*
X78580000Y-121420000D02*
X82420000Y-121420000D01*
%TO.C,C11*%
X92460000Y-60577349D02*
X89695000Y-60577349D01*
X92460000Y-60617349D02*
X89711000Y-60617349D01*
X92460000Y-60657349D02*
X89727000Y-60657349D01*
X92460000Y-60697349D02*
X89743000Y-60697349D01*
X92460000Y-60737349D02*
X89760000Y-60737349D01*
X92460000Y-60777349D02*
X89778000Y-60777349D01*
X92460000Y-60817349D02*
X89796000Y-60817349D01*
X92460000Y-60857349D02*
X89815000Y-60857349D01*
X92460000Y-60897349D02*
X89834000Y-60897349D01*
X92460000Y-60937349D02*
X89854000Y-60937349D01*
X92460000Y-60977349D02*
X89874000Y-60977349D01*
X92460000Y-61017349D02*
X89895000Y-61017349D01*
X92460000Y-61057349D02*
X89916000Y-61057349D01*
X92460000Y-61097349D02*
X89938000Y-61097349D01*
X92460000Y-61137349D02*
X89961000Y-61137349D01*
X92460000Y-61177349D02*
X89984000Y-61177349D01*
X92460000Y-61217349D02*
X90007000Y-61217349D01*
X92460000Y-61257349D02*
X90032000Y-61257349D01*
X92460000Y-61297349D02*
X90057000Y-61297349D01*
X92460000Y-61337349D02*
X90082000Y-61337349D01*
X92460000Y-61377349D02*
X90108000Y-61377349D01*
X92460000Y-61417349D02*
X90135000Y-61417349D01*
X92460000Y-61457349D02*
X90163000Y-61457349D01*
X92460000Y-61497349D02*
X90191000Y-61497349D01*
X92460000Y-61537349D02*
X90220000Y-61537349D01*
X92460000Y-61577349D02*
X90250000Y-61577349D01*
X92460000Y-61617349D02*
X90281000Y-61617349D01*
X92460000Y-61657349D02*
X90312000Y-61657349D01*
X92460000Y-61697349D02*
X90344000Y-61697349D01*
X92460000Y-61737349D02*
X90377000Y-61737349D01*
X92460000Y-61777349D02*
X90411000Y-61777349D01*
X92460000Y-61817349D02*
X90445000Y-61817349D01*
X92460000Y-61857349D02*
X90481000Y-61857349D01*
X92460000Y-61897349D02*
X90518000Y-61897349D01*
X92460000Y-61937349D02*
X90555000Y-61937349D01*
X92460000Y-61977349D02*
X90594000Y-61977349D01*
X92460000Y-62017349D02*
X90633000Y-62017349D01*
X92460000Y-62057349D02*
X90674000Y-62057349D01*
X92460000Y-62097349D02*
X90716000Y-62097349D01*
X92460000Y-62137349D02*
X90759000Y-62137349D01*
X92460000Y-62177349D02*
X90804000Y-62177349D01*
X92460000Y-62217349D02*
X90849000Y-62217349D01*
X92460000Y-62257349D02*
X90896000Y-62257349D01*
X92460000Y-62297349D02*
X90945000Y-62297349D01*
X92460000Y-62337349D02*
X90995000Y-62337349D01*
X92460000Y-62377349D02*
X91047000Y-62377349D01*
X92460000Y-62417349D02*
X91100000Y-62417349D01*
X92460000Y-62457349D02*
X91156000Y-62457349D01*
X92460000Y-62497349D02*
X91213000Y-62497349D01*
X92460000Y-62537349D02*
X91273000Y-62537349D01*
X92460000Y-62577349D02*
X91335000Y-62577349D01*
X92460000Y-62617349D02*
X91399000Y-62617349D01*
X94033000Y-63177349D02*
X92967000Y-63177349D01*
X94268000Y-63137349D02*
X92732000Y-63137349D01*
X94447000Y-63097349D02*
X92553000Y-63097349D01*
X94597000Y-63057349D02*
X92403000Y-63057349D01*
X94728000Y-63017349D02*
X92272000Y-63017349D01*
X94846000Y-62977349D02*
X92154000Y-62977349D01*
X94953000Y-62937349D02*
X92047000Y-62937349D01*
X95052000Y-62897349D02*
X91948000Y-62897349D01*
X95144000Y-62857349D02*
X91856000Y-62857349D01*
X95231000Y-62817349D02*
X91769000Y-62817349D01*
X95313000Y-62777349D02*
X91687000Y-62777349D01*
X95390000Y-62737349D02*
X91610000Y-62737349D01*
X95464000Y-62697349D02*
X91536000Y-62697349D01*
X95534000Y-62657349D02*
X91466000Y-62657349D01*
X95601000Y-62617349D02*
X94540000Y-62617349D01*
X95665000Y-62577349D02*
X94540000Y-62577349D01*
X95727000Y-62537349D02*
X94540000Y-62537349D01*
X95787000Y-62497349D02*
X94540000Y-62497349D01*
X95815000Y-54687651D02*
X95815000Y-55487651D01*
X95844000Y-62457349D02*
X94540000Y-62457349D01*
X95900000Y-62417349D02*
X94540000Y-62417349D01*
X95953000Y-62377349D02*
X94540000Y-62377349D01*
X96005000Y-62337349D02*
X94540000Y-62337349D01*
X96055000Y-62297349D02*
X94540000Y-62297349D01*
X96104000Y-62257349D02*
X94540000Y-62257349D01*
X96151000Y-62217349D02*
X94540000Y-62217349D01*
X96196000Y-62177349D02*
X94540000Y-62177349D01*
X96215000Y-55087651D02*
X95415000Y-55087651D01*
X96241000Y-62137349D02*
X94540000Y-62137349D01*
X96284000Y-62097349D02*
X94540000Y-62097349D01*
X96326000Y-62057349D02*
X94540000Y-62057349D01*
X96367000Y-62017349D02*
X94540000Y-62017349D01*
X96406000Y-61977349D02*
X94540000Y-61977349D01*
X96445000Y-61937349D02*
X94540000Y-61937349D01*
X96482000Y-61897349D02*
X94540000Y-61897349D01*
X96519000Y-61857349D02*
X94540000Y-61857349D01*
X96555000Y-61817349D02*
X94540000Y-61817349D01*
X96589000Y-61777349D02*
X94540000Y-61777349D01*
X96623000Y-61737349D02*
X94540000Y-61737349D01*
X96656000Y-61697349D02*
X94540000Y-61697349D01*
X96688000Y-61657349D02*
X94540000Y-61657349D01*
X96719000Y-61617349D02*
X94540000Y-61617349D01*
X96750000Y-61577349D02*
X94540000Y-61577349D01*
X96780000Y-61537349D02*
X94540000Y-61537349D01*
X96809000Y-61497349D02*
X94540000Y-61497349D01*
X96837000Y-61457349D02*
X94540000Y-61457349D01*
X96865000Y-61417349D02*
X94540000Y-61417349D01*
X96892000Y-61377349D02*
X94540000Y-61377349D01*
X96918000Y-61337349D02*
X94540000Y-61337349D01*
X96943000Y-61297349D02*
X94540000Y-61297349D01*
X96968000Y-61257349D02*
X94540000Y-61257349D01*
X96993000Y-61217349D02*
X94540000Y-61217349D01*
X97016000Y-61177349D02*
X94540000Y-61177349D01*
X97039000Y-61137349D02*
X94540000Y-61137349D01*
X97062000Y-61097349D02*
X94540000Y-61097349D01*
X97084000Y-61057349D02*
X94540000Y-61057349D01*
X97105000Y-61017349D02*
X94540000Y-61017349D01*
X97126000Y-60977349D02*
X94540000Y-60977349D01*
X97146000Y-60937349D02*
X94540000Y-60937349D01*
X97166000Y-60897349D02*
X94540000Y-60897349D01*
X97185000Y-60857349D02*
X94540000Y-60857349D01*
X97204000Y-60817349D02*
X94540000Y-60817349D01*
X97222000Y-60777349D02*
X94540000Y-60777349D01*
X97240000Y-60737349D02*
X94540000Y-60737349D01*
X97257000Y-60697349D02*
X94540000Y-60697349D01*
X97273000Y-60657349D02*
X94540000Y-60657349D01*
X97289000Y-60617349D02*
X94540000Y-60617349D01*
X97305000Y-60577349D02*
X94540000Y-60577349D01*
X97320000Y-60537349D02*
X89680000Y-60537349D01*
X97335000Y-60497349D02*
X89665000Y-60497349D01*
X97349000Y-60457349D02*
X89651000Y-60457349D01*
X97363000Y-60417349D02*
X89637000Y-60417349D01*
X97376000Y-60377349D02*
X89624000Y-60377349D01*
X97389000Y-60337349D02*
X89611000Y-60337349D01*
X97401000Y-60297349D02*
X89599000Y-60297349D01*
X97413000Y-60257349D02*
X89587000Y-60257349D01*
X97425000Y-60217349D02*
X89575000Y-60217349D01*
X97436000Y-60177349D02*
X89564000Y-60177349D01*
X97447000Y-60137349D02*
X89553000Y-60137349D01*
X97457000Y-60097349D02*
X89543000Y-60097349D01*
X97467000Y-60057349D02*
X89533000Y-60057349D01*
X97476000Y-60017349D02*
X89524000Y-60017349D01*
X97485000Y-59977349D02*
X89515000Y-59977349D01*
X97493000Y-59937349D02*
X89507000Y-59937349D01*
X97502000Y-59897349D02*
X89498000Y-59897349D01*
X97509000Y-59857349D02*
X89491000Y-59857349D01*
X97517000Y-59817349D02*
X89483000Y-59817349D01*
X97523000Y-59777349D02*
X89477000Y-59777349D01*
X97530000Y-59737349D02*
X89470000Y-59737349D01*
X97536000Y-59697349D02*
X89464000Y-59697349D01*
X97542000Y-59657349D02*
X89458000Y-59657349D01*
X97547000Y-59617349D02*
X89453000Y-59617349D01*
X97552000Y-59577349D02*
X89448000Y-59577349D01*
X97556000Y-59537349D02*
X89444000Y-59537349D01*
X97561000Y-59497349D02*
X89439000Y-59497349D01*
X97564000Y-59457349D02*
X89436000Y-59457349D01*
X97568000Y-59417349D02*
X89432000Y-59417349D01*
X97570000Y-59377349D02*
X89430000Y-59377349D01*
X97573000Y-59337349D02*
X89427000Y-59337349D01*
X97575000Y-59297349D02*
X89425000Y-59297349D01*
X97577000Y-59257349D02*
X89423000Y-59257349D01*
X97578000Y-59217349D02*
X89422000Y-59217349D01*
X97579000Y-59177349D02*
X89421000Y-59177349D01*
X97580000Y-59097349D02*
X89420000Y-59097349D01*
X97580000Y-59137349D02*
X89420000Y-59137349D01*
X97620000Y-59097349D02*
G75*
G02*
X89380000Y-59097349I-4120000J0D01*
G01*
X89380000Y-59097349D02*
G75*
G02*
X97620000Y-59097349I4120000J0D01*
G01*
%TO.C,R12*%
X68580000Y-108960000D02*
X68580000Y-105120000D01*
X70420000Y-108960000D02*
X70420000Y-105120000D01*
%TO.C,J11*%
X79620000Y-85940000D02*
X79620000Y-88700000D01*
X84810000Y-85940000D02*
X79620000Y-85940000D01*
X84810000Y-85940000D02*
X84810000Y-88700000D01*
X84810000Y-88700000D02*
X79620000Y-88700000D01*
X86080000Y-85940000D02*
X87460000Y-85940000D01*
X87460000Y-85940000D02*
X87460000Y-87320000D01*
%TO.C,BZ1*%
X79300000Y-76500000D02*
G75*
G02*
X67100000Y-76500000I-6100000J0D01*
G01*
X67100000Y-76500000D02*
G75*
G02*
X79300000Y-76500000I6100000J0D01*
G01*
%TO.C,R1*%
X103080000Y-78120000D02*
X103080000Y-81960000D01*
X104920000Y-78120000D02*
X104920000Y-81960000D01*
%TO.C,C4*%
X78230000Y-112430000D02*
X82770000Y-112430000D01*
X78230000Y-112486000D02*
X78230000Y-112430000D01*
X82770000Y-114514000D02*
X82770000Y-114570000D01*
X82770000Y-114570000D02*
X78230000Y-114570000D01*
%TO.C,J14*%
X114620000Y-67080000D02*
X116000000Y-67080000D01*
X114620000Y-68460000D02*
X114620000Y-67080000D01*
X114620000Y-69730000D02*
X114620000Y-82540000D01*
X114620000Y-69730000D02*
X117380000Y-69730000D01*
X114620000Y-82540000D02*
X117380000Y-82540000D01*
X117380000Y-69730000D02*
X117380000Y-82540000D01*
%TO.C,J5*%
X61890000Y-120362500D02*
X61890000Y-124112500D01*
X61890000Y-120362500D02*
X74110000Y-120362500D01*
X61890000Y-136982500D02*
X61890000Y-129012500D01*
X61890000Y-136982500D02*
X74110000Y-136982500D01*
X68750000Y-119662500D02*
X69250000Y-120162500D01*
X69250000Y-120162500D02*
X69750000Y-119662500D01*
X69750000Y-119662500D02*
X68750000Y-119662500D01*
X74110000Y-120362500D02*
X74110000Y-124112500D01*
X74110000Y-136982500D02*
X74110000Y-129012500D01*
%TO.C,C10*%
X109090302Y-113685000D02*
X109890302Y-113685000D01*
X109490302Y-113285000D02*
X109490302Y-114085000D01*
X113500000Y-111920000D02*
X113500000Y-120080000D01*
X113540000Y-111920000D02*
X113540000Y-120080000D01*
X113580000Y-111921000D02*
X113580000Y-120079000D01*
X113620000Y-111922000D02*
X113620000Y-120078000D01*
X113660000Y-111923000D02*
X113660000Y-120077000D01*
X113700000Y-111925000D02*
X113700000Y-120075000D01*
X113740000Y-111927000D02*
X113740000Y-120073000D01*
X113780000Y-111930000D02*
X113780000Y-120070000D01*
X113820000Y-111932000D02*
X113820000Y-120068000D01*
X113860000Y-111936000D02*
X113860000Y-120064000D01*
X113900000Y-111939000D02*
X113900000Y-120061000D01*
X113940000Y-111944000D02*
X113940000Y-120056000D01*
X113980000Y-111948000D02*
X113980000Y-120052000D01*
X114020000Y-111953000D02*
X114020000Y-120047000D01*
X114060000Y-111958000D02*
X114060000Y-120042000D01*
X114100000Y-111964000D02*
X114100000Y-120036000D01*
X114140000Y-111970000D02*
X114140000Y-120030000D01*
X114180000Y-111977000D02*
X114180000Y-120023000D01*
X114220000Y-111983000D02*
X114220000Y-120017000D01*
X114260000Y-111991000D02*
X114260000Y-120009000D01*
X114300000Y-111998000D02*
X114300000Y-120002000D01*
X114340000Y-112007000D02*
X114340000Y-119993000D01*
X114380000Y-112015000D02*
X114380000Y-119985000D01*
X114420000Y-112024000D02*
X114420000Y-119976000D01*
X114460000Y-112033000D02*
X114460000Y-119967000D01*
X114500000Y-112043000D02*
X114500000Y-119957000D01*
X114540000Y-112053000D02*
X114540000Y-119947000D01*
X114580000Y-112064000D02*
X114580000Y-119936000D01*
X114620000Y-112075000D02*
X114620000Y-119925000D01*
X114660000Y-112087000D02*
X114660000Y-119913000D01*
X114700000Y-112099000D02*
X114700000Y-119901000D01*
X114740000Y-112111000D02*
X114740000Y-119889000D01*
X114780000Y-112124000D02*
X114780000Y-119876000D01*
X114820000Y-112137000D02*
X114820000Y-119863000D01*
X114860000Y-112151000D02*
X114860000Y-119849000D01*
X114900000Y-112165000D02*
X114900000Y-119835000D01*
X114940000Y-112180000D02*
X114940000Y-119820000D01*
X114980000Y-112195000D02*
X114980000Y-114960000D01*
X114980000Y-117040000D02*
X114980000Y-119805000D01*
X115020000Y-112211000D02*
X115020000Y-114960000D01*
X115020000Y-117040000D02*
X115020000Y-119789000D01*
X115060000Y-112227000D02*
X115060000Y-114960000D01*
X115060000Y-117040000D02*
X115060000Y-119773000D01*
X115100000Y-112243000D02*
X115100000Y-114960000D01*
X115100000Y-117040000D02*
X115100000Y-119757000D01*
X115140000Y-112260000D02*
X115140000Y-114960000D01*
X115140000Y-117040000D02*
X115140000Y-119740000D01*
X115180000Y-112278000D02*
X115180000Y-114960000D01*
X115180000Y-117040000D02*
X115180000Y-119722000D01*
X115220000Y-112296000D02*
X115220000Y-114960000D01*
X115220000Y-117040000D02*
X115220000Y-119704000D01*
X115260000Y-112315000D02*
X115260000Y-114960000D01*
X115260000Y-117040000D02*
X115260000Y-119685000D01*
X115300000Y-112334000D02*
X115300000Y-114960000D01*
X115300000Y-117040000D02*
X115300000Y-119666000D01*
X115340000Y-112354000D02*
X115340000Y-114960000D01*
X115340000Y-117040000D02*
X115340000Y-119646000D01*
X115380000Y-112374000D02*
X115380000Y-114960000D01*
X115380000Y-117040000D02*
X115380000Y-119626000D01*
X115420000Y-112395000D02*
X115420000Y-114960000D01*
X115420000Y-117040000D02*
X115420000Y-119605000D01*
X115460000Y-112416000D02*
X115460000Y-114960000D01*
X115460000Y-117040000D02*
X115460000Y-119584000D01*
X115500000Y-112438000D02*
X115500000Y-114960000D01*
X115500000Y-117040000D02*
X115500000Y-119562000D01*
X115540000Y-112461000D02*
X115540000Y-114960000D01*
X115540000Y-117040000D02*
X115540000Y-119539000D01*
X115580000Y-112484000D02*
X115580000Y-114960000D01*
X115580000Y-117040000D02*
X115580000Y-119516000D01*
X115620000Y-112507000D02*
X115620000Y-114960000D01*
X115620000Y-117040000D02*
X115620000Y-119493000D01*
X115660000Y-112532000D02*
X115660000Y-114960000D01*
X115660000Y-117040000D02*
X115660000Y-119468000D01*
X115700000Y-112557000D02*
X115700000Y-114960000D01*
X115700000Y-117040000D02*
X115700000Y-119443000D01*
X115740000Y-112582000D02*
X115740000Y-114960000D01*
X115740000Y-117040000D02*
X115740000Y-119418000D01*
X115780000Y-112608000D02*
X115780000Y-114960000D01*
X115780000Y-117040000D02*
X115780000Y-119392000D01*
X115820000Y-112635000D02*
X115820000Y-114960000D01*
X115820000Y-117040000D02*
X115820000Y-119365000D01*
X115860000Y-112663000D02*
X115860000Y-114960000D01*
X115860000Y-117040000D02*
X115860000Y-119337000D01*
X115900000Y-112691000D02*
X115900000Y-114960000D01*
X115900000Y-117040000D02*
X115900000Y-119309000D01*
X115940000Y-112720000D02*
X115940000Y-114960000D01*
X115940000Y-117040000D02*
X115940000Y-119280000D01*
X115980000Y-112750000D02*
X115980000Y-114960000D01*
X115980000Y-117040000D02*
X115980000Y-119250000D01*
X116020000Y-112781000D02*
X116020000Y-114960000D01*
X116020000Y-117040000D02*
X116020000Y-119219000D01*
X116060000Y-112812000D02*
X116060000Y-114960000D01*
X116060000Y-117040000D02*
X116060000Y-119188000D01*
X116100000Y-112844000D02*
X116100000Y-114960000D01*
X116100000Y-117040000D02*
X116100000Y-119156000D01*
X116140000Y-112877000D02*
X116140000Y-114960000D01*
X116140000Y-117040000D02*
X116140000Y-119123000D01*
X116180000Y-112911000D02*
X116180000Y-114960000D01*
X116180000Y-117040000D02*
X116180000Y-119089000D01*
X116220000Y-112945000D02*
X116220000Y-114960000D01*
X116220000Y-117040000D02*
X116220000Y-119055000D01*
X116260000Y-112981000D02*
X116260000Y-114960000D01*
X116260000Y-117040000D02*
X116260000Y-119019000D01*
X116300000Y-113018000D02*
X116300000Y-114960000D01*
X116300000Y-117040000D02*
X116300000Y-118982000D01*
X116340000Y-113055000D02*
X116340000Y-114960000D01*
X116340000Y-117040000D02*
X116340000Y-118945000D01*
X116380000Y-113094000D02*
X116380000Y-114960000D01*
X116380000Y-117040000D02*
X116380000Y-118906000D01*
X116420000Y-113133000D02*
X116420000Y-114960000D01*
X116420000Y-117040000D02*
X116420000Y-118867000D01*
X116460000Y-113174000D02*
X116460000Y-114960000D01*
X116460000Y-117040000D02*
X116460000Y-118826000D01*
X116500000Y-113216000D02*
X116500000Y-114960000D01*
X116500000Y-117040000D02*
X116500000Y-118784000D01*
X116540000Y-113259000D02*
X116540000Y-114960000D01*
X116540000Y-117040000D02*
X116540000Y-118741000D01*
X116580000Y-113304000D02*
X116580000Y-114960000D01*
X116580000Y-117040000D02*
X116580000Y-118696000D01*
X116620000Y-113349000D02*
X116620000Y-114960000D01*
X116620000Y-117040000D02*
X116620000Y-118651000D01*
X116660000Y-113396000D02*
X116660000Y-114960000D01*
X116660000Y-117040000D02*
X116660000Y-118604000D01*
X116700000Y-113445000D02*
X116700000Y-114960000D01*
X116700000Y-117040000D02*
X116700000Y-118555000D01*
X116740000Y-113495000D02*
X116740000Y-114960000D01*
X116740000Y-117040000D02*
X116740000Y-118505000D01*
X116780000Y-113547000D02*
X116780000Y-114960000D01*
X116780000Y-117040000D02*
X116780000Y-118453000D01*
X116820000Y-113600000D02*
X116820000Y-114960000D01*
X116820000Y-117040000D02*
X116820000Y-118400000D01*
X116860000Y-113656000D02*
X116860000Y-114960000D01*
X116860000Y-117040000D02*
X116860000Y-118344000D01*
X116900000Y-113713000D02*
X116900000Y-114960000D01*
X116900000Y-117040000D02*
X116900000Y-118287000D01*
X116940000Y-113773000D02*
X116940000Y-114960000D01*
X116940000Y-117040000D02*
X116940000Y-118227000D01*
X116980000Y-113835000D02*
X116980000Y-114960000D01*
X116980000Y-117040000D02*
X116980000Y-118165000D01*
X117020000Y-113899000D02*
X117020000Y-114960000D01*
X117020000Y-117040000D02*
X117020000Y-118101000D01*
X117060000Y-113966000D02*
X117060000Y-118034000D01*
X117100000Y-114036000D02*
X117100000Y-117964000D01*
X117140000Y-114110000D02*
X117140000Y-117890000D01*
X117180000Y-114187000D02*
X117180000Y-117813000D01*
X117220000Y-114269000D02*
X117220000Y-117731000D01*
X117260000Y-114356000D02*
X117260000Y-117644000D01*
X117300000Y-114448000D02*
X117300000Y-117552000D01*
X117340000Y-114547000D02*
X117340000Y-117453000D01*
X117380000Y-114654000D02*
X117380000Y-117346000D01*
X117420000Y-114772000D02*
X117420000Y-117228000D01*
X117460000Y-114903000D02*
X117460000Y-117097000D01*
X117500000Y-115053000D02*
X117500000Y-116947000D01*
X117540000Y-115232000D02*
X117540000Y-116768000D01*
X117580000Y-115467000D02*
X117580000Y-116533000D01*
X117620000Y-116000000D02*
G75*
G02*
X109380000Y-116000000I-4120000J0D01*
G01*
X109380000Y-116000000D02*
G75*
G02*
X117620000Y-116000000I4120000J0D01*
G01*
%TO.C,A2*%
X58210000Y-51260000D02*
X58210000Y-66760000D01*
X58210000Y-66760000D02*
X78790000Y-66760000D01*
X76120000Y-51260000D02*
X58210000Y-51260000D01*
X76120000Y-53930000D02*
X58210000Y-53930000D01*
X76120000Y-53930000D02*
X76120000Y-51260000D01*
X78790000Y-51260000D02*
X77390000Y-51260000D01*
X78790000Y-52660000D02*
X78790000Y-51260000D01*
X78790000Y-53930000D02*
X76120000Y-53930000D01*
X78790000Y-64090000D02*
X58210000Y-64090000D01*
X78790000Y-66760000D02*
X78790000Y-53930000D01*
%TO.C,J10*%
X79620000Y-81350000D02*
X79620000Y-84110000D01*
X84810000Y-81350000D02*
X79620000Y-81350000D01*
X84810000Y-81350000D02*
X84810000Y-84110000D01*
X84810000Y-84110000D02*
X79620000Y-84110000D01*
X86080000Y-81350000D02*
X87460000Y-81350000D01*
X87460000Y-81350000D02*
X87460000Y-82730000D01*
%TO.C,R19*%
X78580000Y-117080000D02*
X82420000Y-117080000D01*
X78580000Y-118920000D02*
X82420000Y-118920000D01*
%TO.C,D2*%
X92940000Y-133764000D02*
X92940000Y-133920000D01*
X92940000Y-136080000D02*
X92940000Y-136236000D01*
X92940000Y-133764484D02*
G75*
G02*
X96171437Y-133920000I1560000J-1235516D01*
G01*
X93459039Y-133920000D02*
G75*
G02*
X95540961Y-133920000I1040961J-1080000D01*
G01*
X95540961Y-136080000D02*
G75*
G02*
X93459039Y-136080000I-1040961J1080000D01*
G01*
X96171437Y-136080000D02*
G75*
G02*
X92940000Y-136235516I-1671437J1080000D01*
G01*
%TO.C,R6*%
X97580000Y-73380000D02*
X97580000Y-69540000D01*
X99420000Y-73380000D02*
X99420000Y-69540000D01*
%TO.C,R14*%
X64230000Y-77040000D02*
X64230000Y-80880000D01*
X66070000Y-77040000D02*
X66070000Y-80880000D01*
%TO.C,Q2*%
X92570000Y-70150000D02*
X88970000Y-70150000D01*
X90770000Y-74600000D02*
G75*
G02*
X88931522Y-70161522I0J2600000D01*
G01*
X92608478Y-70161522D02*
G75*
G02*
X90770000Y-74600001I-1838478J-1838478D01*
G01*
%TO.C,U3*%
X60440000Y-114975000D02*
X60440000Y-113025000D01*
X60440000Y-114975000D02*
X60440000Y-116925000D01*
X70560000Y-114975000D02*
X70560000Y-113025000D01*
X70560000Y-114975000D02*
X70560000Y-116925000D01*
X60495000Y-117675000D02*
X60165000Y-117915000D01*
X60165000Y-117435000D01*
X60495000Y-117675000D01*
G36*
X60495000Y-117675000D02*
G01*
X60165000Y-117915000D01*
X60165000Y-117435000D01*
X60495000Y-117675000D01*
G37*
%TO.C,A1*%
X89210000Y-51260000D02*
X89210000Y-66760000D01*
X89210000Y-66760000D02*
X109790000Y-66760000D01*
X107120000Y-51260000D02*
X89210000Y-51260000D01*
X107120000Y-53930000D02*
X89210000Y-53930000D01*
X107120000Y-53930000D02*
X107120000Y-51260000D01*
X109790000Y-51260000D02*
X108390000Y-51260000D01*
X109790000Y-52660000D02*
X109790000Y-51260000D01*
X109790000Y-53930000D02*
X107120000Y-53930000D01*
X109790000Y-64090000D02*
X89210000Y-64090000D01*
X109790000Y-66760000D02*
X109790000Y-53930000D01*
%TO.C,C2*%
X59730000Y-105430000D02*
X64270000Y-105430000D01*
X59730000Y-105486000D02*
X59730000Y-105430000D01*
X64270000Y-107514000D02*
X64270000Y-107570000D01*
X64270000Y-107570000D02*
X59730000Y-107570000D01*
%TO.C,R8*%
X89920000Y-118080000D02*
X86080000Y-118080000D01*
X89920000Y-119920000D02*
X86080000Y-119920000D01*
%TO.C,J3*%
X91120000Y-76120000D02*
X92500000Y-76120000D01*
X91120000Y-77500000D02*
X91120000Y-76120000D01*
X91120000Y-78770000D02*
X91120000Y-78880000D01*
X91120000Y-78770000D02*
X93880000Y-78770000D01*
X91120000Y-78880000D02*
X93880000Y-78880000D01*
X93880000Y-78770000D02*
X93880000Y-78880000D01*
%TO.C,R7*%
X89920000Y-120580000D02*
X86080000Y-120580000D01*
X89920000Y-122420000D02*
X86080000Y-122420000D01*
%TO.C,C7*%
X55730000Y-71430000D02*
X60270000Y-71430000D01*
X55730000Y-71486000D02*
X55730000Y-71430000D01*
X60270000Y-73514000D02*
X60270000Y-73570000D01*
X60270000Y-73570000D02*
X55730000Y-73570000D01*
%TO.C,J20*%
X50680000Y-116480000D02*
X59120000Y-116480000D01*
X50680000Y-130720000D02*
X50680000Y-116480000D01*
X50980000Y-130720000D02*
X50680000Y-130720000D01*
X50980000Y-134720000D02*
X50980000Y-130720000D01*
X57220000Y-130720000D02*
X57220000Y-134720000D01*
X57220000Y-134720000D02*
X50980000Y-134720000D01*
X59120000Y-116480000D02*
X59120000Y-130720000D01*
X59120000Y-130720000D02*
X57220000Y-130720000D01*
%TO.C,J19*%
X82120000Y-51345000D02*
X83500000Y-51345000D01*
X82120000Y-52725000D02*
X82120000Y-51345000D01*
X82120000Y-53995000D02*
X82120000Y-56645000D01*
X82120000Y-53995000D02*
X84880000Y-53995000D01*
X82120000Y-56645000D02*
X84880000Y-56645000D01*
X84880000Y-53995000D02*
X84880000Y-56645000D01*
%TO.C,U5*%
X103150000Y-109590000D02*
X106910000Y-109590000D01*
X103150000Y-116410000D02*
X106910000Y-116410000D01*
X106910000Y-109590000D02*
X106910000Y-110850000D01*
X106910000Y-116410000D02*
X106910000Y-115150000D01*
X101870000Y-109690000D02*
X101630000Y-109360000D01*
X102110000Y-109360000D01*
X101870000Y-109690000D01*
G36*
X101870000Y-109690000D02*
G01*
X101630000Y-109360000D01*
X102110000Y-109360000D01*
X101870000Y-109690000D01*
G37*
%TO.C,J13*%
X79620000Y-95120000D02*
X79620000Y-97880000D01*
X84810000Y-95120000D02*
X79620000Y-95120000D01*
X84810000Y-95120000D02*
X84810000Y-97880000D01*
X84810000Y-97880000D02*
X79620000Y-97880000D01*
X86080000Y-95120000D02*
X87460000Y-95120000D01*
X87460000Y-95120000D02*
X87460000Y-96500000D01*
%TO.C,R20*%
X56080000Y-68580000D02*
X59920000Y-68580000D01*
X56080000Y-70420000D02*
X59920000Y-70420000D01*
%TO.C,Q1*%
X81640000Y-59930000D02*
X86260000Y-59930000D01*
X81640000Y-70150000D02*
X81640000Y-59930000D01*
X84880000Y-59930000D02*
X84880000Y-70150000D01*
X86260000Y-59930000D02*
X86260000Y-70150000D01*
X86260000Y-63190000D02*
X84880000Y-63190000D01*
X86260000Y-66890000D02*
X84880000Y-66890000D01*
X86260000Y-70150000D02*
X81640000Y-70150000D01*
%TO.C,R2*%
X105580000Y-81920000D02*
X105580000Y-78080000D01*
X107420000Y-81920000D02*
X107420000Y-78080000D01*
%TO.C,U6*%
X51895000Y-107845000D02*
X51895000Y-109495000D01*
X51895000Y-111495000D02*
X51895000Y-113145000D01*
X51895000Y-113145000D02*
X57095000Y-113145000D01*
X57095000Y-107845000D02*
X51895000Y-107845000D01*
X57095000Y-113145000D02*
X57095000Y-107845000D01*
X51895000Y-109495000D02*
G75*
G02*
X51895000Y-111495000I0J-1000000D01*
G01*
%TO.C,C8*%
X88230000Y-67430000D02*
X92770000Y-67430000D01*
X88230000Y-67486000D02*
X88230000Y-67430000D01*
X92770000Y-69514000D02*
X92770000Y-69570000D01*
X92770000Y-69570000D02*
X88230000Y-69570000D01*
%TO.C,C14*%
X89230000Y-105930000D02*
X93770000Y-105930000D01*
X89230000Y-105986000D02*
X89230000Y-105930000D01*
X93770000Y-108014000D02*
X93770000Y-108070000D01*
X93770000Y-108070000D02*
X89230000Y-108070000D01*
%TO.C,R22*%
X85880000Y-71080000D02*
X82040000Y-71080000D01*
X85880000Y-72920000D02*
X82040000Y-72920000D01*
%TO.C,R11*%
X66080000Y-105120000D02*
X66080000Y-108960000D01*
X67920000Y-105120000D02*
X67920000Y-108960000D01*
%TO.C,R16*%
X92120000Y-80080000D02*
X95960000Y-80080000D01*
X92120000Y-81920000D02*
X95960000Y-81920000D01*
%TO.C,C6*%
X72730000Y-103930000D02*
X77270000Y-103930000D01*
X72730000Y-103986000D02*
X72730000Y-103930000D01*
X77270000Y-106014000D02*
X77270000Y-106070000D01*
X77270000Y-106070000D02*
X72730000Y-106070000D01*
%TO.C,R15*%
X61080000Y-77040000D02*
X61080000Y-80880000D01*
X62920000Y-77040000D02*
X62920000Y-80880000D01*
%TO.C,J6*%
X96579720Y-107690000D02*
X117010000Y-107690000D01*
X96579720Y-118690000D02*
X96579720Y-107690000D01*
X117010000Y-107690000D02*
X117010000Y-118690000D01*
X117010000Y-118690000D02*
X96579720Y-118690000D01*
%TO.C,R4*%
X96620000Y-76080000D02*
X100460000Y-76080000D01*
X96620000Y-77920000D02*
X100460000Y-77920000D01*
%TO.C,R17*%
X52620000Y-103080000D02*
X56460000Y-103080000D01*
X52620000Y-104920000D02*
X56460000Y-104920000D01*
%TO.C,D1*%
X92940000Y-122764000D02*
X92940000Y-122920000D01*
X92940000Y-125080000D02*
X92940000Y-125236000D01*
X92940000Y-122764484D02*
G75*
G02*
X96171437Y-122920000I1560000J-1235516D01*
G01*
X93459039Y-122920000D02*
G75*
G02*
X95540961Y-122920000I1040961J-1080000D01*
G01*
X95540961Y-125080000D02*
G75*
G02*
X93459039Y-125080000I-1040961J1080000D01*
G01*
X96171437Y-125080000D02*
G75*
G02*
X92940000Y-125235516I-1671437J1080000D01*
G01*
%TO.C,J16*%
X111580000Y-129380000D02*
X111580000Y-128000000D01*
X112960000Y-129380000D02*
X111580000Y-129380000D01*
X114230000Y-126620000D02*
X116880000Y-126620000D01*
X114230000Y-129380000D02*
X114230000Y-126620000D01*
X114230000Y-129380000D02*
X116880000Y-129380000D01*
X116880000Y-129380000D02*
X116880000Y-126620000D01*
%TO.C,J4*%
X85855000Y-109120000D02*
X85855000Y-111880000D01*
X88505000Y-109120000D02*
X85855000Y-109120000D01*
X88505000Y-109120000D02*
X88505000Y-111880000D01*
X88505000Y-111880000D02*
X85855000Y-111880000D01*
X89775000Y-109120000D02*
X91155000Y-109120000D01*
X91155000Y-109120000D02*
X91155000Y-110500000D01*
%TO.C,C9*%
X79090302Y-101685000D02*
X79890302Y-101685000D01*
X79490302Y-101285000D02*
X79490302Y-102085000D01*
X83500000Y-99920000D02*
X83500000Y-108080000D01*
X83540000Y-99920000D02*
X83540000Y-108080000D01*
X83580000Y-99921000D02*
X83580000Y-108079000D01*
X83620000Y-99922000D02*
X83620000Y-108078000D01*
X83660000Y-99923000D02*
X83660000Y-108077000D01*
X83700000Y-99925000D02*
X83700000Y-108075000D01*
X83740000Y-99927000D02*
X83740000Y-108073000D01*
X83780000Y-99930000D02*
X83780000Y-108070000D01*
X83820000Y-99932000D02*
X83820000Y-108068000D01*
X83860000Y-99936000D02*
X83860000Y-108064000D01*
X83900000Y-99939000D02*
X83900000Y-108061000D01*
X83940000Y-99944000D02*
X83940000Y-108056000D01*
X83980000Y-99948000D02*
X83980000Y-108052000D01*
X84020000Y-99953000D02*
X84020000Y-108047000D01*
X84060000Y-99958000D02*
X84060000Y-108042000D01*
X84100000Y-99964000D02*
X84100000Y-108036000D01*
X84140000Y-99970000D02*
X84140000Y-108030000D01*
X84180000Y-99977000D02*
X84180000Y-108023000D01*
X84220000Y-99983000D02*
X84220000Y-108017000D01*
X84260000Y-99991000D02*
X84260000Y-108009000D01*
X84300000Y-99998000D02*
X84300000Y-108002000D01*
X84340000Y-100007000D02*
X84340000Y-107993000D01*
X84380000Y-100015000D02*
X84380000Y-107985000D01*
X84420000Y-100024000D02*
X84420000Y-107976000D01*
X84460000Y-100033000D02*
X84460000Y-107967000D01*
X84500000Y-100043000D02*
X84500000Y-107957000D01*
X84540000Y-100053000D02*
X84540000Y-107947000D01*
X84580000Y-100064000D02*
X84580000Y-107936000D01*
X84620000Y-100075000D02*
X84620000Y-107925000D01*
X84660000Y-100087000D02*
X84660000Y-107913000D01*
X84700000Y-100099000D02*
X84700000Y-107901000D01*
X84740000Y-100111000D02*
X84740000Y-107889000D01*
X84780000Y-100124000D02*
X84780000Y-107876000D01*
X84820000Y-100137000D02*
X84820000Y-107863000D01*
X84860000Y-100151000D02*
X84860000Y-107849000D01*
X84900000Y-100165000D02*
X84900000Y-107835000D01*
X84940000Y-100180000D02*
X84940000Y-107820000D01*
X84980000Y-100195000D02*
X84980000Y-102960000D01*
X84980000Y-105040000D02*
X84980000Y-107805000D01*
X85020000Y-100211000D02*
X85020000Y-102960000D01*
X85020000Y-105040000D02*
X85020000Y-107789000D01*
X85060000Y-100227000D02*
X85060000Y-102960000D01*
X85060000Y-105040000D02*
X85060000Y-107773000D01*
X85100000Y-100243000D02*
X85100000Y-102960000D01*
X85100000Y-105040000D02*
X85100000Y-107757000D01*
X85140000Y-100260000D02*
X85140000Y-102960000D01*
X85140000Y-105040000D02*
X85140000Y-107740000D01*
X85180000Y-100278000D02*
X85180000Y-102960000D01*
X85180000Y-105040000D02*
X85180000Y-107722000D01*
X85220000Y-100296000D02*
X85220000Y-102960000D01*
X85220000Y-105040000D02*
X85220000Y-107704000D01*
X85260000Y-100315000D02*
X85260000Y-102960000D01*
X85260000Y-105040000D02*
X85260000Y-107685000D01*
X85300000Y-100334000D02*
X85300000Y-102960000D01*
X85300000Y-105040000D02*
X85300000Y-107666000D01*
X85340000Y-100354000D02*
X85340000Y-102960000D01*
X85340000Y-105040000D02*
X85340000Y-107646000D01*
X85380000Y-100374000D02*
X85380000Y-102960000D01*
X85380000Y-105040000D02*
X85380000Y-107626000D01*
X85420000Y-100395000D02*
X85420000Y-102960000D01*
X85420000Y-105040000D02*
X85420000Y-107605000D01*
X85460000Y-100416000D02*
X85460000Y-102960000D01*
X85460000Y-105040000D02*
X85460000Y-107584000D01*
X85500000Y-100438000D02*
X85500000Y-102960000D01*
X85500000Y-105040000D02*
X85500000Y-107562000D01*
X85540000Y-100461000D02*
X85540000Y-102960000D01*
X85540000Y-105040000D02*
X85540000Y-107539000D01*
X85580000Y-100484000D02*
X85580000Y-102960000D01*
X85580000Y-105040000D02*
X85580000Y-107516000D01*
X85620000Y-100507000D02*
X85620000Y-102960000D01*
X85620000Y-105040000D02*
X85620000Y-107493000D01*
X85660000Y-100532000D02*
X85660000Y-102960000D01*
X85660000Y-105040000D02*
X85660000Y-107468000D01*
X85700000Y-100557000D02*
X85700000Y-102960000D01*
X85700000Y-105040000D02*
X85700000Y-107443000D01*
X85740000Y-100582000D02*
X85740000Y-102960000D01*
X85740000Y-105040000D02*
X85740000Y-107418000D01*
X85780000Y-100608000D02*
X85780000Y-102960000D01*
X85780000Y-105040000D02*
X85780000Y-107392000D01*
X85820000Y-100635000D02*
X85820000Y-102960000D01*
X85820000Y-105040000D02*
X85820000Y-107365000D01*
X85860000Y-100663000D02*
X85860000Y-102960000D01*
X85860000Y-105040000D02*
X85860000Y-107337000D01*
X85900000Y-100691000D02*
X85900000Y-102960000D01*
X85900000Y-105040000D02*
X85900000Y-107309000D01*
X85940000Y-100720000D02*
X85940000Y-102960000D01*
X85940000Y-105040000D02*
X85940000Y-107280000D01*
X85980000Y-100750000D02*
X85980000Y-102960000D01*
X85980000Y-105040000D02*
X85980000Y-107250000D01*
X86020000Y-100781000D02*
X86020000Y-102960000D01*
X86020000Y-105040000D02*
X86020000Y-107219000D01*
X86060000Y-100812000D02*
X86060000Y-102960000D01*
X86060000Y-105040000D02*
X86060000Y-107188000D01*
X86100000Y-100844000D02*
X86100000Y-102960000D01*
X86100000Y-105040000D02*
X86100000Y-107156000D01*
X86140000Y-100877000D02*
X86140000Y-102960000D01*
X86140000Y-105040000D02*
X86140000Y-107123000D01*
X86180000Y-100911000D02*
X86180000Y-102960000D01*
X86180000Y-105040000D02*
X86180000Y-107089000D01*
X86220000Y-100945000D02*
X86220000Y-102960000D01*
X86220000Y-105040000D02*
X86220000Y-107055000D01*
X86260000Y-100981000D02*
X86260000Y-102960000D01*
X86260000Y-105040000D02*
X86260000Y-107019000D01*
X86300000Y-101018000D02*
X86300000Y-102960000D01*
X86300000Y-105040000D02*
X86300000Y-106982000D01*
X86340000Y-101055000D02*
X86340000Y-102960000D01*
X86340000Y-105040000D02*
X86340000Y-106945000D01*
X86380000Y-101094000D02*
X86380000Y-102960000D01*
X86380000Y-105040000D02*
X86380000Y-106906000D01*
X86420000Y-101133000D02*
X86420000Y-102960000D01*
X86420000Y-105040000D02*
X86420000Y-106867000D01*
X86460000Y-101174000D02*
X86460000Y-102960000D01*
X86460000Y-105040000D02*
X86460000Y-106826000D01*
X86500000Y-101216000D02*
X86500000Y-102960000D01*
X86500000Y-105040000D02*
X86500000Y-106784000D01*
X86540000Y-101259000D02*
X86540000Y-102960000D01*
X86540000Y-105040000D02*
X86540000Y-106741000D01*
X86580000Y-101304000D02*
X86580000Y-102960000D01*
X86580000Y-105040000D02*
X86580000Y-106696000D01*
X86620000Y-101349000D02*
X86620000Y-102960000D01*
X86620000Y-105040000D02*
X86620000Y-106651000D01*
X86660000Y-101396000D02*
X86660000Y-102960000D01*
X86660000Y-105040000D02*
X86660000Y-106604000D01*
X86700000Y-101445000D02*
X86700000Y-102960000D01*
X86700000Y-105040000D02*
X86700000Y-106555000D01*
X86740000Y-101495000D02*
X86740000Y-102960000D01*
X86740000Y-105040000D02*
X86740000Y-106505000D01*
X86780000Y-101547000D02*
X86780000Y-102960000D01*
X86780000Y-105040000D02*
X86780000Y-106453000D01*
X86820000Y-101600000D02*
X86820000Y-102960000D01*
X86820000Y-105040000D02*
X86820000Y-106400000D01*
X86860000Y-101656000D02*
X86860000Y-102960000D01*
X86860000Y-105040000D02*
X86860000Y-106344000D01*
X86900000Y-101713000D02*
X86900000Y-102960000D01*
X86900000Y-105040000D02*
X86900000Y-106287000D01*
X86940000Y-101773000D02*
X86940000Y-102960000D01*
X86940000Y-105040000D02*
X86940000Y-106227000D01*
X86980000Y-101835000D02*
X86980000Y-102960000D01*
X86980000Y-105040000D02*
X86980000Y-106165000D01*
X87020000Y-101899000D02*
X87020000Y-102960000D01*
X87020000Y-105040000D02*
X87020000Y-106101000D01*
X87060000Y-101966000D02*
X87060000Y-106034000D01*
X87100000Y-102036000D02*
X87100000Y-105964000D01*
X87140000Y-102110000D02*
X87140000Y-105890000D01*
X87180000Y-102187000D02*
X87180000Y-105813000D01*
X87220000Y-102269000D02*
X87220000Y-105731000D01*
X87260000Y-102356000D02*
X87260000Y-105644000D01*
X87300000Y-102448000D02*
X87300000Y-105552000D01*
X87340000Y-102547000D02*
X87340000Y-105453000D01*
X87380000Y-102654000D02*
X87380000Y-105346000D01*
X87420000Y-102772000D02*
X87420000Y-105228000D01*
X87460000Y-102903000D02*
X87460000Y-105097000D01*
X87500000Y-103053000D02*
X87500000Y-104947000D01*
X87540000Y-103232000D02*
X87540000Y-104768000D01*
X87580000Y-103467000D02*
X87580000Y-104533000D01*
X87620000Y-104000000D02*
G75*
G02*
X79380000Y-104000000I-4120000J0D01*
G01*
X79380000Y-104000000D02*
G75*
G02*
X87620000Y-104000000I4120000J0D01*
G01*
%TO.C,J1*%
X78290000Y-123890000D02*
X78290000Y-129630000D01*
X78290000Y-123890000D02*
X90710000Y-123890000D01*
X78290000Y-132380000D02*
X78290000Y-137110000D01*
X78290000Y-137110000D02*
X90710000Y-137110000D01*
X90710000Y-123890000D02*
X90710000Y-129630000D01*
X90710000Y-132380000D02*
X90710000Y-137110000D01*
X90870000Y-126160000D02*
X91370000Y-126660000D01*
X91370000Y-125660000D02*
X90870000Y-126160000D01*
X91370000Y-125660000D02*
X91370000Y-126660000D01*
%TO.C,R3*%
X107080000Y-57040000D02*
X107080000Y-60880000D01*
X108920000Y-57040000D02*
X108920000Y-60880000D01*
%TD*%
M02*
