%TF.GenerationSoftware,KiCad,Pcbnew,9.0.3*%
%TF.CreationDate,2025-07-31T09:26:23+09:00*%
%TF.ProjectId,OnStepJuwei17,4f6e5374-6570-44a7-9577-656931372e6b,rev?*%
%TF.SameCoordinates,Original*%
%TF.FileFunction,Soldermask,Bot*%
%TF.FilePolarity,Negative*%
%FSLAX46Y46*%
G04 Gerber Fmt 4.6, Leading zero omitted, Abs format (unit mm)*
G04 Created by KiCad (PCBNEW 9.0.3) date 2025-07-31 09:26:23*
%MOMM*%
%LPD*%
G01*
G04 APERTURE LIST*
G04 Aperture macros list*
%AMRoundRect*
0 Rectangle with rounded corners*
0 $1 Rounding radius*
0 $2 $3 $4 $5 $6 $7 $8 $9 X,Y pos of 4 corners*
0 Add a 4 corners polygon primitive as box body*
4,1,4,$2,$3,$4,$5,$6,$7,$8,$9,$2,$3,0*
0 Add four circle primitives for the rounded corners*
1,1,$1+$1,$2,$3*
1,1,$1+$1,$4,$5*
1,1,$1+$1,$6,$7*
1,1,$1+$1,$8,$9*
0 Add four rect primitives between the rounded corners*
20,1,$1+$1,$2,$3,$4,$5,0*
20,1,$1+$1,$4,$5,$6,$7,0*
20,1,$1+$1,$6,$7,$8,$9,0*
20,1,$1+$1,$8,$9,$2,$3,0*%
G04 Aperture macros list end*
%ADD10R,1.700000X1.700000*%
%ADD11C,1.700000*%
%ADD12C,1.600000*%
%ADD13C,1.400000*%
%ADD14R,4.600000X2.000000*%
%ADD15O,4.200000X2.000000*%
%ADD16O,2.000000X4.200000*%
%ADD17C,1.500000*%
%ADD18R,1.800000X1.800000*%
%ADD19C,1.800000*%
%ADD20RoundRect,0.249999X-0.850001X-0.850001X0.850001X-0.850001X0.850001X0.850001X-0.850001X0.850001X0*%
%ADD21C,2.200000*%
%ADD22RoundRect,0.250000X-0.550000X0.550000X-0.550000X-0.550000X0.550000X-0.550000X0.550000X0.550000X0*%
%ADD23R,2.000000X2.000000*%
%ADD24C,2.000000*%
%ADD25R,1.600000X1.600000*%
%ADD26C,4.000000*%
%ADD27RoundRect,0.250000X-0.550000X-0.550000X0.550000X-0.550000X0.550000X0.550000X-0.550000X0.550000X0*%
%ADD28O,1.600000X1.600000*%
%ADD29R,1.050000X1.500000*%
%ADD30O,1.050000X1.500000*%
%ADD31C,2.800000*%
%ADD32R,2.000000X1.905000*%
%ADD33O,2.000000X1.905000*%
%ADD34RoundRect,0.250000X0.550000X-0.550000X0.550000X0.550000X-0.550000X0.550000X-0.550000X-0.550000X0*%
%ADD35C,2.300000*%
%ADD36R,1.520000X1.520000*%
%ADD37C,1.520000*%
G04 APERTURE END LIST*
D10*
%TO.C,J8*%
X53500000Y-52690000D03*
D11*
X53500000Y-55230000D03*
X53500000Y-57770000D03*
X53500000Y-60310000D03*
%TD*%
D12*
%TO.C,C5*%
X78000000Y-111000000D03*
X83000000Y-111000000D03*
%TD*%
D10*
%TO.C,J9*%
X114000000Y-60540000D03*
D11*
X114000000Y-58000000D03*
X114000000Y-55460000D03*
X114000000Y-52920000D03*
%TD*%
D13*
%TO.C,R23*%
X86580000Y-77500000D03*
X81500000Y-77500000D03*
%TD*%
%TO.C,R9*%
X90540000Y-116500000D03*
X85460000Y-116500000D03*
%TD*%
D12*
%TO.C,C3*%
X59500000Y-109000000D03*
X64500000Y-109000000D03*
%TD*%
D13*
%TO.C,R5*%
X95500000Y-68960000D03*
X95500000Y-74040000D03*
%TD*%
D10*
%TO.C,J2*%
X111000000Y-69225000D03*
D11*
X111000000Y-71765000D03*
%TD*%
D12*
%TO.C,C1*%
X111000000Y-105500000D03*
X116000000Y-105500000D03*
%TD*%
D13*
%TO.C,R13*%
X68000000Y-72500000D03*
X62920000Y-72500000D03*
%TD*%
D14*
%TO.C,J15*%
X102350000Y-123200000D03*
D15*
X102350000Y-129500000D03*
D16*
X107150000Y-126100000D03*
%TD*%
D10*
%TO.C,J7*%
X93500000Y-117500000D03*
D11*
X93500000Y-114960000D03*
%TD*%
D10*
%TO.C,J12*%
X86080000Y-91910000D03*
D11*
X83540000Y-91910000D03*
X81000000Y-91910000D03*
%TD*%
D17*
%TO.C,Y1*%
X74000000Y-111060000D03*
X74000000Y-115940000D03*
%TD*%
D18*
%TO.C,D3*%
X93230000Y-128500000D03*
D19*
X95770000Y-128500000D03*
%TD*%
D13*
%TO.C,R10*%
X90540000Y-114000000D03*
X85460000Y-114000000D03*
%TD*%
D20*
%TO.C,D5*%
X67920000Y-68500000D03*
D21*
X78080000Y-68500000D03*
%TD*%
D12*
%TO.C,C12*%
X111000000Y-108500000D03*
X116000000Y-108500000D03*
%TD*%
D13*
%TO.C,R21*%
X86580000Y-74500000D03*
X81500000Y-74500000D03*
%TD*%
D10*
%TO.C,J18*%
X52000000Y-67460000D03*
D11*
X52000000Y-70000000D03*
X52000000Y-72540000D03*
X52000000Y-75080000D03*
X52000000Y-77620000D03*
%TD*%
D12*
%TO.C,C13*%
X74000000Y-56500000D03*
X74000000Y-61500000D03*
%TD*%
D13*
%TO.C,R18*%
X77960000Y-120500000D03*
X83040000Y-120500000D03*
%TD*%
D22*
%TO.C,C11*%
X93500000Y-56597349D03*
D12*
X93500000Y-61597349D03*
%TD*%
D13*
%TO.C,R12*%
X69500000Y-109580000D03*
X69500000Y-104500000D03*
%TD*%
D10*
%TO.C,J11*%
X86080000Y-87320000D03*
D11*
X83540000Y-87320000D03*
X81000000Y-87320000D03*
%TD*%
D23*
%TO.C,BZ1*%
X77000000Y-76500000D03*
D24*
X69400000Y-76500000D03*
%TD*%
D13*
%TO.C,R1*%
X104000000Y-77500000D03*
X104000000Y-82580000D03*
%TD*%
D12*
%TO.C,C4*%
X78000000Y-113500000D03*
X83000000Y-113500000D03*
%TD*%
D10*
%TO.C,J14*%
X116000000Y-68460000D03*
D11*
X116000000Y-71000000D03*
X116000000Y-73540000D03*
X116000000Y-76080000D03*
X116000000Y-78620000D03*
X116000000Y-81160000D03*
%TD*%
D25*
%TO.C,J5*%
X69250000Y-121712500D03*
D12*
X66750000Y-121712500D03*
X66750000Y-123712500D03*
X69250000Y-123712500D03*
D26*
X74000000Y-126572500D03*
X62000000Y-126572500D03*
%TD*%
D27*
%TO.C,C10*%
X111000000Y-116000000D03*
D12*
X116000000Y-116000000D03*
%TD*%
D25*
%TO.C,A2*%
X77390000Y-52660000D03*
D28*
X74850000Y-52660000D03*
X72310000Y-52660000D03*
X69770000Y-52660000D03*
X67230000Y-52660000D03*
X64690000Y-52660000D03*
X62150000Y-52660000D03*
X59610000Y-52660000D03*
X59610000Y-65360000D03*
X62150000Y-65360000D03*
X64690000Y-65360000D03*
X67230000Y-65360000D03*
X69770000Y-65360000D03*
X72310000Y-65360000D03*
X74850000Y-65360000D03*
X77390000Y-65360000D03*
%TD*%
D10*
%TO.C,J10*%
X86080000Y-82730000D03*
D11*
X83540000Y-82730000D03*
X81000000Y-82730000D03*
%TD*%
D13*
%TO.C,R19*%
X77960000Y-118000000D03*
X83040000Y-118000000D03*
%TD*%
D18*
%TO.C,D2*%
X93230000Y-135000000D03*
D19*
X95770000Y-135000000D03*
%TD*%
D13*
%TO.C,R6*%
X98500000Y-74000000D03*
X98500000Y-68920000D03*
%TD*%
%TO.C,R14*%
X65150000Y-76420000D03*
X65150000Y-81500000D03*
%TD*%
D29*
%TO.C,Q2*%
X92040000Y-72000000D03*
D30*
X90770000Y-72000000D03*
X89500000Y-72000000D03*
%TD*%
D25*
%TO.C,A1*%
X108390000Y-52660000D03*
D28*
X105850000Y-52660000D03*
X103310000Y-52660000D03*
X100770000Y-52660000D03*
X98230000Y-52660000D03*
X95690000Y-52660000D03*
X93150000Y-52660000D03*
X90610000Y-52660000D03*
X90610000Y-65360000D03*
X93150000Y-65360000D03*
X95690000Y-65360000D03*
X98230000Y-65360000D03*
X100770000Y-65360000D03*
X103310000Y-65360000D03*
X105850000Y-65360000D03*
X108390000Y-65360000D03*
%TD*%
D12*
%TO.C,C2*%
X59500000Y-106500000D03*
X64500000Y-106500000D03*
%TD*%
D13*
%TO.C,R8*%
X90540000Y-119000000D03*
X85460000Y-119000000D03*
%TD*%
D10*
%TO.C,J3*%
X92500000Y-77500000D03*
%TD*%
D13*
%TO.C,R7*%
X90540000Y-121500000D03*
X85460000Y-121500000D03*
%TD*%
D12*
%TO.C,C7*%
X55500000Y-72500000D03*
X60500000Y-72500000D03*
%TD*%
D31*
%TO.C,J20*%
X53000000Y-121500000D03*
X55000000Y-129400000D03*
X53000000Y-127000000D03*
%TD*%
D10*
%TO.C,J19*%
X83500000Y-52725000D03*
D11*
X83500000Y-55265000D03*
%TD*%
D10*
%TO.C,J13*%
X86080000Y-96500000D03*
D11*
X83540000Y-96500000D03*
X81000000Y-96500000D03*
%TD*%
D13*
%TO.C,R20*%
X55460000Y-69500000D03*
X60540000Y-69500000D03*
%TD*%
D32*
%TO.C,Q1*%
X83000000Y-62500000D03*
D33*
X83000000Y-65040000D03*
X83000000Y-67580000D03*
%TD*%
D13*
%TO.C,R2*%
X106500000Y-82540000D03*
X106500000Y-77460000D03*
%TD*%
D34*
%TO.C,U6*%
X53225000Y-114305000D03*
D12*
X55765000Y-114305000D03*
X55765000Y-106685000D03*
X53225000Y-106685000D03*
%TD*%
%TO.C,C8*%
X88000000Y-68500000D03*
X93000000Y-68500000D03*
%TD*%
%TO.C,C14*%
X89000000Y-107000000D03*
X94000000Y-107000000D03*
%TD*%
D13*
%TO.C,R22*%
X86500000Y-72000000D03*
X81420000Y-72000000D03*
%TD*%
%TO.C,R11*%
X67000000Y-104500000D03*
X67000000Y-109580000D03*
%TD*%
%TO.C,R16*%
X91500000Y-81000000D03*
X96580000Y-81000000D03*
%TD*%
D12*
%TO.C,C6*%
X72500000Y-105000000D03*
X77500000Y-105000000D03*
%TD*%
D13*
%TO.C,R15*%
X62000000Y-76420000D03*
X62000000Y-81500000D03*
%TD*%
D10*
%TO.C,J6*%
X98000000Y-109460000D03*
D11*
X98000000Y-112000000D03*
X98000000Y-114540000D03*
X98000000Y-117080000D03*
%TD*%
D13*
%TO.C,R4*%
X96000000Y-77000000D03*
X101080000Y-77000000D03*
%TD*%
%TO.C,R17*%
X52000000Y-104000000D03*
X57080000Y-104000000D03*
%TD*%
D18*
%TO.C,D1*%
X93230000Y-124000000D03*
D19*
X95770000Y-124000000D03*
%TD*%
D10*
%TO.C,J16*%
X112960000Y-128000000D03*
D11*
X115500000Y-128000000D03*
%TD*%
D10*
%TO.C,J4*%
X89775000Y-110500000D03*
D11*
X87235000Y-110500000D03*
%TD*%
D27*
%TO.C,C9*%
X81000000Y-104000000D03*
D12*
X86000000Y-104000000D03*
%TD*%
D35*
%TO.C,J1*%
X78500000Y-131000000D03*
X90500000Y-131000000D03*
D36*
X87050000Y-126160000D03*
D37*
X86030000Y-128700000D03*
X85010000Y-126160000D03*
X83990000Y-128700000D03*
X82970000Y-126160000D03*
X81950000Y-128700000D03*
%TD*%
D13*
%TO.C,R3*%
X108000000Y-56420000D03*
X108000000Y-61500000D03*
%TD*%
M02*
