%TF.GenerationSoftware,KiCad,Pcbnew,9.0.3*%
%TF.CreationDate,2025-07-31T09:26:23+09:00*%
%TF.ProjectId,OnStepJuwei17,4f6e5374-6570-44a7-9577-656931372e6b,rev?*%
%TF.SameCoordinates,Original*%
%TF.FileFunction,Soldermask,Top*%
%TF.FilePolarity,Negative*%
%FSLAX46Y46*%
G04 Gerber Fmt 4.6, Leading zero omitted, Abs format (unit mm)*
G04 Created by KiCad (PCBNEW 9.0.3) date 2025-07-31 09:26:23*
%MOMM*%
%LPD*%
G01*
G04 APERTURE LIST*
G04 Aperture macros list*
%AMRoundRect*
0 Rectangle with rounded corners*
0 $1 Rounding radius*
0 $2 $3 $4 $5 $6 $7 $8 $9 X,Y pos of 4 corners*
0 Add a 4 corners polygon primitive as box body*
4,1,4,$2,$3,$4,$5,$6,$7,$8,$9,$2,$3,0*
0 Add four circle primitives for the rounded corners*
1,1,$1+$1,$2,$3*
1,1,$1+$1,$4,$5*
1,1,$1+$1,$6,$7*
1,1,$1+$1,$8,$9*
0 Add four rect primitives between the rounded corners*
20,1,$1+$1,$2,$3,$4,$5,0*
20,1,$1+$1,$4,$5,$6,$7,0*
20,1,$1+$1,$6,$7,$8,$9,0*
20,1,$1+$1,$8,$9,$2,$3,0*%
G04 Aperture macros list end*
%ADD10R,1.700000X1.700000*%
%ADD11C,1.700000*%
%ADD12C,1.600000*%
%ADD13C,1.400000*%
%ADD14R,1.000000X2.500000*%
%ADD15R,1.800000X1.000000*%
%ADD16R,4.600000X2.000000*%
%ADD17O,4.200000X2.000000*%
%ADD18O,2.000000X4.200000*%
%ADD19RoundRect,0.150000X-0.825000X-0.150000X0.825000X-0.150000X0.825000X0.150000X-0.825000X0.150000X0*%
%ADD20C,1.500000*%
%ADD21R,1.800000X1.800000*%
%ADD22C,1.800000*%
%ADD23RoundRect,0.249999X-0.850001X-0.850001X0.850001X-0.850001X0.850001X0.850001X-0.850001X0.850001X0*%
%ADD24C,2.200000*%
%ADD25R,0.900000X1.500000*%
%ADD26R,1.500000X0.900000*%
%ADD27C,0.600000*%
%ADD28R,3.800000X3.800000*%
%ADD29RoundRect,0.250000X-0.550000X0.550000X-0.550000X-0.550000X0.550000X-0.550000X0.550000X0.550000X0*%
%ADD30R,2.000000X2.000000*%
%ADD31C,2.000000*%
%ADD32R,1.600000X1.600000*%
%ADD33C,4.000000*%
%ADD34RoundRect,0.250000X-0.550000X-0.550000X0.550000X-0.550000X0.550000X0.550000X-0.550000X0.550000X0*%
%ADD35O,1.600000X1.600000*%
%ADD36R,1.050000X1.500000*%
%ADD37O,1.050000X1.500000*%
%ADD38RoundRect,0.150000X0.150000X-0.825000X0.150000X0.825000X-0.150000X0.825000X-0.150000X-0.825000X0*%
%ADD39C,2.800000*%
%ADD40RoundRect,0.375000X-0.625000X-0.375000X0.625000X-0.375000X0.625000X0.375000X-0.625000X0.375000X0*%
%ADD41RoundRect,0.500000X-0.500000X-1.400000X0.500000X-1.400000X0.500000X1.400000X-0.500000X1.400000X0*%
%ADD42R,2.000000X1.905000*%
%ADD43O,2.000000X1.905000*%
%ADD44RoundRect,0.250000X0.550000X-0.550000X0.550000X0.550000X-0.550000X0.550000X-0.550000X-0.550000X0*%
%ADD45C,2.300000*%
%ADD46R,1.520000X1.520000*%
%ADD47C,1.520000*%
G04 APERTURE END LIST*
D10*
%TO.C,J8*%
X53500000Y-52690000D03*
D11*
X53500000Y-55230000D03*
X53500000Y-57770000D03*
X53500000Y-60310000D03*
%TD*%
D12*
%TO.C,C5*%
X78000000Y-111000000D03*
X83000000Y-111000000D03*
%TD*%
D10*
%TO.C,J9*%
X114000000Y-60540000D03*
D11*
X114000000Y-58000000D03*
X114000000Y-55460000D03*
X114000000Y-52920000D03*
%TD*%
D13*
%TO.C,R23*%
X86580000Y-77500000D03*
X81500000Y-77500000D03*
%TD*%
%TO.C,R9*%
X90540000Y-116500000D03*
X85460000Y-116500000D03*
%TD*%
D12*
%TO.C,C3*%
X59500000Y-109000000D03*
X64500000Y-109000000D03*
%TD*%
D13*
%TO.C,R5*%
X95500000Y-68960000D03*
X95500000Y-74040000D03*
%TD*%
D10*
%TO.C,J2*%
X111000000Y-69225000D03*
D11*
X111000000Y-71765000D03*
%TD*%
D12*
%TO.C,C1*%
X111000000Y-105500000D03*
X116000000Y-105500000D03*
%TD*%
D13*
%TO.C,R13*%
X68000000Y-72500000D03*
X62920000Y-72500000D03*
%TD*%
D14*
%TO.C,U4*%
X59500000Y-100700000D03*
X61500000Y-100700000D03*
X63500000Y-100700000D03*
X65500000Y-100700000D03*
X67500000Y-100700000D03*
X69500000Y-100700000D03*
X71500000Y-100700000D03*
X73500000Y-100700000D03*
D15*
X75000000Y-98100000D03*
X75000000Y-96100000D03*
X75000000Y-94100000D03*
X75000000Y-92100000D03*
X75000000Y-90100000D03*
X75000000Y-88100000D03*
D14*
X73500000Y-85500000D03*
X71500000Y-85500000D03*
X69500000Y-85500000D03*
X67500000Y-85500000D03*
X65500000Y-85500000D03*
X63500000Y-85500000D03*
X61500000Y-85500000D03*
X59500000Y-85500000D03*
%TD*%
D16*
%TO.C,J15*%
X102350000Y-123200000D03*
D17*
X102350000Y-129500000D03*
D18*
X107150000Y-126100000D03*
%TD*%
D10*
%TO.C,J7*%
X93500000Y-117500000D03*
D11*
X93500000Y-114960000D03*
%TD*%
D19*
%TO.C,U2*%
X102000000Y-69690000D03*
X102000000Y-70960000D03*
X102000000Y-72230000D03*
X102000000Y-73500000D03*
X106950000Y-73500000D03*
X106950000Y-72230000D03*
X106950000Y-70960000D03*
X106950000Y-69690000D03*
%TD*%
D10*
%TO.C,J12*%
X86080000Y-91910000D03*
D11*
X83540000Y-91910000D03*
X81000000Y-91910000D03*
%TD*%
D20*
%TO.C,Y1*%
X74000000Y-111060000D03*
X74000000Y-115940000D03*
%TD*%
D21*
%TO.C,D3*%
X93230000Y-128500000D03*
D22*
X95770000Y-128500000D03*
%TD*%
D13*
%TO.C,R10*%
X90540000Y-114000000D03*
X85460000Y-114000000D03*
%TD*%
D23*
%TO.C,D5*%
X67920000Y-68500000D03*
D24*
X78080000Y-68500000D03*
%TD*%
D12*
%TO.C,C12*%
X111000000Y-108500000D03*
X116000000Y-108500000D03*
%TD*%
D13*
%TO.C,R21*%
X86580000Y-74500000D03*
X81500000Y-74500000D03*
%TD*%
D10*
%TO.C,J18*%
X52000000Y-67460000D03*
D11*
X52000000Y-70000000D03*
X52000000Y-72540000D03*
X52000000Y-75080000D03*
X52000000Y-77620000D03*
%TD*%
D25*
%TO.C,U1*%
X110010000Y-85150000D03*
X108740000Y-85150000D03*
X107470000Y-85150000D03*
X106200000Y-85150000D03*
X104930000Y-85150000D03*
X103660000Y-85150000D03*
X102390000Y-85150000D03*
X101120000Y-85150000D03*
X99850000Y-85150000D03*
X98580000Y-85150000D03*
X97310000Y-85150000D03*
X96040000Y-85150000D03*
X94770000Y-85150000D03*
X93500000Y-85150000D03*
D26*
X92250000Y-88190000D03*
X92250000Y-89460000D03*
X92250000Y-90730000D03*
X92250000Y-92000000D03*
X92250000Y-93270000D03*
X92250000Y-94540000D03*
X92250000Y-95810000D03*
X92250000Y-97080000D03*
X92250000Y-98350000D03*
X92250000Y-99620000D03*
D25*
X93500000Y-102650000D03*
X94770000Y-102650000D03*
X96040000Y-102650000D03*
X97310000Y-102650000D03*
X98580000Y-102650000D03*
X99850000Y-102650000D03*
X101120000Y-102650000D03*
X102390000Y-102650000D03*
X103660000Y-102650000D03*
X104930000Y-102650000D03*
X106200000Y-102650000D03*
X107470000Y-102650000D03*
X108740000Y-102650000D03*
X110010000Y-102650000D03*
D27*
X102990000Y-91000000D03*
X101590000Y-91000000D03*
X103690000Y-91700000D03*
X102290000Y-91700000D03*
X100890000Y-91700000D03*
X102990000Y-92375000D03*
X101590000Y-92375000D03*
D28*
X102290000Y-92400000D03*
D27*
X103690000Y-93100000D03*
X102290000Y-93100000D03*
X100890000Y-93100000D03*
X102990000Y-93800000D03*
X101590000Y-93800000D03*
%TD*%
D12*
%TO.C,C13*%
X74000000Y-56500000D03*
X74000000Y-61500000D03*
%TD*%
D13*
%TO.C,R18*%
X77960000Y-120500000D03*
X83040000Y-120500000D03*
%TD*%
D29*
%TO.C,C11*%
X93500000Y-56597349D03*
D12*
X93500000Y-61597349D03*
%TD*%
D13*
%TO.C,R12*%
X69500000Y-109580000D03*
X69500000Y-104500000D03*
%TD*%
D10*
%TO.C,J11*%
X86080000Y-87320000D03*
D11*
X83540000Y-87320000D03*
X81000000Y-87320000D03*
%TD*%
D30*
%TO.C,BZ1*%
X77000000Y-76500000D03*
D31*
X69400000Y-76500000D03*
%TD*%
D13*
%TO.C,R1*%
X104000000Y-77500000D03*
X104000000Y-82580000D03*
%TD*%
D12*
%TO.C,C4*%
X78000000Y-113500000D03*
X83000000Y-113500000D03*
%TD*%
D10*
%TO.C,J14*%
X116000000Y-68460000D03*
D11*
X116000000Y-71000000D03*
X116000000Y-73540000D03*
X116000000Y-76080000D03*
X116000000Y-78620000D03*
X116000000Y-81160000D03*
%TD*%
D32*
%TO.C,J5*%
X69250000Y-121712500D03*
D12*
X66750000Y-121712500D03*
X66750000Y-123712500D03*
X69250000Y-123712500D03*
D33*
X74000000Y-126572500D03*
X62000000Y-126572500D03*
%TD*%
D34*
%TO.C,C10*%
X111000000Y-116000000D03*
D12*
X116000000Y-116000000D03*
%TD*%
D32*
%TO.C,A2*%
X77390000Y-52660000D03*
D35*
X74850000Y-52660000D03*
X72310000Y-52660000D03*
X69770000Y-52660000D03*
X67230000Y-52660000D03*
X64690000Y-52660000D03*
X62150000Y-52660000D03*
X59610000Y-52660000D03*
X59610000Y-65360000D03*
X62150000Y-65360000D03*
X64690000Y-65360000D03*
X67230000Y-65360000D03*
X69770000Y-65360000D03*
X72310000Y-65360000D03*
X74850000Y-65360000D03*
X77390000Y-65360000D03*
%TD*%
D10*
%TO.C,J10*%
X86080000Y-82730000D03*
D11*
X83540000Y-82730000D03*
X81000000Y-82730000D03*
%TD*%
D13*
%TO.C,R19*%
X77960000Y-118000000D03*
X83040000Y-118000000D03*
%TD*%
D21*
%TO.C,D2*%
X93230000Y-135000000D03*
D22*
X95770000Y-135000000D03*
%TD*%
D13*
%TO.C,R6*%
X98500000Y-74000000D03*
X98500000Y-68920000D03*
%TD*%
%TO.C,R14*%
X65150000Y-76420000D03*
X65150000Y-81500000D03*
%TD*%
D36*
%TO.C,Q2*%
X92040000Y-72000000D03*
D37*
X90770000Y-72000000D03*
X89500000Y-72000000D03*
%TD*%
D38*
%TO.C,U3*%
X61055000Y-117450000D03*
X62325000Y-117450000D03*
X63595000Y-117450000D03*
X64865000Y-117450000D03*
X66135000Y-117450000D03*
X67405000Y-117450000D03*
X68675000Y-117450000D03*
X69945000Y-117450000D03*
X69945000Y-112500000D03*
X68675000Y-112500000D03*
X67405000Y-112500000D03*
X66135000Y-112500000D03*
X64865000Y-112500000D03*
X63595000Y-112500000D03*
X62325000Y-112500000D03*
X61055000Y-112500000D03*
%TD*%
D32*
%TO.C,A1*%
X108390000Y-52660000D03*
D35*
X105850000Y-52660000D03*
X103310000Y-52660000D03*
X100770000Y-52660000D03*
X98230000Y-52660000D03*
X95690000Y-52660000D03*
X93150000Y-52660000D03*
X90610000Y-52660000D03*
X90610000Y-65360000D03*
X93150000Y-65360000D03*
X95690000Y-65360000D03*
X98230000Y-65360000D03*
X100770000Y-65360000D03*
X103310000Y-65360000D03*
X105850000Y-65360000D03*
X108390000Y-65360000D03*
%TD*%
D12*
%TO.C,C2*%
X59500000Y-106500000D03*
X64500000Y-106500000D03*
%TD*%
D13*
%TO.C,R8*%
X90540000Y-119000000D03*
X85460000Y-119000000D03*
%TD*%
D10*
%TO.C,J3*%
X92500000Y-77500000D03*
%TD*%
D13*
%TO.C,R7*%
X90540000Y-121500000D03*
X85460000Y-121500000D03*
%TD*%
D12*
%TO.C,C7*%
X55500000Y-72500000D03*
X60500000Y-72500000D03*
%TD*%
D39*
%TO.C,J20*%
X53000000Y-121500000D03*
X55000000Y-129400000D03*
X53000000Y-127000000D03*
%TD*%
D10*
%TO.C,J19*%
X83500000Y-52725000D03*
D11*
X83500000Y-55265000D03*
%TD*%
D40*
%TO.C,U5*%
X101850000Y-110700000D03*
X101850000Y-113000000D03*
D41*
X108150000Y-113000000D03*
D40*
X101850000Y-115300000D03*
%TD*%
D10*
%TO.C,J13*%
X86080000Y-96500000D03*
D11*
X83540000Y-96500000D03*
X81000000Y-96500000D03*
%TD*%
D13*
%TO.C,R20*%
X55460000Y-69500000D03*
X60540000Y-69500000D03*
%TD*%
D42*
%TO.C,Q1*%
X83000000Y-62500000D03*
D43*
X83000000Y-65040000D03*
X83000000Y-67580000D03*
%TD*%
D13*
%TO.C,R2*%
X106500000Y-82540000D03*
X106500000Y-77460000D03*
%TD*%
D44*
%TO.C,U6*%
X53225000Y-114305000D03*
D12*
X55765000Y-114305000D03*
X55765000Y-106685000D03*
X53225000Y-106685000D03*
%TD*%
%TO.C,C8*%
X88000000Y-68500000D03*
X93000000Y-68500000D03*
%TD*%
%TO.C,C14*%
X89000000Y-107000000D03*
X94000000Y-107000000D03*
%TD*%
D13*
%TO.C,R22*%
X86500000Y-72000000D03*
X81420000Y-72000000D03*
%TD*%
%TO.C,R11*%
X67000000Y-104500000D03*
X67000000Y-109580000D03*
%TD*%
%TO.C,R16*%
X91500000Y-81000000D03*
X96580000Y-81000000D03*
%TD*%
D12*
%TO.C,C6*%
X72500000Y-105000000D03*
X77500000Y-105000000D03*
%TD*%
D13*
%TO.C,R15*%
X62000000Y-76420000D03*
X62000000Y-81500000D03*
%TD*%
D10*
%TO.C,J6*%
X98000000Y-109460000D03*
D11*
X98000000Y-112000000D03*
X98000000Y-114540000D03*
X98000000Y-117080000D03*
%TD*%
D13*
%TO.C,R4*%
X96000000Y-77000000D03*
X101080000Y-77000000D03*
%TD*%
%TO.C,R17*%
X52000000Y-104000000D03*
X57080000Y-104000000D03*
%TD*%
D21*
%TO.C,D1*%
X93230000Y-124000000D03*
D22*
X95770000Y-124000000D03*
%TD*%
D10*
%TO.C,J16*%
X112960000Y-128000000D03*
D11*
X115500000Y-128000000D03*
%TD*%
D10*
%TO.C,J4*%
X89775000Y-110500000D03*
D11*
X87235000Y-110500000D03*
%TD*%
D34*
%TO.C,C9*%
X81000000Y-104000000D03*
D12*
X86000000Y-104000000D03*
%TD*%
D45*
%TO.C,J1*%
X78500000Y-131000000D03*
X90500000Y-131000000D03*
D46*
X87050000Y-126160000D03*
D47*
X86030000Y-128700000D03*
X85010000Y-126160000D03*
X83990000Y-128700000D03*
X82970000Y-126160000D03*
X81950000Y-128700000D03*
%TD*%
D13*
%TO.C,R3*%
X108000000Y-56420000D03*
X108000000Y-61500000D03*
%TD*%
M02*
